<?xml version="1.0" standalone="no"?>
<!DOCTYPE svg PUBLIC "-//W3C//DTD SVG 1.1//EN" "http://www.w3.org/Graphics/SVG/1.1/DTD/svg11.dtd" >
<svg>
<metadata>
Created by FontForge 20090622 at Wed Apr  5 09:49:17 2017
 By deploy user
COPYRIGHT ESSELTE LETRASET LTD., 1994 
</metadata>
<defs>
<font id="SmudgerLetPlain" horiz-adv-x="819" >
  <font-face 
    font-family="Smudger LET"
    font-weight="5"
    font-stretch="normal"
    units-per-em="2048"
    panose-1="0 0 0 0 0 0 0 0 0 0"
    ascent="1638"
    descent="-410"
    x-height="707"
    cap-height="1358"
    bbox="-493 -870 2129 1803"
    underline-thickness="191"
    underline-position="-179"
    unicode-range="U+0020-U+F002"
  />
<missing-glyph horiz-adv-x="1024" 
d="M82 1365h860v-1365h-860v1365zM123 1324v-1283h778v1283h-778z" />
    <glyph glyph-name=".notdef" horiz-adv-x="1024" 
d="M82 1365h860v-1365h-860v1365zM123 1324v-1283h778v1283h-778z" />
    <glyph glyph-name="multiply" unicode="&#xd7;" horiz-adv-x="0" 
 />
    <glyph glyph-name="multiply" unicode="&#xfd;" horiz-adv-x="0" 
 />
    <glyph glyph-name="HT" horiz-adv-x="410" 
 />
    <glyph glyph-name="nonmarkingreturn" horiz-adv-x="410" 
 />
    <glyph glyph-name="space" unicode=" " horiz-adv-x="410" 
 />
    <glyph glyph-name="exclam" unicode="!" horiz-adv-x="683" 
d="M176 246l18 11l61 -25h11l4 3v11l22 4l7 -18h7l15 -22l10 7l8 -4l14 -29l11 -21h4l7 11l7 -4l8 -11l18 -22l3 -3l-3 -15l7 -14h-7v-8h3l8 -25l-4 -33l-4 -25l-25 -15l-33 -7l-18 -25l-36 3h-7l-51 19l-51 32l-14 18l-19 4l4 7l-11 11v15l-33 18l-21 11l7 11v11l7 10
l-3 15l7 7h11l-8 15l11 7l-7 25l7 4l15 -4l3 4v7l15 18zM548 1411l41 15l38 -8l52 -37l7 -11v-37l-30 -128l-26 -74l-60 -153l-14 -4l-72 -164l-3 -15l-38 -120l-11 -11l-4 -4l8 -7l-11 -15l7 -11l-7 -23l-8 -11l-11 -22l-3 -12l-30 -52l-16 -63l-3 -45l-8 -41h-11l-7 -34
l-23 -15l-11 4l-15 -7l-15 26l-11 86l4 93l30 179l37 168l52 179l67 161l56 131l15 48z" />
    <glyph glyph-name="quotedbl" unicode="&#x22;" horiz-adv-x="482" 
d="M421 1072l19 10l22 -4l6 -2l10 -6l8 2l13 -15l10 -20l-1 -14l-6 -16l-8 -29l-4 -6l-6 -24l-2 -10l-22 -55l-10 -21h-6l-5 -16l-24 -69l-2 -12l-8 -2l-12 -37l-10 -14l-5 -2l1 -10l-1 -4l5 -7l-5 -10l1 -8l-3 -14l-2 -6l1 -17l-7 -13l-17 -3l-24 18l-6 31l-2 55l3 63l6 33
l28 103l8 23l10 28l29 77l8 17zM272 1092l10 4l18 -2l19 -12l4 -14l8 -4l4 -11l-18 -44l-2 -16l-13 -45l-18 -55l-20 -63l-2 -4l-4 -15l-8 -26l-7 -12l-8 -23l-6 -34l-8 -18l-4 -2l2 -17l4 -6l8 2v-6l-6 -6v-10l-4 -2l-2 -6l-24 -2l-3 -4l-4 2l-16 -8h-6l-14 26l-12 45
l-3 63l17 97l26 80l29 71l32 55l14 18l13 6z" />
    <glyph glyph-name="numbersign" unicode="#" 
d="M82 1351v-1337h655v1337h-655zM751 0h-683v1365h683v-1365z" />
    <glyph glyph-name="dollar" unicode="$" horiz-adv-x="885" 
d="M572 331h-12l-8 -4l-9 -31l-22 -79l-7 -23l-8 -33l27 19l43 32l57 49l4 16l-15 20zM423 747h-8l-27 -24l-73 -79l-33 -35l-13 -22l-6 -16l22 -11l38 -10l71 -19l5 4l27 187l5 8zM681 1346l17 12l27 -1l25 -17l3 -13l12 -27l2 -50l-13 -92l-30 -123l41 -6l55 -22l41 -30
l35 -32l3 -55l-14 -36h-32l-28 17l-103 38h-13l-25 -45l-36 -105l-8 -29l-15 -36l-15 -59l-10 -26l-20 -95l-5 -30v-9l91 -46l64 -46l42 -44l6 -10l11 -37v-26l-1 -26l-18 -19l-27 -27l-32 -25l-25 -11l-30 -21l-41 -22l-52 -30l-38 -22l-28 -18l-10 -6l-2 -53l-11 -26
l2 -63l-4 -16l5 -37l3 -23l5 -36l9 -27l-4 -23l27 -64l-6 -3l9 -20l-17 -16l-13 4l-5 -23l-23 -3v-13l-20 1l-25 31l-27 86l-28 133l-15 153l-27 -22l-28 -12l-40 -16l-32 -3l-13 11l-29 1v6l27 9l50 35l90 69l14 169l11 112l-3 23l-72 9l-63 6l-36 4l-52 18l-65 36l-22 30
l-2 20l11 46l18 42l66 94l123 124l140 119l81 61l62 163l46 88l49 78z" />
    <glyph glyph-name="percent" unicode="%" horiz-adv-x="1108" 
d="M829 345l-6 3v-9l-21 -24l-14 -21v-6l-12 -6l-9 -17l-3 -3l-18 -27l-9 -6l-9 -21l-9 -6v-6l-6 -3l9 -9l-32 -15l6 -2v-6l-6 -3l-3 -21l-15 -9l-12 -36l-9 -8v-9l-6 -9l3 -3l57 18l53 41l42 51l32 65l3 56v12l-6 21v18zM401 948h-6l-33 -53l-12 -15l-41 -65l-24 -48l12 -6
l48 12l26 15l18 44l9 66l3 47v3zM824 505l13 4l5 -2l5 -7l7 7l7 -2v-5l10 -5l3 -8l12 -2l5 -15l49 -40l15 -12l-2 -17l10 2l5 -12l-3 -8l13 -19l2 -13v-37h-2h-3l-2 -5l-8 -5l8 -40l12 -24l-10 -18l-5 -9l5 -8v-10l-10 -22l-10 -42l-17 -20l-20 -20l-10 -10v-5h5v-9l-10 -8
l-19 -17h-5l-10 -15l-30 -25l-42 -22l-22 -7l-10 -3v-2l-25 -8l-59 -20l-58 4l-34 19l-12 17l-15 3v7l-15 17l-5 3l-17 29l-8 35l-4 52l7 44l20 58l10 22l19 37l-19 7h-8l15 27l74 72l50 37l72 45l29 15l5 2h15zM912 1066l49 32h8l7 -15l-7 -20l5 -5l-13 -32l-5 -3v-2
l-12 -17l-35 -42l-15 -13l-7 -10l-35 -54l-17 -20l-17 -27l-32 -37l-25 -42l-27 -40l-3 -5l-25 -27l-7 -17l-15 -18l-12 -22l-35 -50v-5l-15 -12l-10 -15v-5l-12 -12l-5 -10l-12 -5l-10 -20l-22 -37l-20 -29l-10 -13l-20 -32l-30 -49l-19 -25l-10 -20l-15 -30l-8 -15
l-24 -44l-35 -74l-5 -15l-12 -27l-18 -47l-19 -62l-18 -67v-13l-12 -24l-8 -22l3 -10l-8 -13l-9 3l-3 -10l-7 -5v-3l-18 -17l-4 3l7 71l25 119l37 121l52 129l57 124l116 220l77 119l37 52l126 158l74 77l37 34zM310 1088l54 23l30 -5l37 -20l17 -10l35 -25l7 -17l13 -12
l2 -8l8 -27l4 -20l-2 -5l5 -10l-5 -4l12 -20h8v-50l7 -42l-10 -30l3 -7l-10 -17l-8 -8l-2 -17v-24l-9 -18l-21 -22l-25 -15l-22 -20l-12 3l-3 -6l-19 -4l-28 -5l-2 -5l-42 -13h-30v-5h-20l-4 3l4 7l-4 3l-15 -5l-25 10l-24 4l-21 20l-22 15l-10 13l-30 34v3l-12 24l-7 25
l-3 32l3 33l5 34l17 50l17 32l42 44l52 45z" />
    <glyph glyph-name="ampersand" unicode="&#x26;" horiz-adv-x="1159" 
d="M513 469l22 99l-22 -23l-27 -3l-19 -12l-23 -23l-58 -34l-15 -8l-69 -42v-11l-11 -8l-4 -7l-27 -23l-7 -12v-11l-16 -16l4 -26l39 -23l38 -12l99 -3h65zM639 878h-4l-81 -31l-64 -34l126 -8zM1024 1500l4 4l37 -8l21 -26l3 -15v-31l-7 -46v-23l-31 -91l8 -8l-19 -38
l-20 -61l50 11h39l30 -7l19 -8h8l11 -12l23 -11l19 -19l12 -38l-8 -4h-19l-8 -15l-11 -4l-19 11h-42l-35 -7l-42 -12v-11l-46 -8l-11 -4l-15 -23l-35 -34l-33 -72l-10 -29l-22 -43l-20 -29l47 -11l50 -11l19 -8l4 -11l-8 -4v-4l-23 -15v-11l-23 -8l8 -19l-92 -27h-7l-23 -19
v-27l-20 -8l-3 -11l23 -4l-8 -19h-23l-4 -34l-12 -51l-10 -59l-6 -42l-21 -74l-19 -11l3 -15l161 19l202 30l-53 -30l-42 -15l-27 -12l-15 -4l-23 -15l-46 -15l-31 -19l-61 -16l-49 -30l-4 -4l-23 -15l4 -16l-8 -7l-11 -54l-19 -103l3 -23l-7 -19l-8 -7l-4 -58l-3 -7l3 -20
l-11 -11l-12 4l-11 -12h-12l-26 -23l-31 -38l-8 -7l-3 -8l-8 4l-27 30l-19 46l-7 103l-4 187l-42 -7v-4l-35 -4v-11v-4l-23 4l-11 -8h-34h-69l-12 4h-27l-15 12h-11l-38 18l-35 31l-19 23l-19 42l-15 27l-4 61l27 76l19 27l61 54l405 233l7 19l-23 7l-15 -7l-42 -4l-19 -4
l-38 4l-4 -12l-15 -3l-54 3h-7l-46 4l-15 15l-4 42l-12 8l12 54l19 46l34 38l130 61l245 91l19 35l103 191l65 99l61 88l27 23l15 11z" />
    <glyph glyph-name="quotesingle" unicode="'" horiz-adv-x="308" 
d="M247 1047l27 23l22 -2l20 -13l17 -28l2 -29l-4 -40l-7 -35l-14 -61l-22 -63l-8 -22l-14 -25l-15 -36l-6 -8l-8 2l-2 -2l-4 -15l-2 -2l-8 2l-4 -14v-6l-12 -24l-3 -2l-12 -2l-28 -17l-2 -2l-12 19l-10 42l-1 49l7 65l16 63l20 59l41 84z" />
    <glyph glyph-name="parenleft" unicode="(" 
d="M712 1421l23 6l26 -3l6 -3l23 -6l20 -12l9 -22l-6 -27l-6 -23l-26 -43l-34 -52l-47 -84l-37 -84l-47 -93l-8 -17l-23 -52l-47 -93l-23 -61l-14 -43l-15 -41l-25 -43l-10 -38l-17 -81l-6 -40l-8 -58v-136l5 -26l-5 -6l2 -23l12 -43l3 -35l17 -55l58 -107l32 -46v-9l72 -84
l9 -9v-23l6 -11l-15 -24h-34l-6 -11l-17 6h-6l-12 5l-75 53l-35 34l-63 81l-38 58l-43 81l-24 75l-23 102l-11 130l5 98l12 107l38 139l49 154l52 112l90 163l69 98l55 69l64 58z" />
    <glyph glyph-name="parenright" unicode=")" 
d="M381 1391l14 16h44l40 -19l29 -25l24 -32l86 -146l49 -118l38 -127v-29l6 -29l20 -127v-48l3 -35l-6 -25l-8 -45v-38l-6 -13l-6 -48l-6 -28l-11 -19l3 -16l-6 -10l-15 -16l-14 -35l8 -6v-6l-20 -42l-11 -22l-26 -32l-15 -19l-17 -35l-18 -29l-37 -54l-6 -16l-23 -6h-6
l-11 -22l-35 -42l-44 -48l-69 -44l-20 -19l-63 -49l-28 -27l-31 -13l-17 -19l-18 -13l-34 -19l-6 54l3 19l29 86l72 127l123 160l55 93l41 84l33 93l21 72l17 88l2 81l-5 69l-16 102l-47 156l-46 135l-27 60l-11 42l-4 38l9 20l14 15h6z" />
    <glyph glyph-name="asterisk" unicode="*" horiz-adv-x="996" 
d="M475 1511l47 27l24 -6l21 -15l77 -128l48 69l41 41l21 -12l3 -20l-3 -36l-39 -95l122 53l83 27l57 9h8l7 -6l14 -15l3 -21l-3 -9l-6 -20l-17 -12l-92 -27l-69 -30l-3 -6l122 -20l89 -24l21 -9l3 -6l-9 -3l-3 -9l-9 -3v-6l-9 -3l-3 -5h-15l-23 -10h-33l-39 -14h-53l-9 -9
h-74l-9 -3l21 -60l29 -74l6 -21l12 -29l3 -12l-3 -12l-12 -3l-9 12l-3 -18l-11 -6l-18 18l-6 3l-9 18h-9l-9 17l3 -20v-12l-12 3v6l-35 50l-96 116l-29 -80l-21 -51l-21 -68l-12 -27l-3 -3l-3 -14l-17 -6l-6 9l-3 35l9 89l15 74l-4 3l-59 -35l-41 -9l-18 -15l-9 -3l-30 -21
l-27 -3l-32 -18l-30 -11l-6 6l-18 -12l-6 -6l-27 -6l-8 -6l-21 3l50 65l93 83l56 42v6l-51 -3l-29 -3l-21 24l6 21l23 32l3 9l30 30l68 6l87 9l17 5l-50 107l-9 36l-6 45l9 2l6 21l12 6v12z" />
    <glyph glyph-name="plus" unicode="+" 
d="M82 1351v-1337h655v1337h-655zM751 0h-683v1365h683v-1365z" />
    <glyph glyph-name="comma" unicode="," horiz-adv-x="528" 
d="M162 246l26 11l46 -4l105 -34l33 -16l29 -42l21 -54l-4 -59l-17 -41l-21 -42l-33 -29l-46 -54l-50 -34l-25 -25l-13 -8l-37 -38l-25 -12l-9 -13l-67 -33l-67 -42l-29 -8l-8 12l-25 17l94 116l75 106l39 44l34 44l15 39l-16 2l-30 -2l-55 13l-14 33v44l8 37l38 58z" />
    <glyph glyph-name="hyphen" unicode="-" horiz-adv-x="849" 
d="M415 464l71 6l70 1l160 -1l38 -2l13 -10v-9l-27 -9l-3 -9l-9 -2l-30 -18l-4 -15l-21 -10l-28 -21l-53 -17l-30 -9l-7 -9l-32 9l-3 -8l-51 -25l-74 -19l-47 -11l-58 2l-51 -3l-69 7l-40 -8l-22 16l1 8l-17 19l-8 6l3 35l-5 15l20 36l10 14l38 12l63 6l128 15z" />
    <glyph glyph-name="period" unicode="." horiz-adv-x="528" 
d="M141 246l19 11l61 -25h11l4 3v11l21 4l-7 -18l7 -11l4 -4l4 4v11h7l15 -22l10 7l8 -4l14 -29l11 -21l11 11l7 -4l7 -11l19 -22l3 -3l-3 -15l7 -14h-7v-8h3l7 -25l-3 -33l3 -14l-10 3v-3l3 -11l-25 -15l-33 -7l-18 -25l-36 3h-8l-50 19l-51 32l-15 18l-18 4l4 7l-11 11v15
l-33 18l-22 11l4 11h4v11l7 10l-4 15l8 7h11l-8 15l11 7l-7 25l7 4l15 -4l3 4v7l15 18z" />
    <glyph glyph-name="slash" unicode="/" horiz-adv-x="837" 
d="M812 1400l28 18h27l35 -32l4 -24l-4 -24v-25l-31 -66l-56 -100l-66 -111l-45 -70l-55 -87l-139 -253l-49 -91l-31 -62l-24 -38l-11 -42l-21 -21l-41 -86l-14 -28l-21 -52l-11 -18l-27 -66l-18 -7l-13 -28l-56 -138l-21 -39l-21 -59l-14 -24h-7l-27 -35l-18 4l-21 10
l-3 35l10 59l21 125l49 177l52 153l87 198l104 212l135 239l108 160l108 149l52 56z" />
    <glyph glyph-name="zero" unicode="0" horiz-adv-x="782" 
d="M538 696l-9 5l-9 -18l-26 -26l-61 -79l-52 -61l-79 -157l-39 -126l-9 -53v-65l5 -35l13 -39l44 -1l44 25l56 50l56 69l40 118l25 190zM566 1011h10l23 3l33 -26l30 -37l9 -42l-3 -60l3 -13v-10l14 -26l-4 -14l-10 4v-27l4 -6l6 -27l10 -43v-19l10 -23l13 -42l11 -46
l3 -64v-63l-4 -26l1 -87l-8 -49l-3 -28l-10 -18l-3 -19l-6 -20l3 -7l-13 -16l-7 -20l-13 -10v-13l-30 -53l-13 -20l-20 -20l-16 -13l-30 -36l-27 -17l-29 -26l-30 -20l-26 -13l-56 -20l-43 -10l-50 4l-46 13l-43 30l-16 3l-30 16l-43 43l-33 60l-26 69l-3 63v69l13 69
l36 116l56 128l69 109l37 63l3 10l3 23l-16 3l-7 23l53 63l76 66l86 49z" />
    <glyph glyph-name="one" unicode="1" horiz-adv-x="607" 
d="M570 1085l10 3h26l23 -10l27 -36l6 -3l20 -37l3 -29l-3 -17l7 -6v-20l-7 -20l-3 -23l-30 -63l-20 -36l-10 -3l4 -14l-10 -9l-40 -70l-16 -9l-7 -14l-30 -46l-13 -16l-16 -40l-7 -10l-10 -23l-30 -50l-10 -29l-9 -7l3 -23l-33 -36v-40l-10 -3l-10 -23l-16 -40v-23l-4 -16
l-10 -4l4 -19h-7l3 -10l-16 -83l-3 -29l-10 -17l6 -10l-6 -16l-7 -10v-7l7 -6l-14 -60l-6 -30v-19l-10 -50l-10 -10l-13 -36l-10 -36l-6 -20l-7 -3l-7 6l-10 -13l-13 -3l-16 -23l-10 3v3l3 324l10 125l16 79l17 89l56 165l53 152l-76 -56l-53 -23l-33 -4l-29 7l-40 16
l-23 17l-17 13l20 46l92 96l162 139l145 109z" />
    <glyph glyph-name="two" unicode="2" horiz-adv-x="1271" 
d="M743 956h13h63l46 -7l33 -10l39 -23l27 -36l13 -26l23 -33l20 -43l3 -30l10 -23l3 -40l-9 -43l-20 -36l-30 -33l-23 -20l-26 -10l-27 -19l-13 -20l-20 -4l-13 -19l-33 -30l-26 -10l-14 -10l-19 -13l-51 -39l-42 -20l-39 -23l-17 -14v-10l-23 -16l-78 -66l-13 -3l-13 -7
v-10l30 3l46 10l36 -3l13 7l89 3l10 3l50 -3l66 -3l36 3l7 -10l49 -10l10 10l49 -10l20 -13l32 9l47 -3l43 -9l65 -10l20 -10l7 -7l9 -3l37 -27l13 -13v-6l-20 -4l10 -10l-30 -10l-43 -6l-36 -4l-26 -9l-27 3l-30 -6h-19v-7l-30 3l-26 -13h-14l-29 -20l-40 -3l-63 -16
l-33 -7l-151 -20l-10 -6l-125 -17l-27 -7l-96 -6l-52 -13l-122 -20l-33 -10l-27 -3h-39l-20 16l-20 13l-7 10l-33 33l-19 17l-20 26l10 40l10 23l13 10l33 42l115 90l155 109l99 79l30 29l59 50l99 102l10 10l86 102l20 30l-73 3l-26 -6h-27l-9 -10l-77 -23l-85 -43l-46 -20
l-50 -13l-46 10l-16 23v20l13 29l39 46l20 14l69 62l116 70l99 39z" />
    <glyph glyph-name="three" unicode="3" horiz-adv-x="796" 
d="M350 876l125 25l69 2l53 -9l37 -19l30 -26l30 -46l17 -26l1 -40l4 -42v-17l-12 -27l-22 -15l-40 -42l-26 -10l-33 -27l-26 -33l-19 -8l-3 -13l-33 -23l-10 -11l-32 -33l69 -19l77 -28l63 -48l27 -30l24 -42l-6 -43l1 -40l-10 -16l-22 -17l-4 -10l-29 -4l-3 -10l-17 -10
l-13 -7l-13 -17l-32 -13l-46 -24l-16 -10l-7 3l-13 -7l-30 -11l-16 -16l-39 -4l-31 -13l-48 -22l-43 -17l-19 -14l-10 4l-16 -7l-37 -4l-46 -17l-75 -32h-16l-33 -14l-10 4l-34 12l-16 -10l-16 -7l-23 10l9 13l-3 16l32 41l43 17l26 17l121 71l29 14l248 136l20 20l-69 2
l-83 12l-34 19l-23 30l-17 16l-13 19l-8 40l19 37l10 3l13 20l26 30l114 91l65 61l48 57l23 36l-1 20l-65 -1l-43 -11l-50 -7l-95 -25l-69 6l-50 18l-17 17l-7 23l6 23l33 37l42 23z" />
    <glyph glyph-name="four" unicode="4" horiz-adv-x="957" 
d="M509 978l45 30l10 1l17 -17l14 -49l-6 -70l13 -9l-9 -50l-26 -99l-61 -218l14 3l32 14l37 6l32 17l53 14l17 3l9 7l20 4l99 23l36 11l96 20l85 14h10l7 -6l-4 -13l-9 -27l-29 -17v-23l-155 -57l-26 -14l-89 -33l-7 -10l-101 -41l-158 -67l-4 -10h-9l-17 -20l9 -19
l-16 -50l-26 -13l3 -17l-9 -49l-23 -77l-24 -95l-17 -43l-13 -36l-9 -38l-19 -41l-14 -22l-9 -33l-12 -23l-7 -3v53l-13 -11l-1 70l7 46l17 159l35 185v23l-46 -11l-30 10l-50 3l-49 19l-17 10l-20 20l-20 26l-3 36l-1 36l23 70l71 136l108 169l104 140l10 3l36 33l13 3
l13 -6l13 -22l-6 -31l-32 -59l-46 -67l-98 -152l-61 -110l-23 -49l4 -43l16 -13l63 7l69 17l58 225l61 195l25 69l10 27z" />
    <glyph glyph-name="five" unicode="5" horiz-adv-x="814" 
d="M726 960l7 6l105 -23l4 -3v-10l-4 -6l4 -14l-23 -19l-20 -34l-3 -9l3 -4l-7 -20l-6 -3v-3l6 -7l-6 -9l9 -29l13 -24l3 -21v-7l-36 -7l-13 -11l-42 -14l-65 -15l-36 -2l-19 2h-63l-62 1l-17 10l-6 -10l-17 10l-14 -35l-45 -79l-19 -33l145 -63l63 -36l89 -66l29 -37
l17 -39l-3 -20l13 -56l-10 -13l-27 -33l-29 -23l-17 -10l-6 -14l-24 -3l-29 -10l-53 -23l-36 -29l-27 -4l-20 -13l-36 -26l-39 -4l-30 -16h-13v6l-36 -3h-23l-27 -7l-10 -6h-56l3 13l-42 -3l-7 -7l3 -7l-20 4l-19 -4l-30 14h-20l-13 23l3 10l-6 3l13 13l-10 14l7 6l6 20
l23 23l4 13l13 7l29 16l60 20l76 36l132 63h6l56 33l10 3l4 17l-63 29l-109 47l-40 20l-29 29l-20 36l-10 43l7 47l19 49l70 99v3l-27 17v13l-23 33l-3 10l16 26l40 40l16 23l4 13l16 3h10h33l10 -3l20 13l43 -3l3 -7l20 7l3 -7h10l7 10l19 4h33l4 6l16 -3l7 7l6 -4l7 10h23
l43 16l92 14h10z" />
    <glyph glyph-name="six" unicode="6" horiz-adv-x="739" 
d="M389 455l-16 -4h-23l-13 -10l-13 3l-10 -20v-6l-13 -17l3 -6l-13 -10v-7l-10 -33l-6 -3l-13 -40l3 -10l-6 -10l-10 -36l-7 -22l5 -21l-13 -20l6 -4v-23l-2 -52v-10l13 -43l37 -10l39 21l56 46l49 47l22 46l16 70l-1 99l-17 46l-20 19l-9 10l-13 -3zM687 1134l46 20l23 -7
l17 -9l3 -27l4 -13l-20 -23v-10l-13 -20l-29 -33l-16 -37l3 -9l-20 -17l7 -10l-23 -7l3 -10l-6 -6l-16 -23v-14l-7 -6l-10 3l-6 -7l-20 -10l-3 -13l-30 -33l-35 -47l-33 -47l-26 -29l-13 -27l-46 -66l20 -7l30 4l39 -13l10 -16h20l23 -10l32 -34l12 -41h3l7 -20h13l4 -23
l3 -3l-7 -10l14 -17v-19l4 -24l6 -6l1 -26l-4 -7v-23l-3 -20l4 -23l-3 -13h-10l4 -25l-7 -12l3 -13l-13 -7v-32l-29 -24l-16 -36l-22 -15l-14 -19l-32 -28l-22 -19l-38 -27l-11 -16l-30 -14l-28 -6l-16 -17l-69 -23h-53l-66 15l-27 13l-16 17l-34 46l-3 13l-17 33l-14 69
l-1 82l13 89l25 86l39 80v6l68 126l49 83l10 10l13 23l26 37l20 27l39 56l23 23l10 10l29 43l137 140z" />
    <glyph glyph-name="seven" unicode="7" horiz-adv-x="720" 
d="M488 1067h40l115 -3l70 -14l20 -10l32 -29l14 -33l16 -10v-7l7 -6l-13 -63l3 -7l-10 -33v-6l-23 -56l-13 -10l-10 -23l-30 -37l-6 -23l-14 -29l-29 -27l-20 -13l-3 -13l-30 -30l-13 -23l-14 -10v-6l-26 -27l-3 -13l-20 -40l-23 -29l-17 -33l-19 -27l-7 4l-10 -7l-16 -33
l-4 -16l-16 -17l-27 -49l-23 -37l-6 -13l-52 -107l-9 -16l-17 -3v-17l-10 -6l-7 -34l-6 -6l-27 -46l-23 -63l-9 -36h-10v62l39 149l101 255l36 89l76 165l106 208l29 63l-66 -4l-52 -10l-99 -19l-89 -10h-17l-66 -4l-59 7l-56 16l-60 37l-13 26l4 33l13 20l49 30l89 29
l152 37z" />
    <glyph glyph-name="eight" unicode="8" horiz-adv-x="859" 
d="M365 387l-3 -3l-20 -30l-26 -49l-7 -27l-7 -6l-6 -20l-17 -36l-3 -13l-20 -57l-3 -12l10 -17l3 -23l43 -10h36l7 6h43l23 4l69 10l73 26l26 16l-6 20l-17 40l-49 56l-83 69zM685 909l-24 1l-22 2l-15 -3l-15 -5l-15 -3l-24 -11l-24 -13l-23 -18l-34 -19l-35 -31l-48 -41
l-17 -14l-52 -52v-4l-17 -23l-6 -6l-14 -20l10 -18l25 -19l83 85l43 50l102 86l56 36h17v10l49 23v7zM609 1044l43 10l36 -7l24 -20l29 -53l-10 -19l-6 -10l3 -13l30 -4l3 7l30 10l6 -3l23 6l66 7l33 6l7 -3l10 7h33v-10l-10 -4l3 -6h20v-7l-20 -6l-6 -10l-27 -17h-13v-3
l3 -7l-3 -16h3l43 -7v-6l-72 -20l-66 -27l-10 -3l-10 -10l-33 -13l-79 -46l-37 -23l-36 -23l-26 -27l-33 -26l-23 -23l-37 -23l-6 -23l-10 -4v-10l-20 -36l-3 -20l23 -20l72 -55l90 -83l49 -69l13 -27l17 -33l6 -28l5 -38l-5 -23l-10 -6l-20 -21l-22 -21l-33 -22l-66 -44
l-27 -14l-20 -7l-39 -20l-83 -23l-105 -13l-106 -7l-26 7h-27l-20 16l-26 14l-6 9l-17 37l-10 20l7 26v23l10 53l46 119l16 33l20 52l56 96l20 36l-20 20l-39 40l-33 52l-14 43v27l17 43l20 33l79 82l112 93l149 92l66 33z" />
    <glyph glyph-name="nine" unicode="9" horiz-adv-x="685" 
d="M555 925l-11 12l-83 -46l-13 -10v-10l-20 -3l-36 -44l-33 -36l-72 -84l-14 -31l7 -7l46 -5l43 11l39 13l24 28l33 51l33 55zM676 1121l26 4l17 -4h23l39 -23l7 -13l20 -13v-40l-30 -148l-40 -96l-9 -26l-14 -13l-6 -24l-14 -6l-16 -40l-23 -26l-13 -26l-23 -27l-30 -59
v-7l-30 -19l-3 -17l-7 -20l-20 -29l4 -4l-14 -20l-36 -66l-10 -23l-26 -46l-23 -63l-23 -62l-11 -39l-16 -50l-13 -39l6 -16l-10 -7l-6 -23l-10 -3l-3 -20l-10 -3l-33 -80l-7 7l-3 59l-3 37l3 43l10 48l2 30l5 33l13 43v16l7 26l3 33v4v33l10 26l7 30l9 49l27 106v13
l-63 -10l-59 -10l-20 14l-3 -14l-27 10l-10 10l-10 -6l-19 16l-63 59l-13 30l-10 56v33l20 56l26 43l40 46l89 79l119 83l122 63l82 26l63 10h6l14 -3z" />
    <glyph glyph-name="colon" unicode=":" horiz-adv-x="528" 
d="M149 211l20 12l68 -28h12l4 4v12l24 4l-8 -20l8 -12l4 -4l4 4v12h8l16 -24l12 8l8 -4l16 -32l12 -24h4l8 12l8 -4l8 -12l20 -24l4 -4l-4 -16l8 -16h-8v-8h4l8 -28l-4 -36l-32 -44l-36 -7l-20 -28l-40 3h-8l-56 20l-56 37l-16 19l-28 24v16l-36 20l-24 12l5 12h3v12l9 12
l-4 16l8 8h12l-9 16l12 8l-7 28l7 4l16 -4l4 4v8l28 32h4zM246 787l40 17l63 -23h12l4 4v12l24 4l-8 -20l8 -12l4 -4l4 4v12h8l16 -24l12 8l8 -4l16 -32l12 -24h4l8 12l8 -4l8 -12l20 -24l4 -4l-4 -16l8 -16l-4 -8l8 -28l-4 -36l-32 -44l-36 -8l-20 -28l-40 4h-8l-56 20
l-56 36l-15 20l-20 4l3 8l-12 12v16l-35 20l-24 12l4 12h4v12l8 12l-4 16l8 8h12l-8 16l12 8l-9 28l9 4l16 -4z" />
    <glyph glyph-name="semicolon" unicode=";" horiz-adv-x="528" 
d="M162 213l26 11l46 -4l105 -33l33 -17l29 -42l21 -54l-4 -59l-17 -41l-21 -42l-33 -29l-46 -54l-50 -34l-25 -25l-13 -8l-37 -38l-25 -12l-9 -13l-67 -33l-67 -42l-29 -8l-8 12l-25 17l67 88l81 86l63 93l23 46l23 36l-16 2l-30 -2l-55 13l-14 33v44l8 37l38 58zM246 787
l40 17l63 -23h12l4 4v12l24 4l-8 -20l8 -12l4 -4l4 4v12h8l16 -24l12 8l8 -4l16 -32l12 -24h4l8 12l8 -4l8 -12l20 -24l4 -4l-4 -16l8 -16h-8v-8h4l8 -28l-4 -36l-32 -44l-36 -8l-20 -28l-40 4h-8l-56 20l-56 36l-32 32l-12 12v16l-35 20l-24 12l4 12h4v12l8 12l-4 16l8 8
h12l-8 16l12 8l-9 28l9 4l16 -4z" />
    <glyph glyph-name="less" unicode="&#x3c;" horiz-adv-x="977" 
d="M859 866l20 3l23 -16l35 -41l17 -19l17 -32l6 -29l-6 -44l-5 -3l-9 -20l-9 -12h-26h-11l-41 12h-6l-37 39l-6 3l-43 73l8 10v12l9 7v9l29 19l3 13zM581 1175l14 3h21l31 -29l21 -13l14 -15l6 -32v-45l-9 -22l-29 -22l-20 -26l-78 -226l-23 -51l-35 -76l-6 -6l-11 -29
l-18 -32h24l75 16l124 6l168 -22v-6l-6 -7v-54v-28l-6 -32v-19l-2 -16l-15 -115l-12 -76v-80l6 -25l35 3l35 9l69 35l12 4v-26l-15 -22l3 -16l-17 -19l-9 -7l-23 -19l-6 -6l-6 -16l-89 -32l-67 13l-29 19l-29 32l-17 48l-6 47l3 67l20 86l46 124l-11 -3l-17 -19l-41 -6
l3 -10l-14 -9l-9 -4l-32 -22l-35 -9h-3l-17 -13l-78 -35l-43 -16l-87 -25l-21 -7l-14 -35l-23 -108l-3 -35l-6 -10l-3 -32l-6 -16l3 -9l-39 -233v-6l-35 -86l-18 -29l-37 -35l-12 -9l-11 9h-6l-14 -13l-12 -3l-17 -9l-47 -10l-20 10l3 12v26l6 13l8 9l-5 13l11 3l-6 10l6 19
l6 3l12 28l20 23l17 12l37 198l29 233l14 92l-69 29l-26 22l-3 25v13l23 29l64 41l49 26l26 105l43 140l41 105l61 114l43 77l64 89l46 48l32 25z" />
    <glyph glyph-name="equal" unicode="=" horiz-adv-x="427" 
d="M608 1066l50 32h7l8 -15l-8 -20l5 -5l-12 -32l-5 -5l-13 -17l-34 -42l-15 -13l-7 -10l-35 -54l-17 -20l-18 -27l-32 -37l-24 -42l-30 -45l-25 -27l-7 -17l-15 -18l-15 -25l-32 -47v-5l-15 -12l-10 -15v-5l-12 -12l-5 -10l-13 -5l-10 -20l-22 -37l-20 -29l-10 -13l-19 -32
l-30 -49l-20 -25l-10 -20l-7 -12l-8 -18l-7 -15l-25 -44l-34 -74l-5 -15l-13 -22v-5l-17 -47l-20 -62l-17 -67v-13l-13 -24l-7 -22l3 -10l-8 -13l-10 3l-10 -15v-3l-17 -17l-5 3l8 71l24 119l37 121l52 129l57 124l117 220l76 119l37 52l126 158l75 77l37 34z" />
    <glyph glyph-name="greater" unicode="&#x3e;" horiz-adv-x="1032" 
d="M684 1126l26 6h9l26 -19l12 -26l3 -22l2 -19l-11 -29h-6l-49 -111l-20 -54l-9 -16l-12 -42l-5 -6l-15 -38l-46 -92v-10l-17 -29l-15 -28l-6 -26l136 -12l84 -13l75 172l96 169l58 79l46 32h12l26 -26l8 -35l-5 -41l-6 -16l-3 -22l-12 -29l-5 -6l-29 -83l-15 -41l-9 -29
l-37 -64l-9 -25l-9 -3l-5 -19v-26l-26 -47l-12 -39l-11 -25l-6 -23l-18 -51l-14 -31v-29l-9 -16l-3 -54l-3 -38l-11 -19v-7l11 -6l3 -10l9 -22l35 -16l40 -3l62 8l81 44l29 23l9 -16l-15 -20l-3 -6l-23 -22l-17 -26v-9l-24 -19l-22 -32l-45 -30l-35 -16h-52l-26 10l-11 3
l-64 28l-38 35l-20 45l-12 51l-2 73l8 109l12 57l-6 3l-23 -3l-17 -3l-44 -7l-11 7l-12 -10l-98 -3l-55 -10l-9 -16l-14 -28v-10l-67 -159l-6 -38l-6 -10v-13l-26 -44l-34 -122l-25 -95l-29 -73l-14 -38l-12 -26l-3 -6l-11 -45l-35 -38l-29 -16l-12 -3l-23 -16h-23l-3 -6
l-26 12l-3 7l-14 -3l-21 18l-14 20l12 54l5 48l12 35l3 31v7l11 3l12 51l12 41l8 26l9 -7h6l3 -28l5 -3l3 6h6l9 -38l17 47v7l6 22l6 16l21 102l9 42l12 32l5 47l12 35l3 39l17 44v32l3 13l9 6l-6 19l9 13v13l-49 -7h-29l-12 -3h-46l-29 16l-9 29l6 12l32 32l113 67l72 26
l23 63l12 35l17 51l38 83l8 13l9 22l17 35l64 102l72 83l76 73z" />
    <glyph glyph-name="question" unicode="?" 
d="M230 230l18 11l62 -26l40 -14l4 4v10h7l14 -22l11 8l7 -4l15 -29l11 -22h3l8 11l7 -3l7 -11l18 -22l4 -4l-4 -14l11 -47l-3 -33l-4 -25l-26 -15l-32 -7l-18 -26l-36 4h-8l-51 18l-50 33l-29 29l-11 11v14l-33 18l-22 11l4 11l29 66l-7 25l7 3h18v8l15 18zM569 1313l75 7
l74 -3l71 -23l41 -22l52 -45l23 -22l18 -64l15 -78l-7 -30l-8 -7l-3 -19l-30 -22l-38 -26l-18 -15l-34 -4l-18 -18l-75 -53l-30 -29l-18 -12l-93 -93l-38 -56l-11 -30l-45 -108l-11 -74l-3 -56l-4 -8l4 -33l3 -8l-3 -33l-4 -4v-11h-15l-11 -11l-19 -19l-8 4l-22 -23l-26 12
l-5 37l-18 47l-33 67l-19 78v89l22 79l34 89l60 93l67 79l44 44l94 79l11 14l-67 -5l-101 -13l-55 13l-11 4l-27 18l-15 23l-3 29l-4 12l11 26l15 22l41 34l112 56z" />
    <glyph glyph-name="at" unicode="@" 
d="M437 347l26 18l9 1l12 -5l9 -9l-5 -13v-7l-17 2l-6 -4l-17 -1l-11 13v5zM342 401l14 16l13 4l17 -2l14 -8l13 -12l-8 -24l-21 -6l-10 1l-23 13zM261 419l-4 24l20 10l7 1l18 -1l21 -8l2 -11l10 -13l-2 -8l-6 -11l-16 -3l-10 -4l-23 11zM91 505l4 4l14 8l1 1l14 -5l7 -3
l16 -15l12 3l18 1l26 -8l18 -3l11 -10l23 2l11 -7l1 -17l-7 -6l-14 2l-4 -2l-2 -13l-12 -7l-2 -6l-11 -2l-2 1l-15 3l-11 -2l-17 9l-16 12l-7 4l-12 11l-6 8l-23 5l-17 16zM-43 557l2 8l13 8l30 -1l26 -5l6 -11l15 -1l15 -5l17 -16l3 -15l-5 -19l-3 -7l-20 -5l-20 2l-10 4
l-4 9l-19 10l-39 27zM-415 1167l2 10l17 -4l26 7l16 7l3 4l13 -6l26 -6l7 -1l8 6h14l31 -18h5l16 10v5l7 1l3 -2l-8 -29l8 -13l8 -2l-2 -3l16 -9l18 4l4 4l11 2l5 -4v-2l-3 -5l-15 -4l-4 -10l6 -5v-5l-5 -3l3 -11l-2 -3l4 -17l-12 -7l-26 -37l-37 -19l-16 -7l-16 5l-13 4
l-16 -32l-6 -15l-2 -4l-2 -16l-25 -15l-7 -9l4 -14l-2 -11l8 -7l3 -32l3 -8l30 -27l18 -42l20 -7l6 -3l6 -11l5 -9l9 -11l16 -10l5 -6l17 -14l42 -19l12 -11l30 -14l4 -17l28 -4l24 -19l5 -7l-1 -13l-11 -16l-5 -5l-21 -1l-7 -2l-10 -1l-6 10l-13 9l-19 5l-9 13l-28 22
l-21 4l-12 14l-6 11l-5 9l-11 5l-33 16l-6 11h-3l-9 -2l-8 -1l-5 21l-3 5l-25 14l-26 3l-9 9l-11 17l-8 8l2 3l-8 7l-1 7l-17 -6l-6 34l-7 4l-17 35l-26 3l-13 12l3 5l13 9l-12 55l-7 6l-4 6l15 7l9 13l1 1l-4 12l20 3l-3 16l8 22l17 19l3 10l23 9l-13 14v3l-28 7l-2 10l6 4
l9 1l3 4l-17 13v3l30 28z" />
    <glyph glyph-name="A" unicode="A" horiz-adv-x="817" 
d="M486 902l-15 -57l-12 -35l-9 -58l-6 -9l-5 -34l-12 -38l-11 -52l-9 -47v-34l23 -6l81 -6l13 1l-1 71l-3 48l4 47v63l-5 93v79l-6 66zM523 1373l23 8l55 -3l35 -5l5 -6l21 -3l46 -23l64 -76l23 -36v-8l-3 -23l8 -24l3 -81l-3 -29v-29v-5l-5 -41l-3 -58l-3 -52l-12 -86
l-3 -27l-14 -60l-6 -15l-3 -37l-8 -38v-26l-6 -6v-20l-3 -9l6 -8l-18 -32v-9l18 -20v-18h8l-8 -37l-6 -15l6 -26l-9 -8l3 -18v-34l-12 -6l-6 -3l6 -35l6 -9l-3 -26l6 -20l-6 -6l3 -17l-3 -26l20 -119l6 -20l-3 -12l12 -37l-3 -29l3 -58l6 -15l-6 -8l3 -15l6 -29l8 -11
l-3 -20l9 -47l9 -34v-21l11 -43l-3 -35l-33 57l-30 62v6l-12 26l-35 69l-11 35l-26 66l-3 26l-17 38l-15 32l-14 66l-15 35l-11 64l-9 23l-15 58l-23 -9l-49 -6l-6 -5l-63 -3h-50l-23 -6l-17 -41l3 -31l-12 -41l-8 -32l-3 -17l-6 -9l-15 -43l-2 -20l-6 -12l-3 -29l-9 -32
l-17 -35l-3 -17l-17 -35l-12 -26l-15 -17l-20 -6l-14 -11l-29 -6h-17l-21 11l-20 26l-6 38l-3 9v63l6 41l20 118l12 47l23 110l12 43l8 15v20l-26 43l-3 18l12 8l-6 12l6 23l3 17v3l32 9l23 12l14 43l6 23l35 107l11 44l6 3v11l41 110l14 35l23 69l18 58l32 98l5 12l6 17
l38 102l11 18l27 70l26 52z" />
    <glyph glyph-name="B" unicode="B" horiz-adv-x="1108" 
d="M870 1111l-55 3l-98 -20l-67 -26l-49 -23l-75 -52l-6 -9l-40 -12l-7 -52l3 -20l3 -20l6 -26l-6 -18l-1 -36l-6 -49l51 7l35 12l23 11l87 52l32 18l29 20l17 9l40 34l50 35l26 26l34 41l6 6l12 20l14 20l3 12l-3 14l-17 12zM642 1430l20 5l101 -3l61 -11l29 -9l23 -3
l87 -37l35 -21l34 -26l29 -32l12 -23l23 -55l6 -17v-14l-6 -18l9 -6l3 -37v-15l-5 -24l-24 -45l-12 -9v-20l-9 -23l-26 -9l-14 -29l-23 -40l-39 -34l-10 -18l-21 -12l-10 -13l-10 -19l-39 -42l-18 -20l-30 -19l-17 -17v-18l-29 -23l32 -6l81 -14l61 -20l31 -12l21 -11l8 -3
l26 -21l12 -5l17 -29l9 -18l26 -69v-15l-7 -13l-5 -27l-11 -41l-26 -46l-15 -9l-3 -8l-11 -18l-35 -52l-9 -5l-2 -15l-18 -9l-6 -11l-34 -29l-12 -18l-32 -11l-20 -26v-6h-20l-12 -11v-24l-26 -17l-35 -6l-5 -17l-38 -12l-38 -3l-14 -8l-9 -15l-11 -3l-18 -11l-6 -9l-17 -6
l-17 3l-6 -6l-17 -20l-15 -6l-8 3l-9 -6l-26 15l-18 -20l-17 -12l-17 3l-6 6l-22 3l-16 -12v-9h-6l-11 12l-14 -3l-6 -29l-21 3l-23 -17l-14 -3l-18 -12l-8 9v6l3 8l14 -5l3 14l3 12l12 2v6l17 3l9 3l-3 17l8 18l24 6l5 11l41 29l52 52l17 6l35 29l17 14l41 29l20 15l11 2
l12 18l32 41l17 8l18 18l23 14l9 9l34 35l29 14v12h12v8l23 27l20 8l18 17l37 38l29 29l9 14l-14 18l-56 11l-40 6l-15 -6h-46l-34 3h-44l-36 -3l-57 -11l-41 -13l-24 2l-24 -7l-47 -4l-20 -16l-17 -29l-12 -17l-11 -3l-6 -9l-17 -23l-6 -17l-6 -6l-12 -35l3 -20l-17 -52
l-9 -12l-11 -58l-3 -37v-32l-6 -9l-3 -78l-9 -14l-5 -21l-3 -29l-29 -34l-3 -12l-32 12l-26 5l-35 35l-11 49l-6 58v151l6 147v21l5 78l-3 43l6 58l-3 52l6 49l-3 9l6 29v26l-3 14l15 212l-3 8l-12 24l-23 26l-6 5l-8 38l-12 20l-6 23l18 24l5 23l-5 8l28 35l6 12l18 14
l31 46l32 24l50 43l14 3l43 29l18 8l20 6l12 9l23 17l63 21l35 8l15 3l26 3l14 9l38 6h29z" />
    <glyph glyph-name="C" unicode="C" horiz-adv-x="954" 
d="M879 1367l20 26h16l3 -7h35l16 -6l44 -32h35l13 -9l13 -20l3 -19l19 -28l22 -45v-48l-16 -35l-19 -22l-22 -16l-64 -16l-19 -9l-9 -10l-32 -32l-42 -51l-22 -32l-28 -25l-70 -76l-13 -13l-29 -38l-6 -3l-42 -61l-16 -19l-3 -10l-25 -25l-29 -45h-6l-32 -44l-25 -29
l-29 -51l-22 -31l-16 -32l-16 -29l-13 -54l-19 -48l-6 -73l3 -42l28 -50l48 -32l51 -19l70 -16l51 -3h67l44 3l7 -13l12 -3l-9 -10l16 -9l-3 -7h-4l4 -12h-10l-3 3l-3 -10l9 -3v-19l-9 3l-22 -16l-39 -6l-38 -10l-6 4l-38 -10l-48 -3l-67 -3l-121 19l-92 38l-74 51l-60 60
l-41 61l-26 63l-10 39v32l-6 41l6 86l16 29l-3 25l10 9l3 29l6 22l16 29l13 35l13 29l38 60l19 29l10 16l25 35l19 19l16 29l57 63l77 92l32 36l19 15l6 13l16 16l57 51l32 32l67 60l19 16l38 26l45 38l35 29l13 3l6 6z" />
    <glyph glyph-name="D" unicode="D" horiz-adv-x="972" 
d="M530 1021l-21 3h-65v-47l-15 -56l-6 -9l9 -27l-6 -86l3 -21l-6 -12l3 -52l-6 -73l-6 -9v-37l-6 -36l-10 -43l1 -42l-6 -33l-12 -46l-6 -9l-2 -26v-49l-8 -11l8 -22l-11 -21l6 -25l7 -22l43 24l30 28l18 12l46 33l45 34l40 30l33 33l16 22l21 21l21 18l18 21l34 55l15 24
l18 55l3 52l3 39l-9 85l-21 70l-22 52l-18 21l-39 43l-43 24l-42 12zM372 1301l-3 21h9l21 -18l37 -3h51l91 -12l31 -10l12 -3l52 -21l42 -18l12 -12l34 -18l30 -22l19 -15l9 -12h6l24 -31l6 -15l18 -9l6 -9l25 -45l24 -34l6 -33l15 -31l6 -39l13 -9l9 -43l3 -64l-9 -30
l9 -3l6 -21l-3 -19l-12 -12l-3 -24v-27l-13 -40l-9 -9l3 -24l-18 -25l-15 -33l-12 -49l-28 -57l-46 -54l-52 -55l-41 -31l-28 -37l-15 -6l-6 -12l-46 -24l-3 -9l-24 -22l-24 -15l-6 -3v-6h-22l-54 -42h-12l-16 -28l-30 3l-18 -15l-22 -3v-6l-12 -6l-9 3l-48 -15l3 18l-28 -6
v-15l-12 -6l-9 -16h-9l-15 -21l-16 3l3 -24l-12 -15l-12 -3l-30 9l-18 -18h-10l-9 9l-15 -6v-3l-6 -6l-27 -10l-6 6l-9 -9l-6 16l-3 21l9 6v15l27 27l36 43l-18 109v28l-3 36l3 27l-3 28l3 58l3 91l6 82l3 45l-3 37l9 6l6 27l-3 21l6 13v51l6 28l10 36l3 15v24h6l6 16l6 42
l6 43l18 45v31l12 45l13 31l-7 12v12l-21 21l-9 31v12l3 9l3 27l12 22l3 6l12 12l22 9l24 3l18 9l22 9l9 21l9 16h9z" />
    <glyph glyph-name="E" unicode="E" horiz-adv-x="1081" 
d="M461 1281l58 6l22 -6h8l22 -2h38l39 5l57 3h86l46 -8h53l104 -6l44 -5l171 -17l88 -8l46 -8h8l3 -14l-3 -17l-35 -8l-19 -3l-11 -5l-47 3l-14 -6l-38 3l-9 -6l-11 6l-5 -11l-8 -11v-14l-28 -8l-11 5l-8 -8h-3l-30 -8l-28 -22l-11 5l-5 -8l-11 3l-8 -8l-58 -9l-8 3
l-25 -11v-5l-38 -9l-22 -16l-20 -8l-13 -11l-39 -14l-36 -8l-16 -3l-8 -8l-44 -3l-31 -8l-38 -14l-41 -14l-6 -11l-14 -5l-38 -88l-17 -61l-16 -27l-3 -17l-5 -19l8 -3l66 11l107 3l107 -5l50 -6l16 -5l22 -3l11 -6l8 -2v-6l-13 -27l-42 -28l-22 -14l-10 3l-9 -14l-58 -13
l-68 -22l-39 -13l-115 -18l-30 -2l-36 -3l-19 -91l-6 -22l-14 -79l-8 -14v-91l3 -19v-22l8 -28l22 -13l33 -3h52l127 16l41 11l116 17l68 19l66 14l83 25l2 -12l-32 -41v-5l-31 -39l-52 -44l-36 -27l-14 -8l-5 -17l-19 -8l-36 -17l-11 -11h-11v-5l-19 -17l-14 -11l-8 3
l-17 -11l-11 -3v-5l-22 -6l-38 -16l-11 -6h-19l-6 -5l-85 -8l-50 2l-33 3l-110 28l-35 19l-36 22l-3 8l-19 19l-14 17l-11 27l-22 36l-11 30l-5 6l-11 63v14l-6 36l-2 68v28l8 22l-3 8v41l8 33l3 25l8 58l22 93l3 19l14 50l5 22v8l17 39l2 19l3 22l22 63l17 55l5 3l11 49
l-16 11l-33 28l-20 22l-8 13l25 12v5l14 8l-6 11l8 17v16l36 22h6l19 14l30 14l14 3l19 10l17 14l8 14l25 16z" />
    <glyph glyph-name="F" unicode="F" horiz-adv-x="888" 
d="M345 1257v8h6l20 -17l11 -38l18 -60v-47l3 -3l11 3l26 12l50 17l29 6l63 23l26 3l12 9l66 11l24 6l63 15l81 11l26 6l38 3l11 3h38l15 3l11 -3l20 3l35 3l12 -3h20l26 5l20 -14l23 3l12 -15h-12l-17 -5l10 -8l-1 -13l-15 -1l-12 2l-8 -9v-9l-3 -6v-17l6 -3l-9 -9l-9 6
l-8 -6l-15 6v-17h-5l-8 8l-16 3l-8 -14l-18 -12h-14l-43 -8l-27 -12l-11 3l-20 -9h-18l-6 -11l-37 -6h-20l-24 -18l-31 -8l-38 -15l-9 -8l-11 5l-9 -8l-40 -15l-35 -6l-18 -8l-31 -15l-21 -2l-31 -12h-12l-41 -20l-26 -3l-29 -12l-5 -46l-3 -73l-6 -40v-49l-9 -26v-38l21 3
l20 9l43 14h23l21 6l8 12h38l6 5l11 -3l15 15l8 -3l26 9h12l32 6l23 -3l15 5h37l32 -5l9 5l5 -5l9 -3v-6l-6 -6l-3 -11l-11 -6l-6 3l-6 -3l-3 -12l-17 -8l6 -18l-26 -20l-12 -17l-26 -6l-11 -9l-50 -17v-12l-31 -9l-9 -14l-26 3l-17 -9l-6 -11l-18 -12l-23 -6l-20 -14
l-33 -15l-48 -11l-35 -12l-9 -6l-2 -31l-6 -9l6 -9l-15 -55l-14 -17v-49l-6 -12l-12 3l-5 -3l2 -14l-5 -9l5 -15l-5 -8l-9 -73l-9 -17l3 -35l-9 -32l-2 -49l2 -46l-8 -17l3 -24v-31l-6 -29l-6 -61l-14 -20l-12 -3l-12 29l-11 23l-3 23l-14 29l-3 23l-9 26l-20 78l3 12
l-12 43l-3 26l-3 26l-6 41l6 6l-3 52l-3 40l9 23l-11 70l8 40l9 58l6 44l3 49l2 49l18 90v26l11 46v26l12 26l14 75l15 41l6 41l3 8l11 49l9 15l14 55l12 17l12 35l5 35l23 37z" />
    <glyph glyph-name="G" unicode="G" horiz-adv-x="1190" 
d="M851 -555v-35l-26 -58l-20 130l-15 50l-20 135l-6 76l-3 14l-6 119l3 12l6 107v40v35l-9 11l-8 -11l-9 3l-29 -12l-32 -6l-17 -17l-20 -6l-12 6l-35 -15l-43 -2l-32 -3l-49 3l-67 11l-58 20l-46 21l-26 14l-64 49l-26 26l-20 32l-17 26l-23 61l-21 58l-5 32l5 20v58
l12 40l35 79l26 57l20 29l26 47l9 8l52 78l14 21l12 14l23 29l9 20l46 55l32 38l32 43l43 50l6 11l14 9l58 61l32 31l35 26l46 35l20 6l29 12l46 23l35 11l49 6l12 -3l12 -14l14 -12l35 -43l40 -38l21 -10l26 -4l19 -47l-3 -45l-3 -53l-23 -40l-20 -23l-17 -6l-18 -26
l-17 -18l-6 -8l-46 -15l-46 -5l-29 -15l-30 -12l-26 -20l-4 -17l-19 -14l-43 -47l-69 -76l-87 -126l-43 -66l-18 -35l-8 -9l-6 -29l1 -71l22 -30l36 -24l38 -14l35 -5l19 10l46 12l46 20l61 38l58 43l11 17l9 35l18 55l14 29l12 29l5 29l3 9l15 8v29l26 15l20 14l15 20h20
l29 -11l20 3l29 -26l40 -15l19 -14l28 -44l22 -44l6 -67l-9 -52l-14 -26l-20 -57l-12 -50l-15 -34l-20 -52l-32 -73v-6l-14 -43l-20 -49l-15 -29l-14 -38l-4 -24l-11 -16l-2 -57l-9 -6v-12l-8 -40l-9 -23h-6l-6 -15l-26 -55l-13 -57l-4 -47l-9 -38l-3 -26l-5 -11v-29
l-21 -20v-27l-5 -5h-6z" />
    <glyph glyph-name="H" unicode="H" horiz-adv-x="1152" 
d="M950 1472l23 5l29 -8l32 8l46 -28l3 -12l6 -9l17 -63l3 -21l3 -147v-41v-61l-3 -29l-3 -49l-11 -60l-3 -32l-3 -41l-12 -69v-21l-8 -26l2 -3l29 -8l70 -15l23 -8l19 -8l24 -4l12 -6l-3 -14l-3 -6l-20 -3l-9 -8l-34 -18l-18 -17h-35l-40 -6l-23 -3l-12 -14l-14 -15v-25
l-15 -21l-9 -58l-23 -61l-2 -32l-2 -30l-3 -33v-24l-3 -25l-8 -41l-2 -38l6 -49l-9 -29l6 -23v-23v-35h3v-20l3 -12l-6 -17l3 -29l3 -14l-9 -6l-3 -20l6 -9v-12h-9l-2 -5l-21 -15l-8 3l-3 -15l-12 6l-9 -3v-8l-11 -3v-12h-6l-6 -11l-29 -6l-20 17l-20 29l-15 41l-3 20l-8 35
l-26 95l-15 116l-6 197l3 121l3 38l3 35l-32 -3l-23 -6h-65l-89 -22l-26 -9l-67 -8l-20 -6l-12 -78l-5 -18l-3 -32l-3 -17l-6 -11l-14 -38l-3 -26l3 -9l-12 -35l-6 -46l-6 -23l-17 -64l-17 -46l-11 -33l-8 -16l-5 -25l-8 -24v-52l-9 -15v-17l-9 -21v-5l-5 -26l-6 -9v-6h-3
l-6 -11l-17 -15l-23 -20l-12 32l-9 40l-5 23l-12 41v6l-3 20l-9 35l-11 86l-6 113v70l-3 23l3 35v110v49l9 147l17 191l20 125l23 69v29l27 116l17 49l9 35l14 40l12 44l11 29l12 11l6 23h11l6 6h12l8 6l35 3l46 -18v-5l18 -6l14 -32l26 -72v-18v-29v-49l3 -8l-6 -15l3 -26
v-46l-3 -20l3 -58l-12 -77l-11 -54l-3 -34l-6 -23l-8 -9v-38l-9 -29l6 -3l115 10l58 11l46 11h38l53 8l18 127l14 87v6l18 69l2 26l9 9l-3 6l23 113l44 144l3 9l14 72h9l6 15l11 3h9z" />
    <glyph glyph-name="I" unicode="I" horiz-adv-x="503" 
d="M449 1341l51 17l16 -4l36 -16l19 -30l14 -60l-14 -63l-11 -63l-22 -74l-32 -73l-33 -96l-55 -161l-35 -126l-28 -99l-16 -76l-17 -40l-3 -44l-16 -37l-4 -21l-4 -22l-12 -49l-7 -26l-22 -76l-3 -46l-5 -30l-3 -36l1 -13l-7 -34l-12 -20l-9 -59l-11 -47l-7 -17l-6 -5
l-19 17l-21 119l4 15l-9 19l-6 61l1 15l1 21v37l-6 13v125l3 37l1 54l8 70l3 11l6 90l15 55l16 87l4 21l6 44l10 30l11 52l8 41l15 56l3 8l15 72l3 31l6 15l12 20l12 31l2 23l18 30l14 25l-1 19l21 38l24 50l11 7l7 18l12 17l3 8l17 14l5 8z" />
    <glyph glyph-name="J" unicode="J" horiz-adv-x="1406" 
d="M1510 1461l35 2h36l41 -8l38 -3l46 -5l49 -14l17 -8l38 -8l19 -14l-23 -18l-9 -6v6l-15 -12l-11 -3h-12l-17 -14h-9l-23 -12h-9l-23 -14l-60 -44l-24 -12l-14 -12l-61 -26l-17 3l-21 -17h-20l-17 -15l-21 -14l-14 3l-23 -12l-9 3l-38 -17l-5 -17l-23 -12l-29 -12l-35 -11
l-32 -9l-20 -14l-75 -23l-58 -15l-18 -3l-29 -6l-26 -11l-3 -6l-3 -41l-2 -43v-49l-6 -35l-9 -26l-11 -127l-6 -32l-6 -49l-6 -15l-6 -32l-8 -20v-11l-20 -29l2 -15l-5 -5v-9l-12 -47v-2l-6 -21l-11 -34l3 -32l-24 -41l3 -11l-12 -33l-20 -37l6 -11l-8 -32l-5 -35l-1 -32
l-6 -6l-6 -14l6 -9l-9 -23l-8 -26l5 -9l-2 -20l-6 -52l-6 -21l-4 -24l-2 -53l-14 -52l-23 -29l-12 -26h-6l-23 -32l-3 -15l-20 -26l-52 -20h-47l-20 -9h-11l-6 -3l-20 6l-12 -3l-14 3l-21 -6l-29 9h-14l-23 3l-26 6l-49 14l-15 18l-43 11l-26 12l-64 46l-12 20l-11 12l-6 11
l-20 12l-3 20l-23 35l-3 12l-19 18l-7 24l-6 21l-6 6v15l-11 8l14 23l-9 6l-3 15l3 63l12 29l9 38l5 20v12l18 40l3 21l29 57h5v-40l-5 -9l-3 -20l11 -9l6 -23l-3 -6l-6 -23l6 -26l3 -29l-3 -11l23 -18l9 3l3 -9l9 -46v-6l-9 -29l12 -2l5 8l9 -3l43 -55h9l32 -14l14 -12
l38 -17l6 -9h23l29 -11l35 -18l31 -11l15 -9l41 4l40 2l20 17l23 9l35 6l26 -6l23 3l9 -6l11 3v55l-5 81l-3 20l-6 55l-3 29l-6 46v58l-5 73v78l-3 55v110l6 20v38l5 95l3 23v26l6 18v20l3 66l8 61l12 104l-55 -8h-32h-6l-147 -15l-67 -9l-23 -8h-6l-49 -9h-14l-61 -3l-12 6
l-14 26l-9 23h9v15l32 34l34 15l105 55l29 14l31 18l15 8l9 -2l26 8l8 6l15 -12l6 3l11 20l-9 12l35 9l9 -6l37 9l35 17l6 9v5l17 3l55 3l15 -3l6 6l-6 29l8 3l9 64l3 11l9 3l23 -8l-6 26h6l11 -12l9 3v9l3 31l23 -14l32 -41l6 -8h32l29 8l49 -5l8 -3l35 3l6 -6h12l23 6
l14 8l35 3v-6l-9 -5v-3l-8 -6l17 -6l46 9l9 6h35l26 5l14 9l29 3l15 3l5 6l21 8l-3 6l2 14l27 9l11 9h35l58 11l11 9z" />
    <glyph glyph-name="K" unicode="K" horiz-adv-x="1319" 
d="M192 -65l-9 6l-19 10l-6 22l-27 16l-5 19l-3 30l11 47l5 71l3 24l3 75l3 37v24l17 139l9 25l-3 12l3 29l32 159l14 44l6 49l29 98l14 26l3 46l26 64v50l16 40l-3 36l19 46l17 39l24 38l30 32l25 6l24 8l48 9l35 -3l18 3l36 -31l6 -29l3 -20v-61l-1 -50l-3 -26l-8 -37
l-3 -26l-12 -29l-3 -12l6 -6l-6 -37l-15 -38l-16 -55l87 58l61 35l46 19l52 33l91 52l8 9l131 95l49 35l58 37l17 12l58 41l32 8l11 15l12 -3l11 6l24 11l8 -6l20 3l81 26l30 11l30 -13l3 -28l-25 -30l-17 -24l-35 -23l-6 -8l-32 -38l-31 -64l-23 -26l-15 -20l-20 -17
l-44 -41l-26 -17l-46 -41l-32 -26l-43 -37l-41 -29l-40 -29l-44 -32l-32 -23l-34 -18l-44 -14l-20 -12l-32 -11l-11 -12l-18 3l-20 -17l-11 -6l-18 -15l-26 -11l-6 -9l-37 -11l-44 -35l-17 -9l-12 -6l-12 -29l25 -19l76 -47l6 -6l28 -11l61 -35l113 -64l15 -11l52 -29
l191 -136l60 -46l20 -22l16 -27l25 -8l38 -30l35 -36l25 -32l24 -33l1 -35l23 -24l9 -14h9l2 -12l9 -5l6 -12l-12 -9l-5 -11l-6 3l-9 -15l-23 6h-29l-17 20l-15 -9l-14 9l-3 9l3 23l-6 -3l-12 -26h-8l-76 38l-29 11l-17 9l-46 26l-87 46l-12 6l-52 29l-37 14l-226 113
l-49 26l-116 58l-14 12l-18 8l-82 61l-8 -44l-12 -45v-6l-18 -32l-11 -29l-3 -9l-15 -46l-20 -62l-22 -55l-19 -49l-33 -43l-26 -1h-11z" />
    <glyph glyph-name="L" unicode="L" horiz-adv-x="1101" 
d="M462 1442l8 2h12l32 -17l55 -69l14 -35l17 -58l18 -67l3 -5l3 -64l-12 -61l-3 -29l-17 -75l-18 -66l-5 -15l-9 -3l-9 -35l-9 -20l-5 -32l-20 -14l-3 -23l-18 -35l-14 -29l3 -11l-6 -18l-23 -26l-6 -35l-12 -20l-14 -35v-20l-15 -9l-8 -17l-18 -29h-5l-9 -14l3 -12l-6 -6
l3 -26l-18 -32l-5 -5l-6 -18l-15 -37l-8 -41l-3 -37l-9 -32l6 -35l14 -32l26 -11h24l17 -3h90l35 6l60 5h44l8 -11l38 -3l64 3l8 6h38l26 -3l23 11l20 3l243 -29l53 -11l63 -9l46 -6l-2 -9l-24 -14h-8l-6 -9l-23 -8h-29l-32 -12l-20 -17l-41 -12l-43 -14l-38 -21h-11l-23 -8
l-61 -15l-20 3l-21 -11l-20 2l-20 -11h-47l-34 -6l-113 -9l-139 -5l-52 2l-38 6l-49 6l-61 20l-55 26l-26 21l-3 11l-14 15l-9 29l-6 5l-20 52l-6 9l-3 20l-8 24v17l-3 38v8l3 23l-3 41l14 130l3 12l18 75l5 55l6 11l23 113l3 6l12 55l29 107l6 9l2 23l9 23l29 107l29 102
l9 11l5 26l35 78l12 32l17 55l6 6l11 40l3 6l6 26l23 -8l-3 26l3 3l15 -9l9 3v29z" />
    <glyph glyph-name="M" unicode="M" horiz-adv-x="1523" 
d="M1297 1482l26 14l26 6l43 -6l55 -37l41 -56l11 -17l6 -9l9 -26l14 -37l6 -49v-41l3 -58l-11 -84v-37l-6 -9l-3 -29l-6 -40l-20 -99l-20 -81l-13 -47l-19 -54l-6 -23v-32l-6 -32l-9 -20v-23l-8 -12l3 -23l-9 -23l6 -26l-9 -9l-3 -58l-11 -49v-20l2 -12l-8 -20l-3 -46
l-9 -53l-11 -43v-6l5 -11l-5 -9l2 -32l-5 -32l5 -72v-35l-5 -6l-6 -38l-12 -25l-5 -9l17 -8l-6 -26l6 -27v-14l-9 -12l-7 -24l4 -16l6 -20v-27v-8l-14 -18l8 -2v-6h-11l-7 -16l4 -48l-9 -14l2 -25l-15 -16l-6 26l-3 4l-14 59l-7 15v12l-9 49l-9 41l3 11l-5 20l-6 41l-6 9v11
l-10 71l-13 112l-20 222v21l-6 66v72l-9 32l3 47v55v40v41l-3 17v9l3 40l3 38v52l6 20v35l5 20l-2 35l2 52l3 40l-11 -8l-9 -26l-9 -23l-5 -12v-20l-6 -12l-9 -3l-14 -34l-6 -41l-9 -11h-11l-6 -21v-26l-12 -6v-8l-17 -49l-17 -58l-12 -12l-11 -38l-16 -46l-35 -101l-16 -41
l-41 -57l-42 -64l-30 -23l-29 -23l-9 5l-20 -8h-29l-46 5l-61 18l-32 20l-40 38l-23 29l-33 90l-16 144l-2 87l-15 -32l-11 -30l-6 -32l-5 -14l-8 -36l-5 -57l-17 -96l-7 -30l-14 -49l-21 -64v-15l-11 -31l-18 -41l-5 -12l-6 -37l-17 -46l3 -15l-6 -26v-11l-12 -18l-6 -40
l-8 -12v-32l-3 -34l-12 -18l3 -11l-6 -12l-14 -17l-12 -3l-6 -15l-8 -6h-23l-24 -8l-5 11l-12 -5l-20 14l-20 23l-21 29l-2 23l8 29v70l15 101v49l2 41l3 26l6 179l12 182l17 116l12 61l29 145l20 69l9 41l40 121l15 26v6l29 32l11 9l12 31l17 21l6 17l40 12l35 2l20 -5
l38 -6l52 -15l20 -11l32 -12l6 -8l49 -32l29 -41l23 -60l9 -38l9 -26v-136l-3 -101v-116v-21l5 -40l6 -49l20 32l9 5l43 99l18 43l11 15l12 29l20 43l81 171l21 34l29 70l26 52l11 20l9 23l14 29l26 47l24 50l40 65l14 24l9 20l18 23l11 20l15 21l26 17z" />
    <glyph glyph-name="N" unicode="N" horiz-adv-x="1365" 
d="M1329 1095l-5 -74l-9 -44l12 -17l5 -70l-5 -55v-31l-6 -26l9 -32l-11 -118l-2 -36l-9 -122l-2 -50l-12 -35l-3 -38l-9 -45l-14 -49l-3 -23l-21 -52l-14 -46l-14 -35l-12 -32v-6l-17 -14l-11 -58l-16 -33l-21 -27l-21 -21l-11 -17l-46 -15l-32 9l-33 16l-32 22l-36 41
l-49 52l-49 53l-23 26l-58 55l-70 89l-17 26l-17 15l-70 113l-43 63l-47 61l-20 -69l-11 -35l-3 -23l-23 -67l-23 -70l-23 -57l2 -12l-14 -23l-6 -40l-9 -52l-9 -50l-20 -43l-3 -26l-6 -6l-5 -29l-20 6l-18 -46l-11 -44l-15 -26l-35 -17h-8l-12 9h-20l-15 2l-11 18l-32 23
l-6 17l9 44l-3 32l3 95l6 55l3 43l14 145l3 41l6 34l14 84l18 139l49 272l8 26l9 35l20 93l21 60l11 26l15 18l2 14l15 9l17 9l32 5l70 -17l26 -26l3 -9l29 -31l20 -27l23 -63l24 -30l14 -49l36 -63l49 -70l24 -42l24 -30l20 -30l13 -22l22 -35l17 -34l3 -9l14 -35l18 -49
l20 -35l23 -26l39 -96l12 -17l20 -29l18 -38l4 43v32l11 42l6 48l8 23l3 32l10 49l31 159l11 106l13 66l14 54l16 118l11 59v36l6 38l8 50l16 71l11 43l17 49l32 85l26 52l19 42l20 37l22 38l22 53l20 3l16 -12l3 -22l-6 -35l-13 -64v-6l-6 -9l17 -11l-3 -28l3 -30l-3 -46
l3 -41l5 -62l2 -45l-3 -62z" />
    <glyph glyph-name="O" unicode="O" horiz-adv-x="1201" 
d="M740 883l-36 33l-42 -6l-31 -9l-36 -47l-39 -82l-54 -100l-18 -34l-12 -48l-16 -29l-19 -56l-8 -9l-30 -62l-34 -80l1 -76l15 -62l17 -20l32 -32l65 -23l114 -3l12 4l24 4l44 4l65 29l28 21l32 12l28 37l28 77l19 69l4 32l20 29l-8 12l3 81l-25 121l-21 64l-17 33l-40 44
l-37 56zM718 1213l12 6l29 -6l20 3l15 -11l14 -15l3 -11l15 -23l14 -6v-9l1 -34l6 -26l32 -29l29 -23l26 -29l9 1l17 -26l21 -26l17 -29l21 -17l6 -12l15 -28l-3 -9l11 -6l15 -32v-5l24 -20l6 -21l3 -37l8 -3l12 -23l6 -58l12 -43l6 -44l7 -28l23 -3l-3 -15l-3 -23v-23l3 -6
h6l-8 -37l-7 -50l-12 -52v-9l-6 -8v-18l-14 -23l-14 -49l-12 -12v-14l-8 -18l-23 -26l6 -11l-6 -9l-20 -12l-9 -12l-23 -8l-14 -21l-11 -20l-9 -9l-40 -24l-21 -5l-8 -9l-23 -18l-32 -6l-29 -9l-8 -9l-35 -17l-43 -6l-23 -9l-23 -6l-21 2l-26 -11l-81 7l-69 14l-79 32l-14 8
l-21 9l-75 40l-38 28l-56 52l-44 63l-32 60l-24 84l-9 46l2 99l6 49l22 90l37 81l11 12l3 15l29 46l22 35l69 96l23 32l83 105l23 26l8 9l23 15l18 26l23 12l17 20l20 9l23 23l26 12l17 12l75 21l6 6h23z" />
    <glyph glyph-name="P" unicode="P" horiz-adv-x="842" 
d="M639 993h-14l-32 -6l-38 -15l-14 -14l14 -84l-3 -69l-2 -18l-3 -29l-9 -40v-55l-9 -32l-6 -35l24 15l20 2l3 6l20 12l3 6l37 17l27 17l34 24l23 23l24 20l26 35l17 17l17 38l6 26l-8 46l-27 40l-52 35l-14 6zM463 1207l46 3h84l69 -18l41 -14l81 -41l61 -43l17 -18
l14 -17l29 -26l3 -17l12 -23l-6 -9l9 -9l8 -23v-32l6 -8l-6 -29l3 -18l-11 -8l-12 -35l-11 -26l-6 -3l-6 -9h-9l-23 -20v-14l-40 -44l-26 -14l-21 -15l-11 -9l-35 -23l-23 -17l-6 -6l-35 -17l-17 -6l-26 -17h-9l-5 -9l-15 -6l-20 -6l-26 -5l-3 -6l-20 6l-12 -35l-11 -72
l-9 -24l-23 -78l-9 -75l-12 -23l-2 -49l-6 -12l-3 -40l-15 -27l-3 -20l-11 -11l-14 -35l-9 -20l-23 -41h-12l-14 -20l-9 3v-6v-20l-3 -9l-40 -14l-15 -15l-12 -3l-20 21l-32 55l-29 86l-14 93l-6 98l3 136v21l9 98l8 84l9 35l23 141l6 18l9 37l20 87l3 9l-18 20l-26 32v6
l-11 6l-6 11l12 26l26 35l26 23l101 75l75 32z" />
    <glyph glyph-name="Q" unicode="Q" horiz-adv-x="1423" 
d="M696 1204l6 6l17 -3h20l23 -6l24 3l46 -32l20 -3l15 -11l23 -9l8 -18l15 -11l3 -12l-6 -5v-41l-12 -32l-29 -14l-46 -6l-17 -3l-29 -32l-15 -14l-60 -73l-15 -31l-35 -50l-46 -98l-43 -90l-41 -121l-20 -47l-20 -66l-9 -64l-3 -8l-3 -67l20 -55l12 -20l29 -23l41 -18
l72 -11l58 11l37 23l21 6l72 58l78 75l15 12l17 26l-57 60l-30 30l-26 37l-17 18l-12 23l-38 61l-34 72l-6 23l-23 61l-12 90l-6 11l21 14l23 15h26l38 -3l2 -12l6 -2h41l11 -6l9 -20l17 -38l26 -29l64 -90l26 -26l6 -11l9 -6l46 -55l11 -15l12 32l3 26l11 47l18 133v29v20
l3 9l-3 121l-12 55l-11 26l8 3l18 -26l8 -20l21 -20l8 -3l3 -47l15 6l3 -9l2 -40l15 3l6 -15v-40l6 -49v-15l8 -6l9 -11l-3 -6l6 -9l-3 -20l14 -11l3 -29l-6 -41l-11 -12l1 -15l10 -19l-14 -23l3 -21l-3 -5l21 -30l-7 -40v-14l-11 -29l-17 -23v-6l69 -87l55 -69l67 -76
l11 -17l6 -6l55 -72l35 -47l23 -28v-9l8 -20v-12l9 -6l-3 -11l-14 5l-6 -23l-20 -8l-15 -9l-34 14l-12 -8l-23 11l-47 15l-5 11l-15 -3l-63 41l-15 9l-78 58l-17 17l-29 20l-67 64h-6v-3l-8 6l-6 -9h-9l-8 -23l-12 -15l-43 -49l-24 -16l-11 -17l-12 -7l-37 -21l-18 -8
l-14 -10l-28 -14l-36 -14l-35 -11l-37 -6l-18 -12l-31 3l-6 -6l-26 3l-29 -11h-23l-58 2l-26 -2l-99 26l-37 17l-24 9l-17 11l-26 23l-43 35l-47 61l-46 81l-26 78l-12 38l-8 107v55l8 61l24 72l26 58l63 116l81 130l50 58l5 17l52 55l15 14l67 64l37 32l29 14l12 15l66 43
l6 9h20z" />
    <glyph glyph-name="R" unicode="R" horiz-adv-x="1228" 
d="M983 1076h-6l-52 -14l-23 -20l-26 -9l-44 -26l-23 -14l-14 -21l-41 -37v-12l-20 -9l-29 -37l-15 -18l-14 -37l-29 -35l-6 -11l-20 -41l-15 -17l-28 -67l83 35l64 37l20 15l84 78l44 46l37 52l12 9l9 17l20 32l9 29l14 35zM902 1273l40 6l58 -3l38 -14l37 -26l38 -26
l52 -67l17 -32l15 -52l6 -37l-6 -27l3 -5l-9 -44l-35 -49h-5l-15 -17l-12 -3h-17l-20 -23l-15 -21l-28 -17l-79 -66l-26 -18l-17 -23l-35 -26l-26 -23l-11 -6h-9l-35 -32l-26 -9l-55 -31l-11 -12h-21l-32 -20h-14v-9l55 -23l177 -64l110 -49l57 -26l55 -29l84 -52l93 -55
l17 -6l15 -11l-3 -6l-9 3l-40 3v-12l-21 3v-3l3 -14l-17 -12h-9l-11 -9l-9 6l-35 12l-20 -3l-35 9h-6l-78 26l-46 8l-191 64l-35 17l-17 6l-185 64l-52 11l-12 -26l-11 -46l-15 -49l-23 -81l-9 -18l-11 -26l3 -20l-9 -14l-6 -29l-12 -26l-20 -29l-11 -12v-9l-9 -17l-14 -9
l-15 -46l-9 -11l-3 -9l-14 -9l-12 -23h-29l-8 -17l-26 6l-3 -9h-15l-20 -9l-23 6l-52 49l-9 3l-14 26l-9 6l3 35l-9 14l3 17l12 79v54l3 21l23 107l55 185l29 136l43 153l23 61l23 44v11l15 17l-3 15l14 55l21 49v9l14 23l20 20l26 3l21 6l26 -3l29 -17l29 -12h23l9 6l20 12
l87 78l46 31l29 24l63 37l76 32z" />
    <glyph glyph-name="S" unicode="S" horiz-adv-x="1018" 
d="M1100 1138l-11 -27l-19 -24l-27 -17l-33 -16l-30 -17l-30 -19l-46 -27l-44 -16l-38 -25l-28 -19l-32 -8l-17 -14l-24 -11l-22 -5l-19 -11l-14 -6l-15 -13l-29 -15l-6 -11l-34 -23l-41 -35l-34 -26l-12 -12l-29 -23l-17 -23l-26 -10l-30 -27l-24 -50l-12 -47l3 -43l9 -23
l66 -49l15 -9l52 -29l29 -20l26 -15l20 -8l41 -26l8 -12l52 -26l32 -26l49 -32l49 -52l19 -16l22 -22l27 -25l22 -30l25 -38l11 -38l5 -36l-4 -28l-1 -22l-3 -18l-18 -39l-50 -43l-52 -22l-22 -11l-25 -5l-41 -11l-57 -8h-63l-79 5l-41 3l-36 5h-21l-54 11h-24l-11 6h-12
l-3 3l-8 -3l-9 9l-6 -3v-9l-3 -6l-8 6h-9l-9 15l-14 8l-6 -5l-15 2v-2l-11 -3l-3 3l-12 -3l-11 8h-6l-9 6l-5 -3v3l2 3l24 6l40 6h29l23 5l35 3l41 12l5 3l64 6l23 2l29 3h46l12 6l46 3h12l14 9l32 2h20l9 6l23 3h15l14 3l12 -3l17 6l20 20h21l14 9l19 15l5 19l2 18l-7 12
l2 18l-8 12l-7 13l-11 9l-8 11l-19 14l-21 17l-31 25l-32 11l-43 29l-29 14l-20 9l-41 26l-20 6l-15 14h-11l-35 12l-11 8l-50 13l-60 19l-47 9l-8 7l-36 11l-31 17l-35 34l-29 21l-40 40l-23 35l-9 29l-9 32v84l15 17l11 20v23l21 41l20 23l20 29l52 52l32 29l46 32l38 35
l35 28l89 61l41 26l49 38l67 40l17 6l20 20l67 44l69 40l21 26l11 3l17 18l21 8l20 18h15l20 8h26l42 -6l58 -34l14 -40l11 -32l6 -20z" />
    <glyph glyph-name="T" unicode="T" horiz-adv-x="1180" 
d="M590 969l8 15l-41 -1l-13 -4l-54 -6l-57 3l-58 4l-86 2l-81 30h-13l-46 9l-19 27v13l21 17l3 6l31 11l22 -8l22 10l12 20l75 16l35 5l17 9l22 10h6l19 4l26 -16l36 10l44 -3l63 3l103 11l113 6l110 -5l80 12l103 -11l93 -2l121 -28l51 -36l-19 -11l-34 -6l-3 -7l-24 -7
l-26 -5l-7 -19l-29 1l-18 -13l-49 4l-6 -7l-2 -13h-6l-11 9l-15 -1h-7l-3 -1l-2 -9l-22 16l-30 -13l-9 -10l-50 -6l-23 -2l-88 -7l-25 -11l-6 -3l-12 -34l-33 -95l-54 -161l-36 -126l-27 -100l-17 -75l-16 -41l-3 -43l-17 -37l-4 -22l-4 -21l-7 -19l-5 -30l-7 -27l-8 -32
l-14 -43l-3 -46l-5 -30l-3 -36l2 -14l-8 -33l-12 -20l-9 -60l-11 -46l-8 -4l2 -14l-6 -4l-20 17l-20 118l4 16l-9 19l-7 60l1 16l2 21v36l-7 14l1 125l2 37l-2 10l8 33l-4 11l7 70l3 10l7 91l14 54l13 78l3 10l5 20l5 44l10 31l12 51l8 42l14 56l3 8l16 72z" />
    <glyph glyph-name="U" unicode="U" horiz-adv-x="1066" 
d="M1094 1363l9 17h9l8 -17v-64l-8 -29l3 -20v-15l-6 -46l-12 -20l3 -14l-11 -27l5 -34v-18l-11 -40l3 -29l-9 -46l-12 -50v-20l-5 -11l-6 -44l-12 -20v-23l-16 -26l-5 -30l7 -31l-3 -43l-6 -12l-6 -38v-23l-11 -46h-6l-9 -20l-11 -58v-26l3 -12l-2 -40l-4 -38l-12 -38
l-11 -66l-5 -36l-10 -28l-3 -17l-14 -15l-15 3l-5 -37l-12 -21l-23 -26l-20 -23l-16 -27l-25 -25l-14 -3l-21 -20l-11 -15l-41 -14h-20l-38 -17h-49l-23 -3l-49 6l-70 20l-72 37l-72 52l-61 70l-38 46l-37 72l-32 102l-12 32l-5 66v46l2 21v69l15 75l9 15l2 23l41 125l20 34
l6 23l23 47l3 14l41 64l14 17l38 64l20 17l38 35l28 17h24l14 9l3 9h26l43 -12l29 -29l16 -41v-35l-11 -22l-7 -18v-20l-20 -67l-17 -66l-44 -107l-34 -130l-29 -122l-12 -124l9 -73l8 -34l40 -63l58 -36l29 -17l11 -3h27l17 12l38 31l31 56l44 89l55 139v9l20 60l43 128
l55 159l26 81l9 17l9 12v26l29 72l20 58l3 15l55 141l14 41l6 9l12 63l-3 12z" />
    <glyph glyph-name="V" unicode="V" horiz-adv-x="1023" 
d="M1114 1566l4 12l12 -1l2 -9l-9 -8l-5 -23l-14 -34l-9 -42l-11 -44l-8 -49l-8 -36l-8 -24l-11 -25l-8 -30l-17 -31l-13 -20l-6 -49l-14 -25l-8 -37l-1 -23l-11 -25l-5 -23v-3l-1 -26v-38l2 -12l-5 -28l-4 -45v-48l-11 -43v-37l-4 -15l-11 -36l-7 -47l-13 -55l-8 -33
l-11 -33l-11 -61l-5 -28l-12 -49l-27 -83l-16 -46l-15 -38l-11 -28l-33 -53l-26 -61l-24 -44l-37 -57l-22 -19l-31 -30l-26 -7l-22 -10l-11 1l-4 -11l-23 -8l-29 11l-36 20l-37 14l-46 41l-12 25l-54 148l-17 59l-7 21l-44 160l-65 271l-27 153l-22 135l-16 106l-7 23
l-21 36l3 9l-4 12l3 6l12 7l12 5l37 -5l53 -5l47 -22l46 -30l63 -125l9 -38l27 -80l21 -69l20 -85l5 -15l-1 -6l14 -53l20 -86l2 -23l5 -38l4 -29l7 -21l25 -110l44 88l33 81l36 93l9 19l24 42l11 40l8 28l10 20l1 9l10 19l16 72l19 57l15 56l37 127l16 52l14 33l11 24l8 31
l35 53l21 45l16 19l26 47l4 12l36 55l9 8l9 11l44 49l41 41l12 17z" />
    <glyph glyph-name="W" unicode="W" horiz-adv-x="1300" 
d="M1451 1404l6 17l7 -6l-3 -11h-7l3 -10l-10 -13l4 -13l-17 -20l-3 -21l-10 -42l-7 -56l-3 -44l-10 -13l-13 -54l-14 -46l-20 -37l-8 -58l-25 -92l-7 -26l-4 -26l-8 -28l-8 -30l-14 -24l-5 -19l-7 -23l-4 -20l-10 -50l-20 -53l4 -10l-14 -57l-3 -26l-23 -30l-17 -37l-7 -36
l-23 -57l-10 -40l-22 -64l-16 -49l-32 -60l-6 -33l-10 -24l-14 -6v-14l-6 -10l-10 -30l-20 -20l6 -9l-10 -20l-10 3l-6 -3v-7l-30 -10h-20l-7 6l-30 11l-16 23l-10 26l-7 30l-10 20l-40 117l-23 106l-24 107l-6 63l-10 60l-17 223v113l-6 186l-11 34l-23 -37h-10l-10 -30
l-16 -20l-10 -20l-20 -56l-10 -27l-7 -27l-7 -26l-10 -24l-10 -50v-13l-29 -70v-36l-4 -14l-10 -6l3 -50l-10 -20l-6 -57l-7 -96l-10 -47l-3 -30v-13l6 -10l-9 -20l9 -33l4 -57l7 -23l-4 -47l-10 -26v-14l7 -10l-4 -26l-6 -14l-3 -13h-24l-26 -16l-19 -25l-41 -5l-14 6
l-23 14l-47 26l-6 40l-57 123l-60 177l-23 86l-7 43v37l-13 40l-3 50v20l-12 42l-5 48v46l-3 47v20l7 43v27v10v63v63l3 17v20l7 23l3 37l13 53l17 23l20 3h16l24 -3l10 -6l3 -7l10 -3l17 -7l3 -23l17 -87l9 -43l7 -24v-26l17 -50l10 -50l16 -69l30 -131l25 -175l11 101
l21 71l27 70l16 47l17 33l7 30l16 46l17 30l20 37l26 60l14 26l30 37v7l23 26l13 20l37 10l57 4h13l16 -4l34 -10l13 -33l13 -23l7 -20l13 -40l4 -33l10 -137v-73l3 -27l10 -70l3 -70l7 -133v-60l3 -10l-7 -13l11 -17l4 -51l-1 -85l13 -7l-3 -26l3 -24l6 -41l16 32l15 49
l40 120l20 63l6 27l40 133l20 57l17 30l7 6l9 54l24 53l3 26v4l12 28l18 48l7 27l10 7l53 119l20 44l10 26l27 54l-4 33l30 53l30 57h7l6 26l14 20v7l10 13l36 54l14 -4v-7z" />
    <glyph glyph-name="X" unicode="X" horiz-adv-x="1070" 
d="M273 1357l-6 15h6l46 -35l52 -67l73 -110l58 -104l49 -72l89 124l15 23l26 35l81 93l26 20l40 35l6 11l26 12l41 6l11 -3h29l15 -9l20 -26l26 -38l17 -37v-52l-5 -9l-12 -58l-26 -67l-26 -40l-3 -12l-17 -23l-52 -89l-35 -58l-15 -12l-5 -17l-58 -93l3 -35l75 -124
l49 -84l55 -93l6 -5l35 -59l71 -101l49 -79l46 -62l9 -9l3 -23l-3 -6l-20 -8h-15l-9 -15l-14 -11l-32 30l-60 60l-211 213l-104 102l-43 43l-41 14h-11l-120 -170l-54 -73l-40 -55l-41 -63l-35 -35l-14 -26l-15 -23l-11 -29l-9 -6l-6 -17l-43 -70l-20 -3l-9 -5h-20l-18 -12
l-11 -3l-6 -9l-46 -5l-3 5l6 9l11 98l38 148l11 41l9 34l29 78l15 41l17 35l9 26l81 185l8 11l12 32l90 168l-3 15l-55 84l-35 63l-17 32l-52 119l-27 72l-23 101l-3 58v29l15 26l3 6l20 6l26 -15z" />
    <glyph glyph-name="Y" unicode="Y" horiz-adv-x="1020" 
d="M1126 1499l27 22l20 16l32 19l6 -22l-8 -24l-20 -39l-10 -33l-41 -78l-14 -35l-58 -107l-23 -46l-23 -41l-18 -34l-8 -21l-38 -63l-14 -23l-21 -35l-23 -43l-9 -9l-14 -35l-15 -23l-14 -29l-23 -35l-9 -29l-35 -72l-14 -20l-17 -44v-8l-9 -9l-12 -26l-17 -29l-6 -17
l3 -15l-6 -87l-3 -110l-5 -20v-168l3 -23v-61l-3 -43v-23l-6 -15l-1 -30l-5 -36l-3 -9l-6 -29l3 -17l-8 -20l-24 -21l-90 -10l-65 19l-38 65l-19 80l-17 81l-11 93l-5 126l8 82l3 98l8 90v68l-71 77l-68 79l-74 106l-55 74l-30 68l-13 52l-11 64l11 37l31 32l15 14l23 -11
l11 -12l14 16l59 -22l37 -32l99 -104l49 -63l101 -139l36 -64l27 39l16 46l17 30l22 33l18 37l9 6l14 29l78 119l44 55l46 66l93 122l34 37l27 28l27 25l41 41z" />
    <glyph glyph-name="Z" unicode="Z" horiz-adv-x="1624" 
d="M1024 1299l84 12l87 -3l29 -3l46 -17l20 -18l18 -20l11 -35l-3 -37v-33l-8 -42l-38 -67l-41 -67l-31 -43l-18 -29l-14 -20l-49 -55l-21 -32l-8 -6l-47 -61l-53 -57l-49 -49l-46 -49l-60 -52l-164 -153l142 85l145 65l95 47l57 24l66 30l84 31l41 9l90 32l29 9l32 1l41 11
l54 14l33 5l46 6h52l66 -3h41l38 -8l35 -8l33 -17l8 -27l-24 -17l-30 -8l-41 -11l-71 -35l-47 -25l-44 -20l-55 -29l-34 -15l-21 -8l-26 -6l-55 -35l-46 -26l-17 -3l-47 -26l-26 -4l-40 -19l-6 -15l-17 -5l-24 -10l-30 -16l-28 -8l-66 -36l-59 -35l-86 -49l-14 -14l-46 -32
l-29 -12l-52 -29l-47 -20l-34 -26l-12 -8l-67 -32l-43 -23l-49 -24l-69 -25l-35 -14h-8l-21 -12l-38 -8l-30 -3l-35 3l-35 12l-67 14l-66 44l-26 20l-29 23l-31 40l19 41l6 15l6 5l29 44l40 40l48 51l21 20l43 38l46 43l47 43l58 58l133 142l17 12l26 29l55 58l17 20l61 55
l26 26l20 23l38 38l29 34l32 35l32 32l17 29l-35 -12l-11 -8l-87 -38l-38 -15l-52 -23l-32 -11l-23 -15l-23 -6l-75 -34l-41 -18l-75 -23l-20 -8l-35 -6l-35 -12l-52 -3l-31 3l-35 15l-26 34l-15 41l-11 29l5 17h6l-3 20l22 29l25 26l28 15l111 61l49 26l23 8l32 24l63 29
l96 40l29 9l55 23l11 -3l15 9l81 26l92 23z" />
    <glyph glyph-name="bracketleft" unicode="[" horiz-adv-x="860" 
d="M552 1382l12 7h26l11 -10l20 -4l84 18l64 -4l52 -24l78 -57v-20l-14 -11l11 -14v-3l-5 -7v-21l6 -33l-10 -26l-22 -17l-17 -11l-26 -14l-29 -10l-43 -11l-99 -3l-21 -53l-23 -43l-20 -60l-12 -38l-26 -91l-26 -84l-40 -119l-9 -7l-3 -32l-26 -52l-3 -14l-14 -49l-12 -42
l-20 -39l-47 -164l-14 -84l-3 -74l15 -31l17 -8l84 4l113 7l66 -3l99 -29l8 -14l-8 -13v-8l-15 -3l-3 -11l-8 -7l-3 -14l-32 -31l-18 -42v-14l-104 -39l-87 -3l-95 17l-55 21l-52 29l-29 27l-23 42l-12 49l-6 81l15 95l69 304l76 319l66 245l15 49l5 17l-5 15l-21 3l-11 7
l-6 21l-9 14l6 24l12 28l5 25l6 14l15 14h6l17 18l66 35z" />
    <glyph glyph-name="backslash" unicode="\" horiz-adv-x="837" 
d="M237 1418h28l25 -18l39 -31l42 -56l82 -149l80 -160l93 -239l67 -212l52 -198l26 -153l17 -177l-1 -125v-59l-9 -35l-23 -10l-18 -4l-22 35h-6l-10 24l-10 59l-17 42l-29 135l-9 28l-18 14l-14 59l-8 18l-12 52l-9 28l-26 86l-17 21l-3 42l-9 31l-9 7l-20 66h-7l-26 87
l-95 253l-40 87l-33 70l-47 111l-37 100l-20 66l4 25l1 24l8 24z" />
    <glyph glyph-name="bracketright" unicode="]" horiz-adv-x="860" 
d="M465 1365l90 -5h101l95 -8l43 -23l41 -46l28 -73l21 -62l8 -46l-2 -42v-27v-24l-12 -19v-27l-9 -69l-11 -35v-31l-12 -42l-14 -8l3 -31l-3 -19l-9 -27l-6 -11l-6 -23l-16 -53l-30 -101l-35 -116l-34 -127l-6 -31l-3 -11l-14 -24v-15l-18 -58l-6 -27l9 -15l-9 -12v-7
l-8 -12l8 -27l-14 -31l3 -15l-6 -11l3 -16l-9 -15v-8l-8 -23h-6l-6 -16l-9 -11l-29 -35l-11 -19l-32 -8l-14 -8l-18 8l-9 -11l-23 -20l-32 -7l-63 -4l-104 11l-64 29l-37 11l-9 8l-3 8l-32 27l-26 11l-17 58v31l8 15v35l15 19l-6 19l61 12l56 -10l98 -21h69l52 -8l19 -3
l21 2l26 162l55 269l81 362l55 262l-53 5h-68l-93 11l-51 10l-27 15l-11 8l-32 39h-12l-5 11l-15 43l26 73l15 16l27 19l48 12z" />
    <glyph glyph-name="asciicircum" unicode="^" 
d="M82 1351v-1337h655v1337h-655zM751 0h-683v1365h683v-1365z" />
    <glyph glyph-name="underscore" unicode="_" horiz-adv-x="1024" 
d="M0 -464v191h1024v-191h-1024z" />
    <glyph glyph-name="grave" unicode="`" horiz-adv-x="687" 
d="M199 1766l17 8l13 -2l15 2l3 -4h12l7 -9l32 -30l68 -74l32 -37l98 -108l54 -50l-2 -20l-6 -4l-9 4l-7 -4l-2 -2l-2 2h-2l-35 -7l-38 8l-38 5l-44 11l-33 19l-52 37l-55 46l-39 43l-26 39l-23 67h4l2 24l4 11z" />
    <glyph glyph-name="a" unicode="a" horiz-adv-x="884" 
d="M695 566l-16 3l-64 -23l-91 -55l-114 -84l-73 -71l-56 -64l-34 -75l-4 -28l24 -13l100 81l116 103l137 135zM602 666l63 15h26l32 -37l4 -13l-18 -46l44 39h6l27 3l39 -11l10 -10l13 -20l6 -10l3 -50l-11 -26l6 -33l-48 -121l-38 -99v-9l-24 -43l-18 -76l-4 -29l-10 -3
v-33l-10 -23l3 -20l-8 -26l-3 -20l10 -10l5 -50l13 -20l6 -16l20 -17l23 -7l16 -4v-6l-26 -6l-10 -10h-10l-23 -16l-4 -10h-10l-36 4l-23 11l-49 50l-16 36l-15 37v13l-9 43l-12 86l8 96l11 69h-6v-7l-47 -55l-47 -45l-21 -33l-20 -19l-7 -7l-16 -16l-37 -29l-64 -39
l-69 -25l-33 4l-63 21l-49 24l-19 30l-13 27l-2 46l7 52l15 66l41 75l10 10l37 46l97 87l147 103l123 74z" />
    <glyph glyph-name="b" unicode="b" horiz-adv-x="746" 
d="M520 434l-63 7l-72 -10l-50 -23l-13 -10l-13 -16l-7 -36l-3 -10l-10 -7l-3 -26l3 -7l-6 -23l-10 -3v-14l-14 -29l-3 -23l-10 -33v-13l-10 -33l-10 -40l-9 -43v-16l-7 -27l-13 -10v-26l122 89l145 115l56 63l20 26l29 60l7 40l-3 29l-27 30zM487 1207l17 6h19l17 -3
l26 -26l17 -30l-20 -79l-43 -116l-16 -39l-30 -106l-43 -112v-13l-26 -56v-14l-17 -33l56 4l96 -7l69 -23l43 -40l33 -39l3 -7l-3 -10l10 -16l3 -63l-3 -23l3 -10l-10 -49l-13 -20v-7l-26 -39l-14 3l-39 -56l-13 -17l-20 -19l-23 -27l-26 -23l-43 -33l-66 -53l-23 -16
l-30 -20h-10l-10 -10l-20 -6v-7l-16 -7l-37 -16l-23 -17l-26 -6l-26 -20l-10 -56l-30 -20l-13 -3l-20 -7v-13l-7 -10h-26l-7 7l-6 26v27l-4 13l7 56l7 89l6 109l33 201l-30 40v52l17 33l10 7l26 30l14 9l39 136l83 217l76 165l75 129z" />
    <glyph glyph-name="c" unicode="c" horiz-adv-x="760" 
d="M476 690h10h56l27 -17l10 -9l10 -20v-3l10 -23l3 -4v-19l-20 -33l-43 -24l-7 4l-19 -7l-40 -30l-59 -69l-30 -39l-30 -40l-36 -59l-53 -73l-16 -33v-26l53 -20l42 -7h113l138 17l158 46l7 3v-3l-20 -20l-23 -26l-10 -10l-6 -10l-43 -33l-13 -3l-14 -17l-13 -7l-3 -6
l-69 -30v-3l-23 -17l-20 4l-17 -17h-13l-3 -6l-89 -30l-4 3l-42 -10l-7 -6l-13 -10l-53 7l-76 13l-13 6l-53 37l-49 65l-4 11l-19 49l-7 59l13 30l3 23h7l20 43l33 53l62 86l136 148l62 53l50 33z" />
    <glyph glyph-name="d" unicode="d" horiz-adv-x="792" 
d="M514 525l-4 3l-43 -6l-59 -43l-43 -40l-20 -26l-49 -102l-10 -30v-60l10 -39l6 -13h17l23 13l33 46l26 40l60 122zM771 1333l26 10l30 -10l10 7l46 -17l13 7l33 -23l13 -23l-6 -56l-14 -40l-3 -36l-6 -27l-37 -115l-16 -56l-40 -106l-13 -36l-10 -26l-13 -24l3 -13
l-10 -13l-19 -20v-29l-20 -40l-3 -23l-20 -17l3 -19v-7l-17 -49l-13 -20l-13 -66v-13l-10 -20l7 -17l-10 -13l-4 -56l-3 -7v-33v-23l-3 -72v-37l6 -49l7 -26l7 -7l10 -46l16 -43h7l10 -27l3 -23l23 -23l7 -3l19 -3l20 3l27 7l3 -14l-7 -10v-16l-36 -33l-33 -20h-26h-7
l-23 20l-79 132l-43 122l-10 23l-10 -6v-7l-10 -13l-16 -23l-30 -30l-16 -17l-40 -23l-76 -23l-59 -9l-37 3l-46 19l-46 27l-40 33l-29 46l-30 73l-7 36l4 56l23 86l43 79l53 69l32 33l83 89l109 79l29 11h50l73 -24l55 174l70 219l46 115l10 37l-3 39l10 33h10l9 23z" />
    <glyph glyph-name="e" unicode="e" horiz-adv-x="829" 
d="M617 551h-7l-45 -8l-63 -26l-79 -39l-80 -64l-40 -40l-55 -68l40 1l72 26l68 35l54 35l43 40l39 38zM577 652l63 20l63 -7l16 -16l7 -23l-7 -7l10 -30l-4 -41l-13 -26l-3 -12l-3 -10l-27 -36l-3 -13l-13 -17l-23 -20l-14 -11l-32 -32l-40 -39l-36 -30l-3 -10l-20 -10h-7
l-20 -16l-19 -10l-56 -40l-27 -10l-6 -9l-86 -33l-40 -4l-10 -29l4 -10l10 -17l46 -26l72 -20l79 -10l7 -7l132 -6l99 6l89 14l46 10h7v-7l-50 -30l-46 -23l-3 -6l-20 -7l-26 -3l-7 -10l-43 -17h-16l-7 -10l-13 -3l-17 3l-3 -3h-20l-10 -10l-42 -6l-27 -4l-39 -6l-24 3
l-3 -3h-36l-10 -7l-13 3h-20l-7 4h-26l-6 6h-14l-23 7l-6 3v4l-4 3h-23l-7 3l-13 -3l-13 10l-26 19l-30 30l-26 36l-27 60l-3 23l3 10l-9 36v7l-5 9l5 14v26l3 30l39 56l46 59l34 30l29 33l23 17l122 89l89 56z" />
    <glyph glyph-name="f" unicode="f" horiz-adv-x="900" 
d="M841 1167l20 20h7l6 -13l17 -10l3 -7l10 -39l6 -7l-6 -23l-13 -23l-53 -40l-36 -52l-40 -40l-26 -49l-17 -10l-16 -36l-27 -27v-16l-19 -20l-27 -23l20 -10l-7 -10h-16l-10 -7l-18 -40l-33 -46l-25 -36l-7 -10l24 -6l56 -3h184l123 -7l102 -20v-6l-7 -4v-16l-13 -10
l-36 -13v-7l-37 -10l-29 -6l-20 -10l-3 -10l-53 -7l-32 -13l-41 -10l-39 -10l-27 -10l-43 -23l-49 -23l-33 -20l-17 4l-13 -14l-20 -9h-6l-7 6l-36 -10l-50 -10v-6l-3 -14v-49l-7 -16l-3 -30l-10 -20l-10 -56l-3 -36v-27l-6 -10l6 -10l-6 -6l-6 -134l-8 -77l-2 -116l-1 -26
l-1 -32v-30l-13 -33l-23 -3l-10 -14l3 -6l-12 -24l-14 1l-7 3l-13 -23l-13 -7l-20 10v4l3 3l-9 30l3 3l-3 13l-4 30l-6 10l6 9l-10 30v71l-4 145l4 55l1 62v42v34l-3 23l7 20l-4 13l4 49v36l3 30l6 20l-6 20l3 19l10 14l-7 13l7 16l-60 7l-82 16l-10 7l-36 10l-36 40l-7 23
l7 13l6 3v20l13 13l60 23l56 13h10l125 20l10 7l-3 6l13 40l13 26l33 73l66 106l26 36l4 16l6 3l4 10l26 30l23 46l13 4l53 59l43 50l33 23l59 52l57 30l23 13l36 10l3 -3l17 -10z" />
    <glyph glyph-name="g" unicode="g" horiz-adv-x="690" 
d="M508 580l20 39l-36 -16l-79 -56l-7 -23l-36 -40l-16 -33l-9 -29l9 -12l21 5l26 7l17 16l31 32l37 54zM597 712l20 13l46 -3l17 -14l-3 -16l13 -30l-13 -49l-7 -23l3 -4l-16 -39l3 -33l-20 -76l-23 -135l-10 -20v-23l-13 -46l-10 -43l-6 -47l-10 -19l-7 -40l-3 -3l-13 -4
l-4 -23l-13 -33v-19l-16 -70l-4 -33l-26 -20l3 -16l-6 -3v-3l-10 -20l-17 -17l-10 -3l-13 -7l-19 -23l-17 -13l-23 -7l-13 -6l-30 -3l-43 -4l-92 30l-46 30l-37 32l-29 40l-33 53l-20 49l-13 93l6 62l10 27v33l7 3l6 -10l10 -3l10 -13l3 6h4l10 -39v-7l32 -52l7 -4l7 -20h6
l14 -23h13l23 -49l23 -23l36 -27l30 -16l23 -4l49 -19l30 3l9 102l6 44l4 60l12 74l5 81l10 78l-3 3l-66 -26l-43 3l-59 10l-10 3l-20 17l-20 29l-3 23v53l13 50l47 62l39 53l30 27l9 6l50 40l23 13l13 3l20 7l37 16l46 -6l26 -14l10 -13l3 -9z" />
    <glyph glyph-name="h" unicode="h" horiz-adv-x="734" 
d="M466 1201l30 17l46 -3l13 -27l7 -23l-10 -66v-10l-7 -26l-43 -99l-49 -135l-7 -10l-6 -30l-14 -20v-6l-13 -30l4 -3l72 29l43 10h33l43 -10l36 -13l27 -10l33 -43l23 -26l5 -31l2 -38l-5 -27l-6 -30l-19 -33l-16 -58l-57 -195l-13 -27l-19 -56l-14 -20v-9l-13 -34l-6 -16
v-7l-10 -36l-13 -20l-13 -16l-9 -25l-10 -11l-16 -5l-17 -7l-6 7l-4 36l4 93l3 39l77 354l6 89l-3 7h-13l-23 -3l-66 -37l-17 -23l-16 -13l-30 -39l-49 -83l-63 -125l-26 -56l-96 -221l-23 -33l-10 -4l-7 -10l-43 -3l-9 7l-20 20l-13 46l-4 26l17 59l56 165l109 380l62 191
l73 168l69 129z" />
    <glyph glyph-name="i" unicode="i" horiz-adv-x="481" 
d="M345 865l13 4l23 -14l23 -6l7 -30l6 -3l-6 -7v-39l-10 -43l-36 -23l-37 -7l-29 7l-40 52l-3 27v26l6 27l17 3v10l16 13h10l7 7zM256 532l30 13l19 -6l10 6h7l26 -23l13 -7l24 -46l3 -32v-34l-30 -62l-46 -152l-10 -96l-3 -33l19 -6l60 3l76 20l-14 -27v-9l-19 -33
l-14 -14l4 -10l-23 -16h-7l-6 -13l-27 -10l-6 -7l-60 -36l-23 -17l-43 -6l-6 -3l-10 6l-40 17l-49 36l-30 36l-13 33l-13 73v89l13 53l39 99l60 102l52 69z" />
    <glyph glyph-name="j" unicode="j" horiz-adv-x="490" 
d="M311 578h17h23l23 -3l46 -50l11 -53l-16 -84l-21 -97l-17 -48l-14 -46l-8 -28l-8 -30l-7 -29l-6 -13v-24l-17 -43l-16 -23v-19l-7 -7l-10 -12l-14 -33l-9 -14l-12 -30l1 -26l-17 -56l-20 -23l4 -13l-17 -30l-13 -46l-13 -23l-16 -38l-11 -35l-33 -63l-24 -30l-28 -25
l-30 -14l-65 -38l-60 -41l-63 -41l-46 -13l-36 13l-51 31v16h-10l-29 23v3l-24 33l-3 30l3 63l30 128l13 40l17 17l10 23l6 -4l-3 -23l20 -39l-10 -7v-49l7 -4v-16l19 -27l21 -58l76 -11l10 10l17 -10l3 10h3l3 -6h4l13 6l55 188l38 114l22 112l36 79l36 114l69 178l119 244
l13 4zM338 1066l23 4l16 3l10 -10l20 7l20 -17l20 -26l3 -7l-3 -10l26 -72l3 -4l-6 -49l3 -13l-13 -23l-36 -10h-37l-59 49l-3 3l-17 17l-3 26l-10 17l-7 26l7 43l7 17l16 6z" />
    <glyph glyph-name="k" unicode="k" horiz-adv-x="1001" 
d="M440 1059l43 85l49 16l52 -33l29 -40l10 -43l-3 -23l-3 -36l-14 -95l-27 -87l-22 -74l-43 -101l-3 -30l-10 -10l-10 -40l69 53l76 46l41 33l36 19l24 5l33 19l31 6l19 -13h4v-8l43 -50l15 -49l8 -33l7 -17l-4 -20l-10 -6l-17 -25l-25 -19l-29 -12l-19 -7l-3 -13l-37 -13
l-23 -23l-40 -20l-16 -7l-26 -3l-14 -10l-46 -10l3 7l-10 3l-46 -23l28 -13l96 -89l36 -33l122 -99l182 -175l20 -26l16 -10l17 -17l6 -26l-10 3v-3l6 -31l-14 -25l-21 -7l-20 -3l-17 16h-6l-13 -6l-10 6l-70 40l-16 7l-43 26l-50 23l-26 17l-59 36l-86 49l-33 17l-86 66
l-56 46l-6 7h-7l-17 13l-33 36h-13l-3 -10l-16 -7l6 -9l-14 -27l-5 -38l-30 -51l-7 -20l-23 -36l-27 -33v-7l-13 -16l-26 -10l-13 3l-4 -6l-23 -33l-16 -13l-17 3l-9 -13h-40l-40 20l-15 10l-14 27v30l5 41l20 58l24 62l82 219l150 357l93 221z" />
    <glyph glyph-name="l" unicode="l" horiz-adv-x="373" 
d="M508 1241l13 7l23 -4l23 -29l7 -13v-30l-26 -76l-27 -56l-7 -26l-46 -86l-13 -17l-16 -39l-10 -14l-10 -23l-40 -72l-20 -40l-23 -46l-13 -23l-17 -33v-26l-16 -14l3 -9l-23 -50v-7l-5 -26l-18 -23l3 -26l-6 -7l-7 -20l-6 -36l-10 -59l-3 -14v-23l-7 -10l3 -10v-19
l-6 -10v-43l3 -13l3 -43l17 -60l13 -29l-3 -17l16 -16v-14l36 -39l50 -10l26 3l10 -6l17 -10l-27 -13v-10h-3l-33 -20l-10 -3h-26l-60 23l-26 23l-30 30l-13 19l-43 76l-3 20l-17 59l-13 96v56l7 69l6 10l-6 10l26 139l46 135l7 13l33 92l86 166l13 19l36 70l93 138l52 66z
" />
    <glyph glyph-name="m" unicode="m" horiz-adv-x="1152" 
d="M446 699l46 13h26l53 -20l7 -3l26 -23l43 -66l3 -43l-13 -63l-6 -19l-21 -46l-12 -27l-10 -23l-17 -33l-3 -30l-17 -43l7 -13l-17 -26l4 -10l-7 -4v-9h7l181 247l79 89l37 33l52 40l20 13l27 3l6 10l37 10h42l14 -10h23l6 -10l13 -3l24 -20l46 -82l-3 -40l3 -10l-10 -49
l-17 -30l-13 -23l-13 -35l-10 -28l-16 -16l-7 -16l-15 -18l-37 -31l-24 -38l3 -9l-13 -10l-22 -47l-30 -56l-15 -29l-22 -40l-3 -30l-13 -52l-17 -20l4 -20l-14 -36v-30l-3 -16l-10 -4l3 -49l-13 -17l-3 -26h-10v-3h-7l-9 -4l-7 7l-7 33l-6 16l-4 43l4 13l-7 7l-6 23l9 50
l-3 33v26l3 23l7 10v36l3 4l17 72l23 93l30 85v7v10l10 10l6 29l17 47l9 6v10l17 36l10 4v16l-13 -3l-23 -27l-14 -39l-13 -10l-3 -10l-17 -10v-13l-23 -33l-19 -26l-17 -40l-11 -43l-29 -36l-20 -30l-9 -13l-10 -30l-58 -55l-44 -34l-27 -7l-18 -7l-15 -6l-25 4l-21 9
l-46 37l-43 62l-7 17l4 10l-10 26l6 106l5 89l9 36v7l3 23l6 43l-59 -93l-6 -6l-43 -86l-40 -76l-13 -30l-3 -16l-14 -36l-6 -10v-13l-10 -17l-10 -26l-7 -10l-16 -37l-3 -26l-7 -6l-13 -23l-20 -7v-10h-16l-4 3h-39l-17 23l-7 7l-13 7l-16 19l-7 10l-13 3l-3 20v7l10 3v30
l13 26l16 83l4 10l29 99l7 23l40 102l92 182l20 36l19 23l17 16h23l26 4l7 -4l20 -13l10 4l56 42z" />
    <glyph glyph-name="n" unicode="n" horiz-adv-x="800" 
d="M685 180l-11 -33l3 -91l14 -45l31 -83l14 -28l11 -20l-17 -4l-13 -13l-13 14l-20 1v-6l-7 -3l-19 6l-27 7l-74 85l-37 121l-6 17l3 10l-10 26l7 106l-10 6l16 40l-3 7v10l7 6v58l8 41l3 30l6 38v19l-11 25l-18 15l-36 4l-43 -10l-14 -35l-12 -33l-17 -23l-17 -57l-13 -21
l-11 -37l-29 -68l-34 -78l-13 -30l-3 -16l-20 -46v-13l-10 -17l-23 -61l-6 -6l-13 -23l-20 -7v-10l-20 4h-40l-16 23l-7 6l-13 7l-16 20l-7 9l-13 4l-5 27l11 20l16 83l4 10l29 99l7 23l33 111l28 126l44 119l23 34l34 16l45 -2l3 -3l23 7l7 -4l26 -28l8 -26l56 42l23 17
l46 13l81 17l101 -37l6 -3l27 -23l3 -7l26 -35l8 -63l-4 -67l-6 -24l-14 -38l-20 -66l-15 -50l-9 -56l-8 -16l-6 -14l6 -6l2 -21v-23z" />
    <glyph glyph-name="o" unicode="o" horiz-adv-x="808" 
d="M568 539l-11 12l-14 -1l-19 -5l-12 -10l-23 -19l-26 -19l-45 -53l-35 -55l-30 -49l-38 -72l-28 -80l-2 -42l12 -20l21 -5l27 3l29 8l35 13l47 34l37 43l39 55l26 83l8 51l4 74zM497 730l42 23l20 -6l33 -3l40 -7l13 -17l13 -26v-7l-6 -6l9 -7l23 -33l-10 -20l17 -3
l-3 -10l13 -13l3 -30l19 -46l18 -69l3 -20l6 -26l7 -33l-7 -14l-6 -29l10 -30l-4 -13l-6 -40l-23 -62v-27l-13 -16l-24 -13l-6 -33l-40 -40l-17 -24l-44 -30l-34 -25l-17 -10v-7l-29 -23h-17l-10 -10l-10 4l-6 -7l-50 -16l-23 6l-3 -10h-7l-6 7l-20 -13h-7h-49l-10 6l-7 -3
l-61 11l-38 22l-30 16l-23 24l-16 19l-7 23l-6 7l-10 17v23l-4 36l-9 7l-1 24l-14 10l-2 18v20l13 7l-3 6v10l-3 43l3 30l33 66l13 39l17 10l6 30l112 155l40 40l26 29l76 66l20 10l18 15l28 12l10 -7l17 7z" />
    <glyph glyph-name="p" unicode="p" horiz-adv-x="967" 
d="M669 442l-41 28l-62 -1l-45 -13l-41 -30l-8 -44l-44 -22l10 -81l34 -1l33 -24l66 -3l43 22l41 -3l36 30l22 60l-17 55zM366 863l13 17l40 13l30 -16h3l53 -53l13 -37l10 -33l16 -32l-3 -24h30l33 -6l10 3h23l82 -16l53 -27l20 -13l19 -6l7 -10l30 -27l16 -16l20 -37
l7 -13l23 -16l3 -17v-3l-3 -7l13 -33l3 -20l10 -19v-23l-3 -66l-17 -37l-14 -57l-35 -28v-17l-27 -23l-19 -7l-7 -6l-24 -25l-35 -18l-14 -13l-29 -10l-10 -3l-17 -10l-6 6l-27 -13l-46 -7v11l-6 6l-7 -6l-59 -11l-66 16l-60 11h-13l-72 30l-23 -2l4 -20l-4 -26l-17 -42
l-9 -44l-7 -40l-17 -39l-3 -37l-23 -52l-13 -40l-6 -10l-14 -53l7 -3l7 -29v-4l-24 -23l7 -10l-27 -26l-13 13h-6l-7 -10l4 -23l-8 -25l-20 -29v-10l-19 -10h-37l-13 6l-16 20l-20 43l-10 50l3 75l10 93l20 115l16 69l50 225l36 132l-3 16l10 14l-13 19l-10 14v36l13 6l6 14
h-9v9l23 14l13 20l26 19l20 43l69 152l70 125z" />
    <glyph glyph-name="q" unicode="q" horiz-adv-x="699" 
d="M551 -418l-35 -62l-49 -99l-40 -96l-13 -20l-66 -109l-56 -53l-30 -13l-26 10l-26 60l-20 89l-7 99v95l13 99l33 195l46 188l14 53l7 9v27l-80 -30l-49 -3l-53 17l-23 19l-36 63l-3 55l6 60l29 63l50 62l43 47l43 46l142 116l79 49l69 27l23 3l36 -7l7 -7l46 53l10 4v10
l13 9h7l26 -6l7 6l30 -6l19 -10l17 -26l-3 -17l-23 -46l-7 -20l-10 -23l-63 -148l-10 -17l-3 -26l-66 -152l-10 -7l-10 -36l-26 -26l-10 -40l-10 -7l-16 -23v-16l-17 -20l-23 -59l-10 -7l-23 -83l-23 -29v-17l-7 -16l-10 -30l-9 -19l-17 -63l-23 -66l-7 -33l-10 -23v-13
l-13 -45l-11 -60l-6 -41l-3 -56l-2 -23l2 -30l11 -59l13 17l89 207l69 139l109 191l10 -23l-8 -30l-11 -27l13 -30l-2 -24l5 -25l-16 -38zM501 505l30 46l-34 -9l-60 -53l-53 -62l-3 -7l-16 -20l-26 -29l-64 -96l-13 -17l-34 -61l-1 -36l21 -16l32 8l46 41l30 41l33 54
l59 104l27 55z" />
    <glyph glyph-name="r" unicode="r" horiz-adv-x="657" 
d="M269 670l20 10h30l36 -36v-43l-3 -23l42 23l60 16l82 -3l40 -6l69 -37l27 -23l23 -43l3 -23l-23 -23v-7l-27 -26l-23 3l-10 17l-23 10l-75 16h-24l-46 -6l-53 -27l-39 -33l-50 -69l-33 -69l-39 -145l-13 -89l-4 -30l-16 -73l-7 -13l-33 -10l-20 -16l-19 -4l-17 7l-3 13
l-30 46l-6 23l3 10l-7 7l-6 20l6 20l10 23l3 46l47 198l66 221l46 105z" />
    <glyph glyph-name="s" unicode="s" horiz-adv-x="725" 
d="M576 774l23 7h46l46 -13l4 -3v-7l16 -36v-27l-10 -19l-43 -30h-30l-65 -43l-70 -53l-62 -63l-7 -26v-10l7 -20l108 -108l53 -67l33 -65v-7l3 -7l7 -26v-3l-7 -23v-10l-16 -27l-23 -19l-36 -24l-76 -13l-23 -3l-60 -10h-16l-33 -7l-135 -16l-136 -7l-6 10h-17l-6 7l-14 -3
h-49l-20 -4l-10 10l7 26l30 20l46 23l115 33l116 20l174 23l30 10l4 3l-27 37l-30 30l-10 9l-13 17l-39 33l-20 13v3l-33 30l-10 13l-36 76l-7 79l17 60l19 33l63 59l63 43l63 33z" />
    <glyph glyph-name="t" unicode="t" horiz-adv-x="787" 
d="M538 1032h30l13 3l13 -9l20 -20l23 -37l13 -42l4 -37l-27 -102l-3 -17l23 -6l49 -3l83 -10l102 -7l106 -13l39 -17l7 -6l-3 -4l-47 -13l-33 -16h-19l-10 -10l-56 -3l-4 -10l-9 -4l-40 -3l-36 -10l-89 -26l-83 -30l-30 -16l-42 -17l-30 -46l-3 -30l-10 -19l-14 -30l-3 -20
l-3 -13l-13 -23l-17 -60l-3 -23l-17 -49l-10 -40l-3 -30l-6 -9l3 -7l3 -53l3 -6l37 -20l33 3l39 20l10 6h10v-6l-10 -10l-3 -23l-7 -17l-10 -26l-23 -20l-29 -36l-40 -30l-30 -10l-26 -20l-69 20l-59 33l-40 46l-20 57l-13 92l10 92l49 185l26 83l-39 -7l-99 3l-46 23
l-20 17l-7 7l-10 26l-9 10l9 23l-3 13l20 26l39 14l90 39l105 23l56 10l10 3l79 159l60 95l33 37z" />
    <glyph glyph-name="u" unicode="u" horiz-adv-x="689" 
d="M241 696l19 11h3l29 -7l18 -36v-48l-29 -116v-25l-18 -80l-25 -153v-101l11 -14l19 16l22 42l112 265l22 54l58 131l5 17l10 15l17 19h21l26 7h25l44 -11l14 -22l4 -29v-4l-4 -32l2 -22l-4 -26l-11 -49l-11 -45l-14 -41l-9 -38l-9 -31l-8 -36l-16 -90l-8 -78l5 -84
l14 -71l-19 -10l-17 6l-3 -13l-13 3l-8 -1l-10 9l-12 29l-8 33l-10 36l-5 80l-36 -73l-33 -40l-72 -69l-58 -32l-44 -8l-33 11l-36 18l-40 48l-29 79l-7 51l7 113l22 130l51 160l43 109z" />
    <glyph glyph-name="v" unicode="v" horiz-adv-x="657" 
d="M218 824l10 3l29 -6l14 -10l3 -10l13 -20l13 -129l-10 -184l-6 -126l-4 -26l4 -53l-4 -16l17 -89l10 -20l10 13l118 237l70 123l36 49l73 119l79 109l36 39h10l-13 -26l6 -7l4 -13l-10 -13l-27 -46l-3 -20h10l-27 -46l-13 -37l-3 -23l-7 -10l-13 -39l-10 -30l-9 -30
l-4 -13l-16 -36l6 -10l-20 -49l4 -7l-27 -56l-102 -214l-33 -57l-29 -29l-27 -17l-36 -29h-27l-36 -10h-36l-20 10l-40 56l-29 69l-27 76l-19 92l-10 89v129l3 30l3 33l20 105l23 99l40 66l19 13z" />
    <glyph glyph-name="w" unicode="w" horiz-adv-x="919" 
d="M1039 989l27 34h3l-10 -30l-3 -7v-10l-7 -3v-17l4 -3l-14 -33l-9 -20l-20 -26l3 -13l-33 -73l-3 -13l-3 -13l-30 -66l-7 -20v-13l-13 -30l3 -10l-3 -23l-20 -49l-10 -23l-16 -60l-20 -36l-7 -26l4 -17l-13 -30l-4 -6l4 -20l-14 -30l-6 -6l-17 -53l-23 -59l-27 -62
l-22 -41l-17 -36l-16 -13l-27 -20l-19 -20l-20 -10l-50 3l-52 27l-37 46l-26 69l-23 96l-7 168l-3 99h-7l-16 -33l-37 -122v-29l-23 -80l3 -28l-24 -103l-41 -118l-33 -21h-27l-39 26l-23 27l-27 49l-16 73l-10 85l-7 136l10 178l17 165l26 39l16 10h30l30 -33l16 -36
l4 -135l-4 -33l7 -50v-59l-7 -23v-69l50 138l23 63l43 72l16 20l14 10l33 13l36 10l39 -3l27 -20l19 -23l17 -33l17 -59l3 -30v-126l-3 -9l3 -103l10 -56l6 -13h7l125 258l116 257l39 76l4 6l23 40l10 16l9 23l17 30l7 10l19 33l23 30v9l10 10l23 30v3z" />
    <glyph glyph-name="x" unicode="x" horiz-adv-x="713" 
d="M758 848l10 6h3l17 -36l7 -59l-4 -10l-10 -20l-29 -43h-7l-62 -79l-73 -79l-36 -43l-73 -89l-17 -17l-6 -19l-10 -4l-6 -26l16 -43l56 -129l86 -171l26 -36l7 -20l6 -4l7 -26l3 -10v-6l23 -37l10 -10l4 -13h-7l-10 13h-6l13 -23h-7l-30 13l-19 4l-7 -7l-20 10l-13 26
l-16 -6l-122 142l-119 165l-17 26l-39 -43l-4 -10l-95 -125l-20 -33l-33 -36l-23 -30l-7 -3l-16 -27l-10 -16h-10l-10 -20l-10 3l-23 -20h-3l-23 -6l-7 10l-7 33l7 36l40 83l29 39l86 132l83 126l29 36l-53 135l-49 178l-10 76v69l10 23l26 30l10 3l20 7h17h6l13 10l27 -30
l43 -79l29 -69l47 -129l6 -26l109 138l105 112l76 73l30 13h26z" />
    <glyph glyph-name="y" unicode="y" horiz-adv-x="803" 
d="M297 746l40 3h16l7 -10h7l13 -33l3 -52l-7 -7l7 -7l-10 -43l-36 -82l-17 -33l-16 -46l-10 -30l-4 -3l-13 -53v-7l-3 -33l30 23l72 90l76 105l36 43l4 10l26 26l30 47l39 22l10 10l47 4l13 3l53 -33l9 -3l24 -23l3 -13l10 -7l16 -17v-39l3 -7v-29l-9 -30l3 -36l-17 -53
v-23l-13 -17l-10 -49l-7 -10l-16 -40l-6 -26l-25 -20l-22 -40l-13 -36l-27 -44l-19 -38l-13 -46l-20 -10l-3 -14l-13 -6l9 -13l-19 -50l-20 -30l6 -19h-9l-7 -4v-23l-15 -52l-8 -22l-17 -30l-19 -41l-8 -28l-19 -44l-16 -7v-17l-14 -9l4 -7l-13 -20l-21 -32l-19 -24l-10 -26
l-40 -37l-29 -39l-26 -17l-14 -6l-23 -17l-53 -16h-13l-39 -7l-10 -7l-35 -1l-38 15l-20 6h-23l-33 17l-36 10l-40 33l-26 26l-10 26l-7 17l4 10v10l-4 23l-6 13l3 17l-3 9l6 14l10 -17l4 7v39l13 -6l3 -46l7 -4l13 4l20 -14l6 -10l40 -16l125 3l50 10l52 20l20 10l37 10
l36 29l39 57l43 128l50 211l3 46l7 33l6 27l7 46l-69 -50l-14 10l-65 -22l-50 6l-13 10l-37 20l-39 36l-23 59l-10 46l-3 57l10 62l16 60l66 145l73 112l36 36z" />
    <glyph glyph-name="z" unicode="z" horiz-adv-x="1238" 
d="M848 744l59 3l93 -3l26 -3l43 -24l20 -19l13 -30l-3 -33l3 -10l6 -3l7 -27l-16 -26l-60 -40l-23 -13l-23 -16l-50 -30l-23 -13l-10 -3l-22 -17l-20 -6l-60 -20l-39 -23l-30 -17l-46 -20h-14l-16 -16l-36 -17l-30 -23l-23 -10l-16 -9l-33 -24l-20 -6l-20 -17l-30 -13
l-10 -10l-23 -6l-16 -14l-23 -16l-17 -3l-20 -23l33 9h10l20 4l99 29l53 4l53 13l65 7l7 6l13 -10l20 10l10 -6l10 6h46l69 7l43 3h33h13l10 -7l40 10l33 -3h7l9 -7l7 4h10l40 -4h3l36 -3l33 -3l17 -7h26l26 -10l56 -10l24 -9v-4l-14 -6l-6 3l-10 -7l-26 -3l-30 -13l-27 -3
l-59 -14l-7 -3l-36 -10l-20 3l-19 -3v-6l-47 -10l-13 -7l-3 -3l-23 -4h-23l-56 -13l-20 -10l-23 4l-10 -10l-17 6l-6 -6l-14 3l-36 -7l-6 -6l-10 3l-33 -16l-20 3l-33 -13l-7 -7l-89 -26l-16 -4l-53 -13l-26 -3l-33 -7l-73 -23h-10l-122 -33l-95 -16l-37 6l-79 17l-30 20
l-3 36v10l10 16l-4 14l10 13l14 23l26 30l115 69l129 86l10 6l92 63l70 46l42 33l268 178l-37 -6l-138 -20l-40 -4l-95 -3h-99l-73 10l-36 10l-13 7l3 10l-3 6l3 26l59 50l149 43l142 33z" />
    <glyph glyph-name="braceleft" unicode="{" 
d="M82 1351v-1337h655v1337h-655zM751 0h-683v1365h683v-1365z" />
    <glyph glyph-name="bar" unicode="|" 
d="M82 1351v-1337h655v1337h-655zM751 0h-683v1365h683v-1365z" />
    <glyph glyph-name="braceright" unicode="}" 
d="M82 1351v-1337h655v1337h-655zM751 0h-683v1365h683v-1365z" />
    <glyph glyph-name="asciitilde" unicode="~" 
d="M82 1351v-1337h655v1337h-655zM751 0h-683v1365h683v-1365zM82 1351v-1337h655v1337h-655zM751 0h-683v1365h683v-1365z" />
    <glyph glyph-name="Adieresis" unicode="&#xc4;" horiz-adv-x="817" 
d="M486 902l-15 -57l-12 -35l-9 -58l-6 -9l-5 -34l-12 -38l-11 -52l-9 -47v-34l23 -6l81 -6l13 1l-1 71l-3 48l4 47v63l-5 93v79l-6 66zM523 1373l23 8l55 -3l35 -5l5 -6l21 -3l46 -23l64 -76l23 -36v-8l-3 -23l8 -24l3 -81l-3 -29v-29v-5l-5 -41l-3 -58l-3 -52l-12 -86
l-3 -27l-14 -60l-6 -15l-3 -37l-8 -38v-26l-6 -6v-20l-3 -9l6 -8l-18 -32v-9l18 -20v-18h8l-8 -37l-6 -15l6 -26l-9 -8l3 -18v-34l-12 -6l-6 -3l6 -35l6 -9l-3 -26l6 -20l-6 -6l3 -17l-3 -26l20 -119l6 -20l-3 -12l12 -37l-3 -29l3 -58l6 -15l-6 -8l3 -15l6 -29l8 -11
l-3 -20l9 -47l9 -34v-21l11 -43l-3 -35l-33 57l-30 62v6l-12 26l-35 69l-11 35l-26 66l-3 26l-17 38l-15 32l-14 66l-15 35l-11 64l-9 23l-15 58l-23 -9l-49 -6l-6 -5l-63 -3h-50l-23 -6l-17 -41l3 -31l-12 -41l-8 -32l-3 -17l-6 -9l-15 -43l-2 -20l-6 -12l-3 -29l-9 -32
l-17 -35l-3 -17l-17 -35l-12 -26l-15 -17l-20 -6l-14 -11l-29 -6h-17l-21 11l-20 26l-6 38l-3 9v63l6 41l20 118l12 47l23 110l12 43l8 15v20l-26 43l-3 18l12 8l-6 12l6 23l3 17v3l32 9l23 12l14 43l6 23l35 107l11 44l6 3v11l41 110l14 35l23 69l18 58l32 98l5 12l6 17
l38 102l11 18l27 70l26 52zM790 1703l6 11l46 -14l17 3l9 -9l17 -20l29 -26l18 -50v-49v-5l-26 -29l-12 -6l-20 -6l-52 9l-41 20l-43 37l-3 32l-9 12l23 69l21 15zM448 1711l32 6h3l17 -6l18 -8l17 3l-3 -15l21 -9l28 -26l12 -14l29 -67l3 -14v-20v-6l-15 -23l-14 -18l-3 -3
l-29 -5l-35 -3l-37 14l-18 9l-3 3l-49 35l-23 20l-3 11v26l-5 23l5 27l15 31z" />
    <glyph glyph-name="Aring" unicode="&#xc5;" horiz-adv-x="817" 
d="M486 902l-15 -57l-12 -35l-9 -58l-6 -9l-5 -34l-12 -38l-11 -52l-9 -47v-34l23 -6l81 -6l13 1l-1 71l-3 48l4 47v63l-5 93v79l-6 66zM523 1373l23 8l55 -3l35 -5l5 -6l21 -3l46 -23l64 -76l23 -36v-8l-3 -23l8 -24l3 -81l-3 -29v-29v-5l-5 -41l-3 -58l-3 -52l-12 -86
l-3 -27l-14 -60l-6 -15l-3 -37l-8 -38v-26l-6 -6v-20l-3 -9l6 -8l-18 -32v-9l18 -20v-18h8l-8 -37l-6 -15l6 -26l-9 -8l3 -18v-34l-12 -6l-6 -3l6 -35l6 -9l-3 -26l6 -20l-6 -6l3 -17l-3 -26l20 -119l6 -20l-3 -12l12 -37l-3 -29l3 -58l6 -15l-6 -8l3 -15l6 -29l8 -11
l-3 -20l9 -47l9 -34v-21l11 -43l-3 -35l-33 57l-30 62v6l-12 26l-35 69l-11 35l-26 66l-3 26l-17 38l-15 32l-14 66l-15 35l-11 64l-9 23l-15 58l-23 -9l-49 -6l-6 -5l-63 -3h-50l-23 -6l-17 -41l3 -31l-12 -41l-8 -32l-3 -17l-6 -9l-15 -43l-2 -20l-6 -12l-3 -29l-9 -32
l-17 -35l-3 -17l-17 -35l-12 -26l-15 -17l-20 -6l-14 -11l-29 -6h-17l-21 11l-20 26l-6 38l-3 9v63l6 41l20 118l12 47l23 110l12 43l8 15v20l-26 43l-3 18l12 8l-6 12l6 23l3 17v3l32 9l23 12l14 43l6 23l35 107l11 44l6 3v11l41 110l14 35l23 69l18 58l32 98l5 12l6 17
l38 102l11 18l27 70l26 52zM718 1649l-24 4l-51 -76l-7 -46l3 -28l3 -3l42 35l38 44v28zM654 1783l26 12l31 -7l15 -7l2 -3l14 -26v-12l10 -12l12 -7l26 -33l14 -10l22 -40l12 -27l2 -40l3 -31v-17l-3 -14l-9 -17l-46 -43l-17 -12l-12 -7l-28 -19l-41 -7l-45 -3l-81 22
l-34 28l-9 22l-7 43v38l7 41l17 35l-3 10l12 9l19 34l41 55l45 40z" />
    <glyph glyph-name="Ccedilla" unicode="&#xc7;" horiz-adv-x="954" 
d="M606 -30l-67 -3l-30 -2l-12 -29v-17l76 -35l29 -17l31 -41l21 -67l-6 -20h-20l-18 -17l-48 -25l-44 -16l-35 -17l-133 -43l-81 -24h-32l-15 9h-11l-9 3l-3 12h-14l-6 8l17 12l32 14l107 44l110 43l38 26l-12 3l-60 -6h-38v6l-12 15l-17 2l-3 6l-17 9l-9 6v26v20v12l61 95
l8 38l-43 14l-49 30l-40 31l-60 60l-41 61l-26 63l-10 39v32l-6 41l3 38l3 48l26 92l6 22l16 29l10 25l3 10l13 29l38 60l19 29l10 16l25 35l19 19l13 16l3 13l61 66l73 89l32 36l19 15l6 13l6 7l10 9l57 51l32 32l67 60l19 16l38 26l16 19l29 19l35 29l19 9l44 19l20 26h16
l3 -7h35l9 -6h7l44 -32h35l13 -9l13 -20l3 -19l19 -28l22 -45v-48l-16 -35l-19 -22l-22 -16l-64 -16l-19 -9l-9 -10l-32 -32l-13 -22l-29 -29l-22 -32l-28 -25l-70 -76l-13 -13l-35 -41l-42 -61l-16 -19l-105 -137l-15 -16l-29 -51l-22 -31l-16 -32l-16 -29l-13 -54l-19 -48
l-6 -67v-6l3 -42l28 -50l48 -32l51 -19l70 -16l51 -3h67l29 -4l6 4l9 3l23 -15v-27l-7 -22v-19l-6 3h-3l-22 -16l-39 -6l-38 -10l-6 4l-38 -10l-7 -3h-32h-9z" />
    <glyph glyph-name="Eacute" unicode="&#xc9;" horiz-adv-x="1081" 
d="M461 1281l58 6l22 -6h8l22 -2h38l39 5l57 3h86l46 -8h53l104 -6l44 -5l171 -17l88 -8l46 -8h8l3 -14l-3 -17l-35 -8l-19 -3l-11 -5l-47 3l-14 -6l-38 3l-9 -6l-11 6l-5 -11l-8 -11v-14l-28 -8l-11 5l-8 -8h-3l-30 -8l-28 -22l-11 5l-5 -8l-11 3l-8 -8l-58 -9l-8 3
l-25 -11v-5l-38 -9l-22 -16l-20 -8l-13 -11l-39 -14l-36 -8l-16 -3l-8 -8l-44 -3l-31 -8l-38 -14l-41 -14l-6 -11l-14 -5l-38 -88l-17 -61l-16 -27l-3 -17l-5 -19l8 -3l66 11l107 3l107 -5l50 -6l16 -5l22 -3l11 -6l8 -2v-6l-13 -27l-42 -28l-22 -14l-10 3l-9 -14l-58 -13
l-68 -22l-39 -13l-115 -18l-30 -2l-36 -3l-19 -91l-6 -22l-14 -79l-8 -14v-91l3 -19v-22l8 -28l22 -13l33 -3h52l127 16l41 11l116 17l68 19l66 14l83 25l2 -12l-32 -41v-5l-31 -39l-52 -44l-36 -27l-14 -8l-5 -17l-19 -8l-36 -17l-11 -11h-11v-5l-19 -17l-14 -11l-8 3
l-17 -11l-11 -3v-5l-22 -6l-38 -16l-11 -6h-19l-6 -5l-85 -8l-50 2l-33 3l-110 28l-35 19l-36 22l-3 8l-19 19l-14 17l-11 27l-22 36l-11 30l-5 6l-11 63v14l-6 36l-2 68v28l8 22l-3 8v41l8 33l3 25l8 58l22 93l3 19l14 50l5 22v8l17 39l2 19l3 22l22 63l17 55l5 3l11 49
l-16 11l-33 28l-20 22l-8 13l25 12v5l14 8l-6 11l8 17v16l36 22h6l19 14l30 14l14 3l19 10l17 14l8 14l25 16zM954 1739l76 9h7l10 -7l3 -6l-9 -2l-7 -18l3 -6l-9 -4l-18 -9v-7l7 -8l-9 -9l5 -15l-9 -7v-6l26 4v-2l-30 -22l-5 -21l-15 -22l-13 -15l-24 -22l-22 -17l-82 -48
l-74 -33l-15 -2h-35l-24 7h-17l-11 6v9l-9 8l-10 29l2 11l-4 10l4 9l13 13v5l61 54l28 22l85 60l60 37z" />
    <glyph glyph-name="Ntilde" unicode="&#xd1;" horiz-adv-x="1365" 
d="M1329 1095l-5 -74l-9 -44l12 -17l5 -70l-5 -55v-31l-6 -26l9 -32l-11 -118l-2 -36l-9 -122l-2 -50l-12 -35l-3 -38l-9 -45l-14 -49l-3 -23l-21 -52l-14 -46l-14 -35l-12 -32v-6l-17 -14l-11 -58l-16 -33l-21 -27l-21 -21l-11 -17l-46 -15l-32 9l-33 16l-32 22l-36 41
l-49 52l-49 53l-23 26l-58 55l-70 89l-17 26l-17 15l-70 113l-43 63l-47 61l-20 -69l-11 -35l-3 -23l-23 -67l-23 -70l-23 -57l2 -12l-14 -23l-6 -40l-9 -52l-9 -50l-20 -43l-3 -26l-6 -6l-5 -29l-20 6l-18 -46l-11 -44l-15 -26l-35 -17h-8l-12 9h-20l-15 2l-11 18l-32 23
l-6 17l9 44l-3 32l3 95l6 55l3 43l14 145l3 41l6 34l14 84l18 139l49 272l8 26l9 35l20 93l21 60l11 26l15 18l2 14l15 9l17 9l32 5l70 -17l26 -26l3 -9l29 -31l20 -27l23 -63l24 -30l14 -49l36 -63l49 -70l24 -42l24 -30l20 -30l13 -22l22 -35l17 -34l3 -9l14 -35l18 -49
l20 -35l23 -26l39 -96l12 -17l20 -29l18 -38l4 43v32l11 42l6 48l8 23l3 32l10 49l31 159l11 106l13 66l14 54l16 118l11 59v36l6 38l8 50l16 71l11 43l17 49l32 85l26 52l19 42l20 37l22 38l22 53l20 3l16 -12l3 -22l-6 -35l-13 -64v-6l-6 -9l17 -11l-3 -28l3 -30l-3 -46
l3 -41l5 -62l2 -45l-3 -62zM1096 1768l24 9h17l-13 -35l4 -2v-2l-11 -11l-19 -35l-2 -17l-5 -13l-4 -3v-4l4 -2l-17 -41l2 -9v-2l9 -7l-5 -19l-6 -22l11 4v-4l-7 -7v-4l-15 -22l-2 -2l-4 -19l-9 -16l-11 -6l-9 -6l-17 -11l-43 -20l-59 -9l-61 3l-50 17l-32 20l-24 23l-17 29
l-20 45l-7 20l-17 -11l-30 -39l-13 -22l-2 -6l-16 -9l-2 -7l-17 -4l-11 -9h-2h-15l-9 -4h-20l-6 4l-2 7l-11 11l-15 17l6 4l-6 9v9l-2 15l6 30l28 61l26 41l41 33l35 24l22 11l17 -3l37 3l24 -5l65 -39l41 -56l5 -15l-2 -5v-50l2 -2l11 -8h15l34 6l18 13l32 39l48 63l28 31
l16 17z" />
    <glyph glyph-name="Odieresis" unicode="&#xd6;" horiz-adv-x="1201" 
d="M740 883l-36 33l-42 -6l-31 -9l-36 -47l-39 -82l-54 -100l-18 -34l-12 -48l-16 -29l-19 -56l-8 -9l-30 -62l-34 -80l1 -76l15 -62l17 -20l32 -32l65 -23l114 -3l12 4l24 4l44 4l65 29l28 21l32 12l28 37l28 77l19 69l4 32l20 29l-8 12l3 81l-25 121l-21 64l-17 33l-40 44
l-37 56zM718 1213l12 6l29 -6l20 3l15 -11l14 -15l3 -11l15 -23l14 -6v-9l1 -34l6 -26l32 -29l29 -23l26 -29l9 1l17 -26l21 -26l17 -29l21 -17l6 -12l15 -28l-3 -9l11 -6l15 -32v-5l24 -20l6 -21l3 -37l8 -3l12 -23l6 -58l12 -43l6 -44l7 -28l23 -3l-3 -15l-3 -23v-23l3 -6
h6l-8 -37l-7 -50l-12 -52v-9l-6 -8v-18l-14 -23l-14 -49l-12 -12v-14l-8 -18l-23 -26l6 -11l-6 -9l-20 -12l-9 -12l-23 -8l-14 -21l-11 -20l-9 -9l-40 -24l-21 -5l-8 -9l-23 -18l-32 -6l-29 -9l-8 -9l-35 -17l-43 -6l-23 -9l-23 -6l-21 2l-26 -11l-81 7l-69 14l-79 32l-14 8
l-21 9l-75 40l-38 28l-56 52l-44 63l-32 60l-24 84l-9 46l2 99l6 49l22 90l37 81l11 12l3 15l29 46l22 35l69 96l23 32l83 105l23 26l8 9l23 15l18 26l23 12l17 20l20 9l23 23l26 12l17 12l75 21l6 6h23zM855 1703l6 11l46 -14l17 3l9 -9l17 -20l29 -26l18 -50v-49v-5
l-26 -29l-12 -6l-20 -6l-52 9l-41 20l-43 37l-3 32l-9 12l23 69l21 15zM513 1711l32 6h3l17 -6l18 -8l17 3l-3 -15l21 -9l28 -26l12 -14l29 -67l3 -14v-20v-6l-15 -23l-14 -18l-3 -3l-29 -5l-35 -3l-37 14l-18 9l-3 3l-49 35l-23 20l-3 11v26l-5 23l5 27l15 31z" />
    <glyph glyph-name="Udieresis" unicode="&#xdc;" horiz-adv-x="1066" 
d="M1094 1363l9 17h9l8 -17v-64l-8 -29l3 -20v-15l-6 -46l-12 -20l3 -14l-11 -27l5 -34v-18l-11 -40l3 -29l-9 -46l-12 -50v-20l-5 -11l-6 -44l-12 -20v-23l-16 -26l-5 -30l7 -31l-3 -43l-6 -12l-6 -38v-23l-11 -46h-6l-9 -20l-11 -58v-26l3 -12l-2 -40l-4 -38l-12 -38
l-11 -66l-5 -36l-10 -28l-3 -17l-14 -15l-15 3l-5 -37l-12 -21l-23 -26l-20 -23l-16 -27l-25 -25l-14 -3l-21 -20l-11 -15l-41 -14h-20l-38 -17h-49l-23 -3l-49 6l-70 20l-72 37l-72 52l-61 70l-38 46l-37 72l-32 102l-12 32l-5 66v46l2 21v69l15 75l9 15l2 23l41 125l20 34
l6 23l23 47l3 14l41 64l14 17l38 64l20 17l38 35l28 17h24l14 9l3 9h26l43 -12l29 -29l16 -41v-35l-11 -22l-7 -18v-20l-20 -67l-17 -66l-44 -107l-34 -130l-29 -122l-12 -124l9 -73l8 -34l40 -63l58 -36l29 -17l11 -3h27l17 12l38 31l31 56l44 89l55 139v9l20 60l43 128
l55 159l26 81l9 17l9 12v26l29 72l20 58l3 15l55 141l14 41l6 9l12 63l-3 12zM902 1703l6 11l46 -14l17 3l9 -9l17 -20l29 -26l18 -50v-49v-5l-26 -29l-12 -6l-20 -6l-52 9l-41 20l-43 37l-3 32l-9 12l23 69l21 15zM560 1711l32 6h3l17 -6l18 -8l17 3l-3 -15l21 -9l28 -26
l12 -14l29 -67l3 -14v-20v-6l-15 -23l-14 -18l-3 -3l-29 -5l-35 -3l-37 14l-18 9l-3 3l-49 35l-23 20l-3 11v26l-5 23l5 27l15 31z" />
    <glyph glyph-name="aacute" unicode="&#xe1;" horiz-adv-x="884" 
d="M695 566l-16 3l-64 -23l-91 -55l-114 -84l-73 -71l-56 -64l-34 -75l-4 -28l24 -13l100 81l116 103l137 135zM602 666l63 15h26l32 -37l4 -13l-18 -46l44 39h6l27 3l39 -11l10 -10l13 -20l6 -10l3 -50l-11 -26l6 -33l-48 -121l-38 -99v-9l-24 -43l-18 -76l-4 -29l-10 -3
v-33l-10 -23l3 -20l-8 -26l-3 -20l10 -10l5 -50l13 -20l6 -16l20 -17l23 -7l16 -4v-6l-26 -6l-10 -10h-10l-23 -16l-4 -10h-10l-36 4l-23 11l-49 50l-16 36l-15 37v13l-9 43l-12 86l8 96l11 69h-6v-7l-47 -55l-47 -45l-21 -33l-20 -19l-7 -7l-16 -16l-37 -29l-64 -39
l-69 -25l-33 4l-63 21l-49 24l-19 30l-13 27l-2 46l7 52l15 66l41 75l10 10l37 46l97 87l147 103l123 74zM823 1117l76 9h7l10 -7l3 -6l-9 -2l-7 -18l3 -6l-9 -4l-18 -9v-7l7 -8l-9 -9l5 -15l-9 -7v-6l26 4v-2l-30 -22l-5 -21l-15 -22l-13 -15l-24 -22l-22 -17l-82 -48
l-74 -33l-15 -2h-35l-24 7h-17l-11 6v9l-9 8l-10 29l2 11l-4 10l4 9l13 13v5l61 54l28 22l85 60l60 37z" />
    <glyph glyph-name="agrave" unicode="&#xe0;" horiz-adv-x="884" 
d="M695 566l-16 3l-64 -23l-91 -55l-114 -84l-73 -71l-56 -64l-34 -75l-4 -28l24 -13l100 81l116 103l137 135zM602 666l63 15h26l32 -37l4 -13l-18 -46l44 39h6l27 3l39 -11l10 -10l13 -20l6 -10l3 -50l-11 -26l6 -33l-48 -121l-38 -99v-9l-24 -43l-18 -76l-4 -29l-10 -3
v-33l-10 -23l3 -20l-8 -26l-3 -20l10 -10l5 -50l13 -20l6 -16l20 -17l23 -7l16 -4v-6l-26 -6l-10 -10h-10l-23 -16l-4 -10h-10l-36 4l-23 11l-49 50l-16 36l-15 37v13l-9 43l-12 86l8 96l11 69h-6v-7l-47 -55l-47 -45l-21 -33l-20 -19l-7 -7l-16 -16l-37 -29l-64 -39
l-69 -25l-33 4l-63 21l-49 24l-19 30l-13 27l-2 46l7 52l15 66l41 75l10 10l37 46l97 87l147 103l123 74zM456 1138l17 8l13 -2l15 2l3 -4h12l7 -9l32 -30l68 -74l32 -37l98 -108l54 -50l-2 -20l-6 -4l-9 4l-7 -4l-2 -2l-2 2h-2l-35 -7l-38 8l-38 5l-44 11l-33 19l-52 37
l-55 46l-39 43l-26 39l-23 67h4l2 24l4 11z" />
    <glyph glyph-name="acircumflex" unicode="&#xe2;" horiz-adv-x="884" 
d="M695 566l-16 3l-64 -23l-91 -55l-114 -84l-73 -71l-56 -64l-34 -75l-4 -28l24 -13l100 81l116 103l137 135zM602 666l63 15h26l32 -37l4 -13l-18 -46l44 39h6l27 3l39 -11l10 -10l13 -20l6 -10l3 -50l-11 -26l6 -33l-48 -121l-38 -99v-9l-24 -43l-18 -76l-4 -29l-10 -3
v-33l-10 -23l3 -20l-8 -26l-3 -20l10 -10l5 -50l13 -20l6 -16l20 -17l23 -7l16 -4v-6l-26 -6l-10 -10h-10l-23 -16l-4 -10h-10l-36 4l-23 11l-49 50l-16 36l-15 37v13l-9 43l-12 86l8 96l11 69h-6v-7l-47 -55l-47 -45l-21 -33l-20 -19l-7 -7l-16 -16l-37 -29l-64 -39
l-69 -25l-33 4l-63 21l-49 24l-19 30l-13 27l-2 46l7 52l15 66l41 75l10 10l37 46l97 87l147 103l123 74zM687 1154l24 7l17 -2l18 -7h11l19 -8l33 -24l21 -37l29 -102l13 -50l19 -50l-2 -2l6 -24l-4 -4l-2 -24l-2 -2l-9 6l-4 -2h-20l-2 2h-2h-2h-2l-66 89l-23 33l-39 73
l-3 -6l-13 -4l-6 -16l-33 -32l-43 -50l-15 -24l-76 -85l-22 -10l-11 -9l-17 -4l-22 -5h-28l-13 5l-9 10l-4 18l-4 9l2 4v2v22l32 54l52 67l48 57l74 73l43 33z" />
    <glyph glyph-name="adieresis" unicode="&#xe4;" horiz-adv-x="884" 
d="M695 566l-16 3l-64 -23l-91 -55l-114 -84l-73 -71l-56 -64l-34 -75l-4 -28l24 -13l100 81l116 103l137 135zM602 666l63 15h26l32 -37l4 -13l-18 -46l44 39h6l27 3l39 -11l10 -10l13 -20l6 -10l3 -50l-11 -26l6 -33l-48 -121l-38 -99v-9l-24 -43l-18 -76l-4 -29l-10 -3
v-33l-10 -23l3 -20l-8 -26l-3 -20l10 -10l5 -50l13 -20l6 -16l20 -17l23 -7l16 -4v-6l-26 -6l-10 -10h-10l-23 -16l-4 -10h-10l-36 4l-23 11l-49 50l-16 36l-15 37v13l-9 43l-12 86l8 96l11 69h-6v-7l-47 -55l-47 -45l-21 -33l-20 -19l-7 -7l-16 -16l-37 -29l-64 -39
l-69 -25l-33 4l-63 21l-49 24l-19 30l-13 27l-2 46l7 52l15 66l41 75l10 10l37 46l97 87l147 103l123 74zM812 1070l6 11l46 -14l17 3l9 -9l17 -20l29 -26l18 -50v-49v-5l-26 -29l-12 -6l-20 -6l-52 9l-41 20l-43 37l-3 32l-9 12l23 69l21 15zM470 1078l32 6h3l17 -6l18 -8
l17 3l-3 -15l21 -9l28 -26l12 -14l29 -67l3 -14v-20v-6l-15 -23l-14 -18l-3 -3l-29 -5l-35 -3l-37 14l-18 9l-3 3l-49 35l-23 20l-3 11v26l-5 23l5 27l15 31z" />
    <glyph glyph-name="atilde" unicode="&#xe3;" horiz-adv-x="884" 
d="M695 566l-16 3l-64 -23l-91 -55l-114 -84l-73 -71l-56 -64l-34 -75l-4 -28l24 -13l100 81l116 103l137 135zM602 666l63 15h26l32 -37l4 -13l-18 -46l44 39h6l27 3l39 -11l10 -10l13 -20l6 -10l3 -50l-11 -26l6 -33l-48 -121l-38 -99v-9l-24 -43l-18 -76l-4 -29l-10 -3
v-33l-10 -23l3 -20l-8 -26l-3 -20l10 -10l5 -50l13 -20l6 -16l20 -17l23 -7l16 -4v-6l-26 -6l-10 -10h-10l-23 -16l-4 -10h-10l-36 4l-23 11l-49 50l-16 36l-15 37v13l-9 43l-12 86l8 96l11 69h-6v-7l-47 -55l-47 -45l-21 -33l-20 -19l-7 -7l-16 -16l-37 -29l-64 -39
l-69 -25l-33 4l-63 21l-49 24l-19 30l-13 27l-2 46l7 52l15 66l41 75l10 10l37 46l97 87l147 103l123 74zM943 1137l24 9h17l-13 -35l4 -2v-2l-11 -11l-19 -35l-2 -17l-5 -13l-4 -3v-4l4 -2l-17 -41l2 -9v-2l9 -7l-5 -19l-6 -22l11 4v-4l-7 -7v-4l-15 -22l-2 -2l-4 -19
l-9 -16l-11 -6l-9 -6l-17 -11l-43 -20l-59 -9l-61 3l-50 17l-32 20l-24 23l-17 29l-20 45l-7 20l-17 -11l-30 -39l-13 -22l-2 -6l-16 -9l-2 -7l-17 -4l-11 -9h-2h-15l-9 -4h-20l-6 4l-2 7l-11 11l-15 17l6 4l-6 9v9l-2 15l6 30l28 61l26 41l41 33l35 24l22 11l17 -3l37 3
l24 -5l65 -39l41 -56l5 -15l-2 -5v-50l2 -2l11 -8h15l34 6l18 13l32 39l48 63l28 31l16 17z" />
    <glyph glyph-name="aring" unicode="&#xe5;" horiz-adv-x="884" 
d="M695 566l-16 3l-64 -23l-91 -55l-114 -84l-73 -71l-56 -64l-34 -75l-4 -28l24 -13l100 81l116 103l137 135zM602 666l63 15h26l32 -37l4 -13l-18 -46l44 39h6l27 3l39 -11l10 -10l13 -20l6 -10l3 -50l-11 -26l6 -33l-48 -121l-38 -99v-9l-24 -43l-18 -76l-4 -29l-10 -3
v-33l-10 -23l3 -20l-8 -26l-3 -20l10 -10l5 -50l13 -20l6 -16l20 -17l23 -7l16 -4v-6l-26 -6l-10 -10h-10l-23 -16l-4 -10h-10l-36 4l-23 11l-49 50l-16 36l-15 37v13l-9 43l-12 86l8 96l11 69h-6v-7l-47 -55l-47 -45l-21 -33l-20 -19l-7 -7l-16 -16l-37 -29l-64 -39
l-69 -25l-33 4l-63 21l-49 24l-19 30l-13 27l-2 46l7 52l15 66l41 75l10 10l37 46l97 87l147 103l123 74zM737 1027l-24 4l-51 -76l-7 -46l3 -28l3 -3l42 35l38 44v28zM673 1161l26 12l31 -7l15 -7l2 -3l14 -26v-12l10 -12l12 -7l26 -33l14 -10l22 -40l12 -27l2 -40l3 -31
v-17l-3 -14l-9 -17l-46 -43l-17 -12l-12 -7l-28 -19l-41 -7l-45 -3l-81 22l-34 28l-9 22l-7 43v38l7 41l17 35l-3 10l12 9l19 34l41 55l45 40z" />
    <glyph glyph-name="ccedilla" unicode="&#xe7;" horiz-adv-x="845" 
d="M617 654h8l18 -3l23 3h23l26 -15l20 -20l21 -23l20 -41v-43l-12 -17l-17 -18l-43 -6l-9 -3l-26 9l-23 12l-18 3l-5 -3l-24 -18l-52 -46l-69 -61l-52 -58l-61 -69l-52 -69l32 -3l89 8l200 44l116 34l87 35l5 -3v-5l3 -6v-3l-20 -26v-6l-14 -12l11 -5l-23 -36l-17 -8l9 -18
l-29 -26l-7 -12l-11 -10l-49 -26l-6 -9l-14 3l-15 -12l-35 -23l-31 -14h-12l-14 -21l-32 -5l-38 -9l-9 -9l-23 -3l-20 -8h-20l-12 -9l-11 -29v-17l75 -35l29 -17l32 -41l20 -67l-6 -20h-20l-18 -17l-34 -15l-6 -8h-12l-20 -18h-20l-35 -17l-133 -43l-81 -24h-32l-14 6v3h-12
l-9 3l-2 12h-15l-6 8l18 12l29 11l110 47l110 43l37 26l-11 3l-61 -6h-38v6l-11 15l-18 2l-3 6l-17 9l-9 6v26v20v12l61 95h-9l-34 18l-49 11l-41 20l-35 26l-43 32l-15 29l-5 3l-9 55l9 49l11 38l55 63l87 90l69 55l6 12l133 89l116 67l58 26h6z" />
    <glyph glyph-name="eacute" unicode="&#xe9;" horiz-adv-x="829" 
d="M617 551h-7l-45 -8l-63 -26l-79 -39l-80 -64l-40 -40l-55 -68l40 1l72 26l68 35l54 35l43 40l39 38zM577 652l63 20l63 -7l16 -16l7 -23l-7 -7l10 -30l-4 -41l-13 -26l-3 -12l-3 -10l-27 -36l-3 -13l-13 -17l-23 -20l-14 -11l-32 -32l-40 -39l-36 -30l-3 -10l-20 -10h-7
l-20 -16l-19 -10l-56 -40l-27 -10l-6 -9l-86 -33l-40 -4l-10 -29l4 -10l10 -17l46 -26l72 -20l79 -10l7 -7l132 -6l99 6l89 14l46 10h7v-7l-50 -30l-46 -23l-3 -6l-20 -7l-26 -3l-7 -10l-43 -17h-16l-7 -10l-13 -3l-17 3l-3 -3h-20l-10 -10l-42 -6l-27 -4l-39 -6l-24 3
l-3 -3h-36l-10 -7l-13 3h-20l-7 4h-26l-6 6h-14l-23 7l-6 3v4l-4 3h-23l-7 3l-13 -3l-13 10l-26 19l-30 30l-26 36l-27 60l-3 23l3 10l-9 36v7l-5 9l5 14v26l3 30l39 56l46 59l34 30l29 33l23 17l122 89l89 56zM810 1115l76 9h7l10 -7l3 -6l-9 -2l-7 -18l3 -6l-9 -4l-18 -9
v-7l7 -8l-9 -9l5 -15l-9 -7v-6l26 4v-2l-30 -22l-5 -21l-15 -22l-13 -15l-24 -22l-22 -17l-82 -48l-74 -33l-15 -2h-35l-24 7h-17l-11 6v9l-9 8l-10 29l2 11l-4 10l4 9l13 13v5l61 54l28 22l85 60l60 37z" />
    <glyph glyph-name="egrave" unicode="&#xe8;" horiz-adv-x="829" 
d="M617 551h-7l-45 -8l-63 -26l-79 -39l-80 -64l-40 -40l-55 -68l40 1l72 26l68 35l54 35l43 40l39 38zM577 652l63 20l63 -7l16 -16l7 -23l-7 -7l10 -30l-4 -41l-13 -26l-3 -12l-3 -10l-27 -36l-3 -13l-13 -17l-23 -20l-14 -11l-32 -32l-40 -39l-36 -30l-3 -10l-20 -10h-7
l-20 -16l-19 -10l-56 -40l-27 -10l-6 -9l-86 -33l-40 -4l-10 -29l4 -10l10 -17l46 -26l72 -20l79 -10l7 -7l132 -6l99 6l89 14l46 10h7v-7l-50 -30l-46 -23l-3 -6l-20 -7l-26 -3l-7 -10l-43 -17h-16l-7 -10l-13 -3l-17 3l-3 -3h-20l-10 -10l-42 -6l-27 -4l-39 -6l-24 3
l-3 -3h-36l-10 -7l-13 3h-20l-7 4h-26l-6 6h-14l-23 7l-6 3v4l-4 3h-23l-7 3l-13 -3l-13 10l-26 19l-30 30l-26 36l-27 60l-3 23l3 10l-9 36v7l-5 9l5 14v26l3 30l39 56l46 59l34 30l29 33l23 17l122 89l89 56zM458 1138l17 8l13 -2l15 2l3 -4h12l7 -9l32 -30l68 -74l32 -37
l98 -108l54 -50l-2 -20l-6 -4l-9 4l-7 -4l-2 -2l-2 2h-2l-35 -7l-38 8l-38 5l-44 11l-33 19l-52 37l-55 46l-39 43l-26 39l-23 67h4l2 24l4 11z" />
    <glyph glyph-name="ecircumflex" unicode="&#xea;" horiz-adv-x="829" 
d="M617 551h-7l-45 -8l-63 -26l-79 -39l-80 -64l-40 -40l-55 -68l40 1l72 26l68 35l54 35l43 40l39 38zM577 652l63 20l63 -7l16 -16l7 -23l-7 -7l10 -30l-4 -41l-13 -26l-3 -12l-3 -10l-27 -36l-3 -13l-13 -17l-23 -20l-14 -11l-32 -32l-40 -39l-36 -30l-3 -10l-20 -10h-7
l-20 -16l-19 -10l-56 -40l-27 -10l-6 -9l-86 -33l-40 -4l-10 -29l4 -10l10 -17l46 -26l72 -20l79 -10l7 -7l132 -6l99 6l89 14l46 10h7v-7l-50 -30l-46 -23l-3 -6l-20 -7l-26 -3l-7 -10l-43 -17h-16l-7 -10l-13 -3l-17 3l-3 -3h-20l-10 -10l-42 -6l-27 -4l-39 -6l-24 3
l-3 -3h-36l-10 -7l-13 3h-20l-7 4h-26l-6 6h-14l-23 7l-6 3v4l-4 3h-23l-7 3l-13 -3l-13 10l-26 19l-30 30l-26 36l-27 60l-3 23l3 10l-9 36v7l-5 9l5 14v26l3 30l39 56l46 59l34 30l29 33l23 17l122 89l89 56zM592 1160l24 7l17 -2l18 -7h11l19 -8l33 -24l21 -37l29 -102
l13 -50l19 -50l-2 -2l6 -24l-4 -4l-2 -24l-2 -2l-9 6l-4 -2h-20l-2 2h-2h-2h-2l-66 89l-23 33l-39 73l-3 -6l-13 -4l-6 -16l-33 -32l-43 -50l-15 -24l-76 -85l-22 -10l-11 -9l-17 -4l-22 -5h-28l-13 5l-9 10l-4 18l-4 9l2 4v2v22l32 54l52 67l48 57l74 73l43 33z" />
    <glyph glyph-name="edieresis" unicode="&#xeb;" horiz-adv-x="829" 
d="M617 551h-7l-45 -8l-63 -26l-79 -39l-80 -64l-40 -40l-55 -68l40 1l72 26l68 35l54 35l43 40l39 38zM577 652l63 20l63 -7l16 -16l7 -23l-7 -7l10 -30l-4 -41l-13 -26l-3 -12l-3 -10l-27 -36l-3 -13l-13 -17l-23 -20l-14 -11l-32 -32l-40 -39l-36 -30l-3 -10l-20 -10h-7
l-20 -16l-19 -10l-56 -40l-27 -10l-6 -9l-86 -33l-40 -4l-10 -29l4 -10l10 -17l46 -26l72 -20l79 -10l7 -7l132 -6l99 6l89 14l46 10h7v-7l-50 -30l-46 -23l-3 -6l-20 -7l-26 -3l-7 -10l-43 -17h-16l-7 -10l-13 -3l-17 3l-3 -3h-20l-10 -10l-42 -6l-27 -4l-39 -6l-24 3
l-3 -3h-36l-10 -7l-13 3h-20l-7 4h-26l-6 6h-14l-23 7l-6 3v4l-4 3h-23l-7 3l-13 -3l-13 10l-26 19l-30 30l-26 36l-27 60l-3 23l3 10l-9 36v7l-5 9l5 14v26l3 30l39 56l46 59l34 30l29 33l23 17l122 89l89 56zM708 1072l6 11l46 -14l17 3l9 -9l17 -20l29 -26l18 -50v-49v-5
l-26 -29l-12 -6l-20 -6l-52 9l-41 20l-43 37l-3 32l-9 12l23 69l21 15zM366 1080l32 6h3l17 -6l18 -8l17 3l-3 -15l21 -9l28 -26l12 -14l29 -67l3 -14v-20v-6l-15 -23l-14 -18l-3 -3l-29 -5l-35 -3l-37 14l-18 9l-3 3l-49 35l-23 20l-3 11v26l-5 23l5 27l15 31z" />
    <glyph glyph-name="iacute" unicode="&#xed;" horiz-adv-x="481" 
d="M256 532l30 13l19 -6l10 6h7l26 -23l13 -7l24 -46l3 -32v-34l-30 -62l-46 -152l-10 -96l-3 -33l19 -6l60 3l76 20l-14 -27v-9l-19 -33l-14 -14l4 -10l-23 -16h-7l-6 -13l-27 -10l-6 -7l-60 -36l-23 -17l-43 -6l-6 -3l-10 6l-40 17l-49 36l-30 36l-13 33l-13 73v89l13 53
l39 99l60 102l52 69zM572 1117l76 9h7l10 -7l3 -6l-9 -2l-7 -18l3 -6l-9 -4l-18 -9v-7l7 -8l-9 -9l5 -15l-9 -7v-6l26 4v-2l-30 -22l-5 -21l-15 -22l-13 -15l-24 -22l-22 -17l-82 -48l-74 -33l-15 -2h-35l-24 7h-17l-11 6v9l-9 8l-10 29l2 11l-4 10l4 9l13 13v5l61 54l28 22
l85 60l60 37z" />
    <glyph glyph-name="igrave" unicode="&#xec;" horiz-adv-x="481" 
d="M262 1138l17 8l13 -2l15 2l3 -4h12l7 -9l32 -30l68 -74l32 -37l98 -108l54 -50l-2 -20l-6 -4l-9 4l-7 -4l-2 -2l-2 2h-2l-35 -7l-38 8l-38 5l-44 11l-33 19l-52 37l-55 46l-39 43l-26 39l-23 67h4l2 24l4 11zM256 532l30 13l19 -6l10 6h7l26 -23l13 -7l24 -46l3 -32v-34
l-30 -62l-46 -152l-10 -96l-3 -33l19 -6l60 3l76 20l-14 -27v-9l-19 -33l-14 -14l4 -10l-23 -16h-7l-6 -13l-27 -10l-6 -7l-60 -36l-23 -17l-43 -6l-6 -3l-10 6l-40 17l-49 36l-30 36l-13 33l-13 73v89l13 53l39 99l60 102l52 69z" />
    <glyph glyph-name="icircumflex" unicode="&#xee;" horiz-adv-x="481" 
d="M256 532l30 13l19 -6l10 6h7l26 -23l13 -7l24 -46l3 -32v-34l-30 -62l-46 -152l-10 -96l-3 -33l19 -6l60 3l76 20l-14 -27v-9l-19 -33l-14 -14l4 -10l-23 -16h-7l-6 -13l-27 -10l-6 -7l-60 -36l-23 -17l-43 -6l-6 -3l-10 6l-40 17l-49 36l-30 36l-13 33l-13 73v89l13 53
l39 99l60 102l52 69zM439 1160l24 7l17 -2l18 -7h11l19 -8l33 -24l21 -37l29 -102l13 -50l19 -50l-2 -2l6 -24l-4 -4l-2 -24l-2 -2l-9 6l-4 -2h-20l-2 2h-2h-2h-2l-66 89l-23 33l-39 73l-3 -6l-13 -4l-6 -16l-33 -32l-43 -50l-15 -24l-76 -85l-22 -10l-11 -9l-17 -4l-22 -5
h-28l-13 5l-9 10l-4 18l-4 9l2 4v2v22l32 54l52 67l48 57l74 73l43 33z" />
    <glyph glyph-name="idieresis" unicode="&#xef;" horiz-adv-x="481" 
d="M256 532l30 13l19 -6l10 6h7l26 -23l13 -7l24 -46l3 -32v-34l-30 -62l-46 -152l-10 -96l-3 -33l19 -6l60 3l76 20l-14 -27v-9l-19 -33l-14 -14l4 -10l-23 -16h-7l-6 -13l-27 -10l-6 -7l-60 -36l-23 -17l-43 -6l-6 -3l-10 6l-40 17l-49 36l-30 36l-13 33l-13 73v89l13 53
l39 99l60 102l52 69zM571 1070l6 11l46 -14l17 3l9 -9l17 -20l29 -26l18 -50v-49v-5l-26 -29l-12 -6l-20 -6l-52 9l-41 20l-43 37l-3 32l-9 12l23 69l21 15zM229 1078l32 6h3l17 -6l18 -8l17 3l-3 -15l21 -9l28 -26l12 -14l29 -67l3 -14v-20v-6l-15 -23l-14 -18l-3 -3
l-29 -5l-35 -3l-37 14l-18 9l-3 3l-49 35l-23 20l-3 11v26l-5 23l5 27l15 31z" />
    <glyph glyph-name="ntilde" unicode="&#xf1;" horiz-adv-x="800" 
d="M685 180l-11 -33l3 -91l14 -45l31 -83l14 -28l11 -20l-17 -4l-13 -13l-13 14l-20 1v-6l-7 -3l-19 6l-27 7l-74 85l-37 121l-6 17l3 10l-10 26l7 106l-10 6l16 40l-3 7v10l7 6v58l8 41l3 30l6 38v19l-11 25l-18 15l-36 4l-43 -10l-14 -35l-12 -33l-17 -23l-17 -57l-13 -21
l-11 -37l-29 -68l-34 -78l-13 -30l-3 -16l-20 -46v-13l-10 -17l-23 -61l-6 -6l-13 -23l-20 -7v-10l-20 4h-40l-16 23l-7 6l-13 7l-16 20l-7 9l-13 4l-5 27l11 20l16 83l4 10l29 99l7 23l33 111l28 126l44 119l23 34l34 16l45 -2l3 -3l23 7l7 -4l26 -28l8 -26l56 42l23 17
l46 13l81 17l101 -37l6 -3l27 -23l3 -7l26 -35l8 -63l-4 -67l-6 -24l-14 -38l-20 -66l-15 -50l-9 -56l-8 -16l-6 -14l6 -6l2 -21v-23zM848 1140l24 9h17l-13 -35l4 -2v-2l-11 -11l-19 -35l-2 -17l-5 -13l-4 -3v-4l4 -2l-17 -41l2 -9v-2l9 -7l-5 -19l-6 -22l11 4v-4l-7 -7v-4
l-15 -22l-2 -2l-4 -19l-9 -16l-11 -6l-9 -6l-17 -11l-43 -20l-59 -9l-61 3l-50 17l-32 20l-24 23l-17 29l-20 45l-7 20l-17 -11l-30 -39l-13 -22l-2 -6l-16 -9l-2 -7l-17 -4l-11 -9h-2h-15l-9 -4h-20l-6 4l-2 7l-11 11l-15 17l6 4l-6 9v9l-2 15l6 30l28 61l26 41l41 33
l35 24l22 11l17 -3l37 3l24 -5l65 -39l41 -56l5 -15l-2 -5v-50l2 -2l11 -8h15l34 6l18 13l32 39l48 63l28 31l16 17z" />
    <glyph glyph-name="oacute" unicode="&#xf3;" horiz-adv-x="808" 
d="M568 539l-11 12l-14 -1l-19 -5l-12 -10l-23 -19l-26 -19l-45 -53l-35 -55l-30 -49l-38 -72l-28 -80l-2 -42l12 -20l21 -5l27 3l29 8l35 13l47 34l37 43l39 55l26 83l8 51l4 74zM497 730l42 23l20 -6l33 -3l40 -7l13 -17l13 -26v-7l-6 -6l9 -7l23 -33l-10 -20l17 -3
l-3 -10l13 -13l3 -30l19 -46l18 -69l3 -20l6 -26l7 -33l-7 -14l-6 -29l10 -30l-4 -13l-6 -40l-23 -62v-27l-13 -16l-24 -13l-6 -33l-40 -40l-17 -24l-44 -30l-34 -25l-17 -10v-7l-29 -23h-17l-10 -10l-10 4l-6 -7l-50 -16l-23 6l-3 -10h-7l-6 7l-20 -13h-7h-49l-10 6l-7 -3
l-61 11l-38 22l-30 16l-23 24l-16 19l-7 23l-6 7l-10 17v23l-4 36l-9 7l-1 24l-14 10l-2 18v20l13 7l-3 6v10l-3 43l3 30l33 66l13 39l17 10l6 30l112 155l40 40l26 29l76 66l20 10l18 15l28 12l10 -7l17 7zM722 1117l76 9h7l10 -7l3 -6l-9 -2l-7 -18l3 -6l-9 -4l-18 -9v-7
l7 -8l-9 -9l5 -15l-9 -7v-6l26 4v-2l-30 -22l-5 -21l-15 -22l-13 -15l-24 -22l-22 -17l-82 -48l-74 -33l-15 -2h-35l-24 7h-17l-11 6v9l-9 8l-10 29l2 11l-4 10l4 9l13 13v5l61 54l28 22l85 60l60 37z" />
    <glyph glyph-name="ograve" unicode="&#xf2;" horiz-adv-x="808" 
d="M568 539l-11 12l-14 -1l-19 -5l-12 -10l-23 -19l-26 -19l-45 -53l-35 -55l-30 -49l-38 -72l-28 -80l-2 -42l12 -20l21 -5l27 3l29 8l35 13l47 34l37 43l39 55l26 83l8 51l4 74zM497 730l42 23l20 -6l33 -3l40 -7l13 -17l13 -26v-7l-6 -6l9 -7l23 -33l-10 -20l17 -3
l-3 -10l13 -13l3 -30l19 -46l18 -69l3 -20l6 -26l7 -33l-7 -14l-6 -29l10 -30l-4 -13l-6 -40l-23 -62v-27l-13 -16l-24 -13l-6 -33l-40 -40l-17 -24l-44 -30l-34 -25l-17 -10v-7l-29 -23h-17l-10 -10l-10 4l-6 -7l-50 -16l-23 6l-3 -10h-7l-6 7l-20 -13h-7h-49l-10 6l-7 -3
l-61 11l-38 22l-30 16l-23 24l-16 19l-7 23l-6 7l-10 17v23l-4 36l-9 7l-1 24l-14 10l-2 18v20l13 7l-3 6v10l-3 43l3 30l33 66l13 39l17 10l6 30l112 155l40 40l26 29l76 66l20 10l18 15l28 12l10 -7l17 7zM357 1137l17 8l13 -2l15 2l3 -4h12l7 -9l32 -30l68 -74l32 -37
l98 -108l54 -50l-2 -20l-6 -4l-9 4l-7 -4l-2 -2l-2 2h-2l-35 -7l-38 8l-38 5l-44 11l-33 19l-52 37l-55 46l-39 43l-26 39l-23 67h4l2 24l4 11z" />
    <glyph glyph-name="ocircumflex" unicode="&#xf4;" horiz-adv-x="808" 
d="M568 539l-11 12l-14 -1l-19 -5l-12 -10l-23 -19l-26 -19l-45 -53l-35 -55l-30 -49l-38 -72l-28 -80l-2 -42l12 -20l21 -5l27 3l29 8l35 13l47 34l37 43l39 55l26 83l8 51l4 74zM497 730l42 23l20 -6l33 -3l40 -7l13 -17l13 -26v-7l-6 -6l9 -7l23 -33l-10 -20l17 -3
l-3 -10l13 -13l3 -30l19 -46l18 -69l3 -20l6 -26l7 -33l-7 -14l-6 -29l10 -30l-4 -13l-6 -40l-23 -62v-27l-13 -16l-24 -13l-6 -33l-40 -40l-17 -24l-44 -30l-34 -25l-17 -10v-7l-29 -23h-17l-10 -10l-10 4l-6 -7l-50 -16l-23 6l-3 -10h-7l-6 7l-20 -13h-7h-49l-10 6l-7 -3
l-61 11l-38 22l-30 16l-23 24l-16 19l-7 23l-6 7l-10 17v23l-4 36l-9 7l-1 24l-14 10l-2 18v20l13 7l-3 6v10l-3 43l3 30l33 66l13 39l17 10l6 30l112 155l40 40l26 29l76 66l20 10l18 15l28 12l10 -7l17 7zM559 1160l24 7l17 -2l18 -7h11l19 -8l33 -24l21 -37l29 -102
l13 -50l19 -50l-2 -2l6 -24l-4 -4l-2 -24l-2 -2l-9 6l-4 -2h-20l-2 2h-2h-2h-2l-66 89l-23 33l-39 73l-3 -6l-13 -4l-6 -16l-33 -32l-43 -50l-15 -24l-76 -85l-22 -10l-11 -9l-17 -4l-22 -5h-28l-13 5l-9 10l-4 18l-4 9l2 4v2v22l32 54l52 67l48 57l74 73l43 33z" />
    <glyph glyph-name="odieresis" unicode="&#xf6;" horiz-adv-x="808" 
d="M568 539l-11 12l-14 -1l-19 -5l-12 -10l-23 -19l-26 -19l-45 -53l-35 -55l-30 -49l-38 -72l-28 -80l-2 -42l12 -20l21 -5l27 3l29 8l35 13l47 34l37 43l39 55l26 83l8 51l4 74zM497 730l42 23l20 -6l33 -3l40 -7l13 -17l13 -26v-7l-6 -6l9 -7l23 -33l-10 -20l17 -3
l-3 -10l13 -13l3 -30l19 -46l18 -69l3 -20l6 -26l7 -33l-7 -14l-6 -29l10 -30l-4 -13l-6 -40l-23 -62v-27l-13 -16l-24 -13l-6 -33l-40 -40l-17 -24l-44 -30l-34 -25l-17 -10v-7l-29 -23h-17l-10 -10l-10 4l-6 -7l-50 -16l-23 6l-3 -10h-7l-6 7l-20 -13h-7h-49l-10 6l-7 -3
l-61 11l-38 22l-30 16l-23 24l-16 19l-7 23l-6 7l-10 17v23l-4 36l-9 7l-1 24l-14 10l-2 18v20l13 7l-3 6v10l-3 43l3 30l33 66l13 39l17 10l6 30l112 155l40 40l26 29l76 66l20 10l18 15l28 12l10 -7l17 7zM692 1072l6 11l46 -14l17 3l9 -9l17 -20l29 -26l18 -50v-49v-5
l-26 -29l-12 -6l-20 -6l-52 9l-41 20l-43 37l-3 32l-9 12l23 69l21 15zM350 1080l32 6h3l17 -6l18 -8l17 3l-3 -15l21 -9l28 -26l12 -14l29 -67l3 -14v-20v-6l-15 -23l-14 -18l-3 -3l-29 -5l-35 -3l-37 14l-18 9l-3 3l-49 35l-23 20l-3 11v26l-5 23l5 27l15 31z" />
    <glyph glyph-name="otilde" unicode="&#xf5;" horiz-adv-x="808" 
d="M554 539l-11 12l-14 -1l-19 -5l-12 -10l-23 -19l-26 -19l-45 -53l-35 -55l-30 -49l-38 -72l-28 -80l-2 -42l12 -20l21 -5l27 3l29 8l35 13l47 34l37 43l39 55l26 83l8 51l4 74zM483 730l42 23l20 -6l33 -3l40 -7l13 -17l13 -26v-7l-6 -6l9 -7l23 -33l-10 -20l17 -3
l-3 -10l13 -13l3 -30l19 -46l18 -69l3 -20l6 -26l7 -33l-7 -14l-6 -29l10 -30l-4 -13l-6 -40l-23 -62v-27l-13 -16l-24 -13l-6 -33l-40 -40l-17 -24l-44 -30l-34 -25l-17 -10v-7l-29 -23h-17l-10 -10l-10 4l-6 -7l-50 -16l-23 6l-3 -10h-7l-6 7l-20 -13h-7h-49l-10 6l-7 -3
l-61 11l-38 22l-30 16l-23 24l-16 19l-7 23l-6 7l-10 17v23l-4 36l-9 7l-1 24l-14 10l-2 18v20l13 7l-3 6v10l-3 43l3 30l33 66l13 39l17 10l6 30l112 155l40 40l26 29l76 66l20 10l18 15l28 12l10 -7l17 7zM862 1140l24 9h17l-13 -35l4 -2v-2l-11 -11l-19 -35l-2 -17
l-5 -13l-4 -3v-4l4 -2l-17 -41l2 -9v-2l9 -7l-5 -19l-6 -22l11 4v-4l-7 -7v-4l-15 -22l-2 -2l-4 -19l-9 -16l-11 -6l-9 -6l-17 -11l-43 -20l-59 -9l-61 3l-50 17l-32 20l-24 23l-17 29l-20 45l-7 20l-17 -11l-30 -39l-13 -22l-2 -6l-16 -9l-2 -7l-17 -4l-11 -9h-2h-15l-9 -4
h-20l-6 4l-2 7l-11 11l-15 17l6 4l-6 9v9l-2 15l6 30l28 61l26 41l41 33l35 24l22 11l17 -3l37 3l24 -5l65 -39l41 -56l5 -15l-2 -5v-50l2 -2l11 -8h15l34 6l18 13l32 39l48 63l28 31l16 17z" />
    <glyph glyph-name="uacute" unicode="&#xfa;" horiz-adv-x="689" 
d="M241 696l19 11h3l29 -7l18 -36v-48l-29 -116v-25l-18 -80l-25 -153v-101l11 -14l19 16l22 42l112 265l22 54l58 131l5 17l10 15l17 19h21l26 7h25l44 -11l14 -22l4 -29v-4l-4 -32l2 -22l-4 -26l-11 -49l-11 -45l-14 -41l-9 -38l-9 -31l-8 -36l-16 -90l-8 -78l5 -84
l14 -71l-19 -10l-17 6l-3 -13l-13 3l-8 -1l-10 9l-12 29l-8 33l-10 36l-5 80l-36 -73l-33 -40l-72 -69l-58 -32l-44 -8l-33 11l-36 18l-40 48l-29 79l-7 51l7 113l22 130l51 160l43 109zM692 1119l76 9h7l10 -7l3 -6l-9 -2l-7 -18l3 -6l-9 -4l-18 -9v-7l7 -8l-9 -9l5 -15
l-9 -7v-6l26 4v-2l-30 -22l-5 -21l-15 -22l-13 -15l-24 -22l-22 -17l-82 -48l-74 -33l-15 -2h-35l-24 7h-17l-11 6v9l-9 8l-10 29l2 11l-4 10l4 9l13 13v5l61 54l28 22l85 60l60 37z" />
    <glyph glyph-name="ugrave" unicode="&#xf9;" horiz-adv-x="689" 
d="M241 696l19 11h3l29 -7l18 -36v-48l-29 -116v-25l-18 -80l-25 -153v-101l11 -14l19 16l22 42l112 265l22 54l58 131l5 17l10 15l17 19h21l26 7h25l44 -11l14 -22l4 -29v-4l-4 -32l2 -22l-4 -26l-11 -49l-11 -45l-14 -41l-9 -38l-9 -31l-8 -36l-16 -90l-8 -78l5 -84
l14 -71l-19 -10l-17 6l-3 -13l-13 3l-8 -1l-10 9l-12 29l-8 33l-10 36l-5 80l-36 -73l-33 -40l-72 -69l-58 -32l-44 -8l-33 11l-36 18l-40 48l-29 79l-7 51l7 113l22 130l51 160l43 109zM319 1138l17 8l13 -2l15 2l3 -4h12l7 -9l32 -30l68 -74l32 -37l98 -108l54 -50l-2 -20
l-6 -4l-9 4l-7 -4l-2 -2l-2 2h-2l-35 -7l-38 8l-38 5l-44 11l-33 19l-52 37l-55 46l-39 43l-26 39l-23 67h4l2 24l4 11z" />
    <glyph glyph-name="ucircumflex" unicode="&#xfb;" horiz-adv-x="689" 
d="M241 696l19 11h3l29 -7l18 -36v-48l-29 -116v-25l-18 -80l-25 -153v-101l11 -14l19 16l22 42l112 265l22 54l58 131l5 17l10 15l17 19h21l26 7h25l44 -11l14 -22l4 -29v-4l-4 -32l2 -22l-4 -26l-11 -49l-11 -45l-14 -41l-9 -38l-9 -31l-8 -36l-16 -90l-8 -78l5 -84
l14 -71l-19 -10l-17 6l-3 -13l-13 3l-8 -1l-10 9l-12 29l-8 33l-10 36l-5 80l-36 -73l-33 -40l-72 -69l-58 -32l-44 -8l-33 11l-36 18l-40 48l-29 79l-7 51l7 113l22 130l51 160l43 109zM521 1160l24 7l17 -2l18 -7h11l19 -8l33 -24l21 -37l29 -102l13 -50l19 -50l-2 -2
l6 -24l-4 -4l-2 -24l-2 -2l-9 6l-4 -2h-20l-2 2h-2h-2h-2l-66 89l-23 33l-39 73l-3 -6l-13 -4l-6 -16l-33 -32l-43 -50l-15 -24l-76 -85l-22 -10l-11 -9l-17 -4l-22 -5h-28l-13 5l-9 10l-4 18l-4 9l2 4v2v22l32 54l52 67l48 57l74 73l43 33z" />
    <glyph glyph-name="udieresis" unicode="&#xfc;" horiz-adv-x="689" 
d="M241 696l19 11h3l29 -7l18 -36v-48l-29 -116v-25l-18 -80l-25 -153v-101l11 -14l19 16l22 42l112 265l22 54l58 131l5 17l10 15l17 19h21l26 7h25l44 -11l14 -22l4 -29v-4l-4 -32l2 -22l-4 -26l-11 -49l-11 -45l-14 -41l-9 -38l-9 -31l-8 -36l-16 -90l-8 -78l5 -84
l14 -71l-19 -10l-17 6l-3 -13l-13 3l-8 -1l-10 9l-12 29l-8 33l-10 36l-5 80l-36 -73l-33 -40l-72 -69l-58 -32l-44 -8l-33 11l-36 18l-40 48l-29 79l-7 51l7 113l22 130l51 160l43 109zM629 1075l6 11l46 -14l17 3l9 -9l17 -20l29 -26l18 -50v-49v-5l-26 -29l-12 -6l-20 -6
l-52 9l-41 20l-43 37l-3 32l-9 12l23 69l21 15zM287 1083l32 6h3l17 -6l18 -8l17 3l-3 -15l21 -9l28 -26l12 -14l29 -67l3 -14v-20v-6l-15 -23l-14 -18l-3 -3l-29 -5l-35 -3l-37 14l-18 9l-3 3l-49 35l-23 20l-3 11v26l-5 23l5 27l15 31z" />
    <glyph glyph-name="dagger" unicode="&#x2020;" 
d="M82 1351v-1337h655v1337h-655zM751 0h-683v1365h683v-1365z" />
    <glyph glyph-name="degree" unicode="&#xb0;" 
d="M82 1351v-1337h655v1337h-655zM751 0h-683v1365h683v-1365z" />
    <glyph glyph-name="cent" unicode="&#xa2;" horiz-adv-x="841" 
d="M410 417l29 166l-72 -71l3 -3l-18 -22l-51 -73l6 -3l53 -1zM780 1133l16 -19l4 -37l-36 -123l-18 -44l-9 -28l48 -6l37 -21l18 -31l1 -23l-4 -31l-35 5l-49 6l-45 -8l-10 -26l-8 -19l-78 -213l3 -7l-11 -12l-2 -27l51 14l54 11l87 25l14 6l-1 -10l-21 -16l7 -6l-16 -29
l-9 -33l-14 -15l-8 -16l7 -4l-5 -19l-48 -23l-4 -10l-21 -12l-122 -44l-7 -13l-18 -15l-8 -23l-6 4l-7 -6l-16 -32l-12 -39l-26 -124l-18 -68l-6 7l-7 -6l-12 -89l3 -3l-12 -16l6 -10l-4 -10l-4 -16l-8 -13l-16 -38l-3 -7l-8 31l-1 82l-5 20v47l5 118l17 148l-6 10l-54 -9
l-62 4l-55 14l-45 23l-25 22l-32 22l-21 28l-8 20l-4 47l11 55l30 48l55 75l117 114l101 83l97 62l51 26l40 90l56 89l33 44l17 19l28 30l24 14l30 -6z" />
    <glyph glyph-name="sterling" unicode="&#xa3;" horiz-adv-x="1207" 
d="M296 241l-29 -1l-46 -10l-23 -17l-23 -37l-19 -53l-7 -47v-27l14 -38l42 -26l20 -7l17 6l32 24l55 67l49 75l17 38l24 32l-50 12zM893 1013l36 17l37 -2l36 -3l23 -13l34 -29l10 -39l-22 -20l-24 -1h-16l-27 16l-26 -1l-52 -40l-55 -60l-71 -98l-3 -9l26 -3h33l40 -2h7
l105 -21l140 -47l83 -42v-6l-13 -11l-7 7l-19 -14l-7 -6l-10 3l-36 -11l10 -10l-43 -7l-45 -10l-17 -7l-23 2h-33l-16 -7l-17 3l-46 -7l-32 -24l-27 -7l-75 -25l-33 -3l-46 -11l-33 -4l-30 -14l-6 -3l3 -17l-6 -3l-29 -43l-19 -44v-9l147 -80l137 -104l110 -106l50 -29
l4 -13l47 -20l3 -6l-16 -10h-13l-13 -7l-24 -1l-29 10l-47 25h-23l-7 10l-63 32l-44 29l-99 47l-30 13l-27 13l-113 54l-17 3l-32 -50l-16 -17l-6 -13l-46 -54l-3 -6l-84 -91l-39 -24l-43 -20l-9 -14l-37 -10l-29 2l-23 -6l-20 -1l-27 10l-23 19l-17 23l-4 33l2 59l19 103
l34 93l26 40l39 30l39 30l75 25l76 11l66 1l63 -9l28 93l3 14l-109 -6l-62 -1l-43 13l-24 9l-20 20l-13 16l-7 20l2 49l17 7l16 17l144 65l36 14l69 18l56 7l46 7l41 71l52 73l78 77l78 57z" />
    <glyph glyph-name="section" unicode="&#xa7;" 
d="M82 1351v-1337h655v1337h-655zM751 0h-683v1365h683v-1365z" />
    <glyph glyph-name="bullet" unicode="&#x2022;" horiz-adv-x="717" 
d="M400 847q52 0 97 -19q47 -19 80 -53q34 -33 53 -80q19 -45 19 -97q0 -69 -33 -126q-35 -57 -91 -90q-56 -34 -126 -34q-69 0 -125 34q-57 33 -90 90q-34 56 -34 126t34 126q33 56 90 90q57 33 126 33z" />
    <glyph glyph-name="paragraph" unicode="&#xb6;" 
d="M82 1351v-1337h655v1337h-655zM751 0h-683v1365h683v-1365z" />
    <glyph glyph-name="germandbls" unicode="&#xdf;" horiz-adv-x="1075" 
d="M527 1188l74 10l57 -2l92 -23l73 -40l31 -27l38 -41l38 -54l28 -69l11 -37l3 -35l-20 -51l-3 -17l-54 -66l-4 -7l-34 -17l-23 -18l-11 -7l-17 -3l-11 -21l24 -20l72 -47l62 -61l49 -65l21 -48l11 -68l-5 -51l-12 -28l-6 -28l-29 -33l-40 -39l-25 -22l-19 -22l-35 -30
l-9 -2l-24 -21l-13 -7l-31 -17l-49 -24l-57 -19l-58 -7l-20 -7l-38 -4l-45 -7l-10 3l-21 -7l-144 16l-34 24l-7 20l3 21l-7 17l7 10l-1 28h7l4 10l28 -30l33 -22l49 -10h63l65 8l60 8l44 16l40 19l56 30l30 33l21 36l17 33l10 28v41l-11 31l-10 27l-38 37l-31 24l-66 17
l-34 3l-106 -28l-27 -8l-42 17l-17 3l-10 7l-35 41l-7 7l4 14l-14 27l13 28v10l7 6l-4 18l10 7l14 27l10 7l28 14l-1 14l18 7h34l20 4l14 14l14 -4l41 14l27 11l59 61l34 31l14 21l3 45l-25 51l-19 35l-44 25l-49 3l-52 -3l-54 -25l-38 -38l-25 -35l-22 -55l-29 -81
l-90 -295l-10 -38l-37 -144l-23 -52l-14 -38l-23 -103l-3 -31l-10 -51l-22 -158l-7 -34l-24 -31l-26 -59l-4 -7l-37 -7l-11 14l4 7l-8 37l-7 24l29 295l35 223l73 299l54 169l51 162l22 51l8 20l22 44l38 41l33 38l30 22l25 14z" />
    <glyph glyph-name="registered" unicode="&#xae;" 
d="M82 1351v-1337h655v1337h-655zM751 0h-683v1365h683v-1365z" />
    <glyph glyph-name="copyright" unicode="&#xa9;" 
d="M82 1351v-1337h655v1337h-655zM751 0h-683v1365h683v-1365z" />
    <glyph glyph-name="trademark" unicode="&#x2122;" 
d="M82 1351v-1337h655v1337h-655zM751 0h-683v1365h683v-1365z" />
    <glyph glyph-name="acute" unicode="&#xb4;" horiz-adv-x="681" 
d="M449 1739l76 9h7l10 -7l3 -6l-9 -2l-7 -18l3 -6l-9 -4l-18 -9v-7l7 -8l-9 -9l5 -15l-9 -7v-6l26 4v-2l-30 -22l-5 -21l-15 -22l-13 -15l-24 -22l-22 -17l-82 -48l-74 -33l-15 -2h-35l-24 7h-17l-11 6v9l-9 8l-10 29l2 11l-4 10l4 9l13 13v5l61 54l28 22l85 60l60 37z" />
    <glyph glyph-name="dieresis" unicode="&#xa8;" horiz-adv-x="814" 
d="M536 1703l6 11l46 -14l17 3l9 -9l17 -20l29 -26l18 -50v-49v-5l-26 -29l-12 -6l-20 -6l-52 9l-41 20l-43 37l-3 32l-9 12l23 69l21 15zM194 1711l32 6h3l17 -6l18 -8l17 3l-3 -15l21 -9l28 -26l12 -14l29 -67l3 -14v-20v-6l-15 -23l-14 -18l-3 -3l-29 -5l-35 -3l-37 14
l-18 9l-3 3l-49 35l-23 20l-3 11v26l-5 23l5 27l15 31z" />
    <glyph glyph-name="notequal" unicode="&#x2260;" 
d="M82 1351v-1337h655v1337h-655zM751 0h-683v1365h683v-1365z" />
    <glyph glyph-name="AE" unicode="&#xc6;" horiz-adv-x="1367" 
d="M585 972h-6l-36 -98l-3 -9l-15 -56l-7 -8l-9 -34l-16 -36l-17 -51l-13 -45l-13 -62l29 -3l105 1v81l3 67l2 69l3 29l-1 44l4 69l-3 29zM719 -56l-23 14l-39 45l-17 23l-9 21l-7 39l-8 31l-5 40l-11 36l-5 64l-6 24l-9 59l-24 -6l-49 -1l-6 -5l-64 4l-49 5l-24 -3l-21 -39
l-1 -32l-15 -39l-12 -30l-5 -17l-7 -8l-15 -37l-4 -5l-11 -31l-7 -28l-11 -31l-21 -33l-5 -17l-21 -32l-14 -25l-16 -16l-21 -4l-16 -10l-29 -2l-17 2l-19 13l-13 19l-5 9l-1 38l-2 9l6 63l10 40l35 111l14 50l35 107l16 42l10 13l2 20l-21 46l-1 18l12 7l-5 12l9 23l3 8
l22 9l8 -8l25 5l22 62l4 5l4 17l46 103l22 44l2 12l51 105l18 33l31 67l23 55l42 95l7 11l7 16l48 97l19 39l33 66l32 49l21 10l17 1l4 5l57 -9l34 -9l5 -6l20 -5l44 -28l47 -81l8 -1l14 -59l-6 -32l-5 -53l25 11l29 6l6 -5l19 16l14 2l49 5l25 11l69 13l48 8l47 2l54 6
l29 3l10 -8l20 -3l8 12l8 4l24 -4l18 -1l19 6l24 -7l5 4l70 1l21 -3l30 -3l7 -11l16 8l30 -3l3 -3l-2 -12l3 1l6 -6l-10 -9l-47 -4l-32 -7l-17 -5l-26 -11l-18 4l-20 -2l-25 -9l-25 -14l-9 5l-40 -7l-102 -25l-45 -11l-6 -3l-6 2l-23 -2l-11 -4l-34 -13l-38 -1l-13 -7l-21 7
l-11 -13l-22 -8l-71 -23l-50 -8l5 -49l-2 -41l-6 -35l2 -30l5 -36l10 -114l2 -33l-6 -46l3 -59l86 15l8 -2l43 11l25 8h26l6 6l34 1l11 7l16 -4l10 10l9 -2l26 5l10 7l13 -7l-2 -9l20 2l17 -28l-14 -35l-25 -2l-72 -13l-16 -8v-6l-17 -7l-31 -4l-14 -10l-51 -8l-8 -7
l-75 -11l-38 -9l-12 -84l8 -59l-5 -10l-4 -73l-1 -41l-1 -17l5 -46l-2 -18l15 -54l39 -36l27 -12l36 -11l27 -6l36 -8l50 -6l21 -9l26 2l32 -2l15 -1l7 -8l13 7l6 3l15 -10l2 -17l9 4l1 -12l-11 -13l-7 -9l-15 4l-18 -25l-30 -20l-18 -17l-8 -7l-101 -13l-11 -7l-11 -4
l-37 -4l-26 -3l-23 -2h-26h-24h-35l-18 4l-9 7l-8 -3l-39 10l-16 7l-29 26l-31 16z" />
    <glyph glyph-name="Oslash" unicode="&#xd8;" horiz-adv-x="1201" 
d="M389 163l3 -3l37 108l87 197l104 212l140 247l-34 31l-46 -6l-35 -11l-39 -51l-43 -90l-61 -125l-18 -22l-13 -54l-18 -31l-21 -63l-9 -9l-33 -68l-37 -88l1 -83l17 -69zM900 755l-8 15l-126 -232l-49 -90l-31 -62l-24 -39l-11 -41l-21 -21l-41 -87l-14 -28l-21 -52
l-10 -17l77 -2l14 4l26 5l49 5l71 32l31 22l35 13l31 41l30 85l22 76l4 35l22 32l-9 13l4 89l-28 133zM862 1081l1 -4l108 149l52 56l45 31l28 17h28l34 -31l4 -24l-4 -25v-24l-31 -66l-55 -101l-71 -118l13 -21h12l9 -17l5 -12l15 -28l24 -52l20 -15l9 -26l3 -37l9 -3
l15 -75l3 -6l12 -43l6 -44l12 -24l12 -45v-23l-2 -67l-14 -37l-3 -41l-20 -58l-14 -49l-11 -12v-14l-9 -18l-23 -26l6 -11l-5 -9l-20 -12l-28 -34l-47 -36l-52 -29l-32 -27l-31 -6l-29 -9l-9 -9l-34 -17l-41 -3l-26 -12l-23 -6l-20 2l-26 -11l-81 7l-70 14l-47 19l-40 -98
l-21 -38l-21 -59l-14 -24h-6l-28 -35l-18 3l-21 11l-3 35l11 59l20 125l22 79l-23 12l-37 28l-56 52l-44 63l-32 60l-24 84l-9 46l2 99l5 55l22 84l38 81l14 27l28 46l14 17l9 18l69 96l23 32l83 105l31 35l23 15l17 26l23 12l17 20l21 9l23 23l25 12l18 12l75 21l6 6h23
l11 6l29 -6l20 3l15 -11l15 -15l3 -11l14 -23l15 -6v-9v-34z" />
    <glyph glyph-name="infinity" unicode="&#x221e;" 
d="M82 1351v-1337h655v1337h-655zM751 0h-683v1365h683v-1365z" />
    <glyph glyph-name="plusminus" unicode="&#xb1;" 
d="M82 1351v-1337h655v1337h-655zM751 0h-683v1365h683v-1365z" />
    <glyph glyph-name="lessequal" unicode="&#x2264;" 
d="M82 1351v-1337h655v1337h-655zM751 0h-683v1365h683v-1365z" />
    <glyph glyph-name="greaterequal" unicode="&#x2265;" 
d="M82 1351v-1337h655v1337h-655zM751 0h-683v1365h683v-1365z" />
    <glyph glyph-name="yen" unicode="&#xa5;" horiz-adv-x="1197" 
d="M1099 1274l30 23l20 -10l3 -9l-3 -30h6l-13 -36l-13 -23v-14l-10 -23l-20 -16v-20l13 -10l17 3l10 -9l-89 -116l-23 -40l-20 -56l-50 -79l-36 -53l-7 -16l-46 -69l-20 -24l-9 -16l-27 -30l7 -10h43h128l70 -3l79 -16l6 -7l43 -13l30 -10l-3 -10l10 -13l-10 -10l-14 -3
h-23l-6 -4l3 -16l-43 3l-10 -3v-17l10 -6v-7l-16 -7v-6l-56 -6l-50 -10l-53 -4l-69 -3l-10 -7l-66 -6l-102 -17l-69 -16l-14 -30l-13 -46l-6 -10l3 -10l-10 -20l-30 -115l-16 -83l-7 -10l-3 -29l-13 -30l-3 -48l-19 -47l-18 -50l-6 -3l-7 -33l-7 -7l-6 -26l-7 -39l-3 -51
l-4 -26v-33l-3 -29l-10 -10l-3 -14l-13 -9l-13 16l-23 39l-4 24l-13 26l-10 92v159l7 142l10 79l23 132l10 59l-162 -36l-69 -10l-50 3l-23 3l-36 14l-26 20l-20 23l-4 23l10 26l37 27l128 52l152 53l-26 69l-23 83l-14 95l-3 53l3 116l7 86l23 59l10 23l33 26l20 10l13 3
l23 -3l7 -10h6l30 -16l23 -20l33 -86l13 -62v-73l7 -33v-33v-139l19 -11l24 25l88 92l179 208l99 112l145 158z" />
    <glyph glyph-name="mu" unicode="&#xb5;" 
d="M82 1351v-1337h655v1337h-655zM751 0h-683v1365h683v-1365z" />
    <glyph glyph-name="partialdiff" unicode="&#x2202;" 
d="M82 1351v-1337h655v1337h-655zM751 0h-683v1365h683v-1365z" />
    <glyph glyph-name="summation" unicode="&#x3a3;" 
d="M82 1351v-1337h655v1337h-655zM751 0h-683v1365h683v-1365z" />
    <glyph glyph-name="product" unicode="&#x220f;" 
d="M82 1351v-1337h655v1337h-655zM751 0h-683v1365h683v-1365z" />
    <glyph glyph-name="pi" unicode="&#x3c0;" 
d="M82 1351v-1337h655v1337h-655zM751 0h-683v1365h683v-1365z" />
    <glyph glyph-name="integral" unicode="&#x222b;" 
d="M82 1351v-1337h655v1337h-655zM751 0h-683v1365h683v-1365z" />
    <glyph glyph-name="ordfeminine" unicode="&#xaa;" 
d="M82 1351v-1337h655v1337h-655zM751 0h-683v1365h683v-1365z" />
    <glyph glyph-name="ordmasculine" unicode="&#xba;" 
d="M82 1351v-1337h655v1337h-655zM751 0h-683v1365h683v-1365z" />
    <glyph glyph-name="Omega" unicode="&#x3a9;" 
d="M82 1351v-1337h655v1337h-655zM751 0h-683v1365h683v-1365z" />
    <glyph glyph-name="ae" unicode="&#xe6;" horiz-adv-x="1257" 
d="M1052 499l-23 17l-99 -66l-76 -63l-34 -21l-27 -30l-28 -36l66 11l49 30l79 49l60 46l33 53v10zM682 550h-9l-65 -23l-91 -55l-114 -84l-73 -71l-56 -64l-34 -76l8 -13l12 -3l100 81l111 104l144 142zM847 557l3 -50l130 94l46 17l62 -3l30 -14l23 -16l30 -46l6 -33v-43
l-3 -30l-17 -69l4 -10l-40 -59l-53 -50l-92 -59l-53 -27l-29 -3l-60 -7l-23 4l73 -37l43 -13l46 -6h49l116 6l66 10l3 -7l23 4v-7l-13 -3l3 -7l-23 -19l-30 -10h-3l7 -17l-37 -10l-10 -6l-23 -4l-13 -19l-39 -10l-37 -4l-3 -10l7 -13l-145 -10h-23l-11 -6l-56 6l-49 17
l-36 13l-35 9l-35 37l-41 26l-30 43l-12 44l12 69h-7l-47 -62l-47 -45l-21 -33l-20 -19l-23 -23l-37 -29l-63 -39l-70 -25l-33 4l-63 21l-49 24l-19 30l-13 27l-2 46l7 52l15 66l41 75l10 10l37 46l97 87l147 103l123 74l77 38l63 15h26l33 -37l3 -13l-17 -46l43 39h7l26 2
l40 -10l9 -10l10 -4l3 -16z" />
    <glyph glyph-name="oslash" unicode="&#xf8;" horiz-adv-x="995" 
d="M772 365l13 47l-56 -44l-7 -6l-26 -17v-7l-62 -59l-72 -77l-26 -30l-29 -33l-30 -34l-32 -30l-14 -23l4 -13l7 -3l36 3l43 14l82 57l36 33l16 17l36 43l32 50zM1155 803l63 5h26l24 -20l-17 -13h-10l3 -10h7l7 -10l-53 -17l-23 -20l-27 -22l-19 -27l-30 -27l-30 -26
l-16 -4l-20 -10l-19 -23l-53 -34l-29 -20l-33 -27l-7 -6l1 -89l4 -27l-13 -59l-16 -56l-10 -20l-16 -43l-13 -17l-16 -26l-39 -50l-23 -27l-59 -60l-20 -16l-49 -34l-62 -33l-27 -7l-49 -24l-112 -14l-66 10l-43 19l-29 -30l-17 -7l-16 -23l-59 -57l-20 -16l-16 -14l-66 -30
l-39 -3l-37 9l-16 7l-10 29l-1 23l10 27l7 13l16 26l46 54l84 112l7 11l-31 72l-3 33l9 40l26 69l46 66l78 97l23 23l92 96l55 44l37 17l23 -7l-10 -46l-29 -43l-20 -30l-19 -36l-56 -80l-32 -73l-6 -30l13 4l92 93l117 103l171 127l52 33l-10 10l-16 7l-14 10l-26 -4h-40
l-13 9h-16l6 17l56 23l66 11l53 -9l40 -27l151 74l58 27z" />
    <glyph glyph-name="questiondown" unicode="&#xbf;" 
d="M815 1056l-33 -22l-62 26l-35 2l-30 19l-11 -7l-7 4l-15 29l-14 21l-8 -10l-7 3l-7 11l-22 26l4 14l-7 15h7v7l-11 25l4 33l-4 14l11 -3v3l-4 11l26 15l32 7l18 25l37 -3h7l51 -18l51 -33l14 -18l15 -11l11 -11v-14l32 -18l22 -11l-7 -11v-11l-8 -11l4 -15l-7 -7h-11
l7 -14l-11 -8l7 -25l-7 -4h-18v-7zM446 -12l-75 -8l-75 4l-70 22l-41 23l-53 44l-22 23l-19 63l-14 79l7 29l7 8l4 18l30 23l37 26l19 15l33 3l19 19l71 52h4l29 30l19 11h4l89 93l37 56l12 30l44 108l12 75v11l3 45l4 7l-4 34l-3 7l3 34l4 3v12h15l11 11l19 18l7 -3l23 22
l26 -11l5 -38l18 -46l33 -67l19 -79v-89l-23 -78l-33 -90l-60 -93l-67 -78l-44 -45l-94 -78l-11 -15l67 6h126h30l11 -4l41 -41l4 -30l4 -11l-11 -26l-15 -22l-41 -34l-112 -56z" />
    <glyph glyph-name="exclamdown" unicode="&#xa1;" horiz-adv-x="683" 
d="M529 1420l18 11l61 -25l15 3v11l22 4l-8 -18l11 -15l4 4v11h7l15 -22l10 7l8 -4l14 -29l15 -21l7 11l7 -4l8 -11l21 -25l-3 -15l3 -22l7 -25l-3 -33l-4 -25l-25 -15l-33 -7l-18 -25l-43 3l-51 18l-51 33l-14 18l-15 11l-11 11v15l-33 18l-21 10l7 12v11l7 10l-3 15l7 7
h11l-8 15l11 7l-7 25l7 4h18v7l18 25l8 4h4zM256 -22l-36 13l-27 34l-12 46l13 50l19 141l25 172l47 180l55 163l66 170l46 81l53 68l26 15l9 -14l12 -3l12 -24l-11 -32l10 -6l-15 -40l-20 -40l-20 -62l-1 -60l-3 -12l-2 -25l-5 -36l-12 -6l2 -18l-9 -8l4 -15l-30 -122
l-4 -15l-24 -177l11 -11l-27 -162l-17 -77l-39 -125l-20 -32l-12 -5z" />
    <glyph glyph-name="logicalnot" unicode="&#xac;" 
d="M82 1351v-1337h655v1337h-655zM751 0h-683v1365h683v-1365z" />
    <glyph glyph-name="radical" unicode="&#x221a;" 
d="M82 1351v-1337h655v1337h-655zM751 0h-683v1365h683v-1365z" />
    <glyph glyph-name="florin" unicode="&#x192;" 
d="M82 1351v-1337h655v1337h-655zM751 0h-683v1365h683v-1365z" />
    <glyph glyph-name="approxequal" unicode="&#x2248;" 
d="M82 1351v-1337h655v1337h-655zM751 0h-683v1365h683v-1365z" />
    <glyph glyph-name="Delta" unicode="&#x2206;" 
d="M82 1351v-1337h655v1337h-655zM751 0h-683v1365h683v-1365z" />
    <glyph glyph-name="guillemotleft" unicode="&#xab;" horiz-adv-x="984" 
d="M798 746l26 7l36 -13l10 -3l16 -26l13 -46l-3 -23l-23 -42l-29 -29l-13 -23l-79 -62l-101 -93l34 -40l16 -22l58 -69l13 -22l10 -26l10 -33v-16l-23 -3l-49 -33l-32 -6l-46 29l-10 3l-9 -6l-49 26l-84 91l-26 58l-7 43l17 64l22 46l85 91l123 107zM529 756l29 10h3
l29 -10l20 -10l10 -35l-4 -33l-6 -13l-68 -62l-111 -84l-120 -110l-19 -33v-13l9 -19l65 -62l52 -49l16 -16l20 -23l13 -32l3 -36l-3 -10l-16 -16l-26 -3l-13 3l-23 -16h-26l-39 16l-117 85l-29 32l-29 36l-26 61v30l6 42l20 39l42 65l146 133l97 75l82 52z" />
    <glyph glyph-name="guillemotright" unicode="&#xbb;" horiz-adv-x="984" 
d="M508 741l32 20l29 -3l15 -11l8 -6h9l17 -23l93 -58l58 -38l17 -11l61 -70l35 -58l8 -20v-8l9 -15l-3 -20l6 -9l-6 -52l-3 -26l-6 -3l-14 -17l-52 -44l-66 -31l-27 -18l-9 -3l-20 -3l-17 12l-18 -6l-2 -14l-21 -3l-5 -9l-21 -3l-52 -11l-20 -6h-9l-23 -3l-17 -6l-35 -11
l-49 -29l-6 5l-46 -26l-44 -14l-8 -6h-23v29l8 41l26 46l41 32l75 40l174 70l52 20l24 17l-86 69l-50 54l-24 45l-20 28l-15 24l-9 52l-5 18v17l8 23l15 26zM128 103l-26 -6l-36 13l-26 29l-13 45l4 23l22 42l30 30l12 22l92 62l120 79l-65 54l-17 23l-58 68l-13 23l-10 26
l-9 32v17l22 3l49 32l32 7l46 -30l10 -3l9 7l48 -51l73 -77l68 -98l11 -49l-32 -55l-60 -35l-65 -54l-124 -107z" />
    <glyph glyph-name="ellipsis" unicode="&#x2026;" horiz-adv-x="2048" 
d="M253 246l19 11l61 -25h11l4 3v11l22 4l-8 -18l8 -11h7v11h7l15 -22l11 7l7 -4l14 -29l15 -21l7 11l7 -4l8 -11l21 -25l-3 -15l3 -22l8 -25l-4 -33l-4 -25l-25 -15l-33 -7l-18 -25l-36 3h-7l-51 19l-51 32l-15 18l-18 4l4 7l-11 11v15l-33 18l-22 11l8 11v11l7 10l-3 15
l7 7h11l-8 15l11 7l-7 25l7 4h18v7l15 18zM947 246l18 11l62 -25h11l3 3v11l22 4l-7 -18l7 -11l4 -4l4 4v11h7l14 -22l11 7l8 -4l14 -29l15 -21l7 11l7 -4l7 -11l22 -25l-3 -15l7 -14h-7v-8l10 -25l-3 -33l3 -14l-10 3v-3l3 -11l-25 -15l-33 -7l-18 -25l-36 3h-8l-51 19
l-50 32l-15 18l-18 4l4 7l-11 11v15l-33 18l-22 11l8 11v11l7 10l18 44l-7 25l7 4h18v7l15 18zM1631 246l18 11l61 -25l15 3v11l22 4l-7 -18l10 -15l4 4v11h7l15 -22l11 7l7 -4l15 -29l10 -21h4l7 11l8 -4l7 -11l18 -22l4 -3l-4 -15l11 -47l-4 -33l4 -14l-11 3v-3l4 -11
l-26 -15l-32 -7l-19 -25l-36 3h-7l-51 19l-51 32l-14 18l-18 4l3 7l-11 11v15l-32 18l-22 11l4 11h3v11l7 10l-3 15l7 7h11l-7 15l11 7l-8 25l8 4l14 -4l4 4v7l14 18z" />
    <glyph glyph-name="nonbreakingspace" unicode="&#xa0;" horiz-adv-x="410" 
 />
    <glyph glyph-name="Agrave" unicode="&#xc0;" horiz-adv-x="817" 
d="M486 902l-15 -57l-12 -35l-9 -58l-6 -9l-5 -34l-12 -38l-11 -52l-9 -47v-34l23 -6l81 -6l13 1l-1 71l-3 48l4 47v63l-5 93v79l-6 66zM523 1373l23 8l55 -3l35 -5l5 -6l21 -3l46 -23l64 -76l23 -36v-8l-3 -23l8 -24l3 -81l-3 -29v-29v-5l-5 -41l-3 -58l-3 -52l-12 -86
l-3 -27l-14 -60l-6 -15l-3 -37l-8 -38v-26l-6 -6v-20l-3 -9l6 -8l-18 -32v-9l18 -20v-18h8l-8 -37l-6 -15l6 -26l-9 -8l3 -18v-34l-12 -6l-6 -3l6 -35l6 -9l-3 -26l6 -20l-6 -6l3 -17l-3 -26l20 -119l6 -20l-3 -12l12 -37l-3 -29l3 -58l6 -15l-6 -8l3 -15l6 -29l8 -11
l-3 -20l9 -47l9 -34v-21l11 -43l-3 -35l-33 57l-30 62v6l-12 26l-35 69l-11 35l-26 66l-3 26l-17 38l-15 32l-14 66l-15 35l-11 64l-9 23l-15 58l-23 -9l-49 -6l-6 -5l-63 -3h-50l-23 -6l-17 -41l3 -31l-12 -41l-8 -32l-3 -17l-6 -9l-15 -43l-2 -20l-6 -12l-3 -29l-9 -32
l-17 -35l-3 -17l-17 -35l-12 -26l-15 -17l-20 -6l-14 -11l-29 -6h-17l-21 11l-20 26l-6 38l-3 9v63l6 41l20 118l12 47l23 110l12 43l8 15v20l-26 43l-3 18l12 8l-6 12l6 23l3 17v3l32 9l23 12l14 43l6 23l35 107l11 44l6 3v11l41 110l14 35l23 69l18 58l32 98l5 12l6 17
l38 102l11 18l27 70l26 52zM467 1766l17 8l13 -2l15 2l3 -4h12l7 -9l32 -30l68 -74l32 -37l98 -108l54 -50l-2 -20l-6 -4l-9 4l-7 -4l-2 -2l-2 2h-2l-35 -7l-38 8l-38 5l-44 11l-33 19l-52 37l-55 46l-39 43l-26 39l-23 67h4l2 24l4 11z" />
    <glyph glyph-name="Atilde" unicode="&#xc3;" horiz-adv-x="817" 
d="M486 902l-15 -57l-12 -35l-9 -58l-6 -9l-5 -34l-12 -38l-11 -52l-9 -47v-34l23 -6l81 -6l13 1l-1 71l-3 48l4 47v63l-5 93v79l-6 66zM523 1373l23 8l55 -3l35 -5l5 -6l21 -3l46 -23l64 -76l23 -36v-8l-3 -23l8 -24l3 -81l-3 -29v-29v-5l-5 -41l-3 -58l-3 -52l-12 -86
l-3 -27l-14 -60l-6 -15l-3 -37l-8 -38v-26l-6 -6v-20l-3 -9l6 -8l-18 -32v-9l18 -20v-18h8l-8 -37l-6 -15l6 -26l-9 -8l3 -18v-34l-12 -6l-6 -3l6 -35l6 -9l-3 -26l6 -20l-6 -6l3 -17l-3 -26l20 -119l6 -20l-3 -12l12 -37l-3 -29l3 -58l6 -15l-6 -8l3 -15l6 -29l8 -11
l-3 -20l9 -47l9 -34v-21l11 -43l-3 -35l-33 57l-30 62v6l-12 26l-35 69l-11 35l-26 66l-3 26l-17 38l-15 32l-14 66l-15 35l-11 64l-9 23l-15 58l-23 -9l-49 -6l-6 -5l-63 -3h-50l-23 -6l-17 -41l3 -31l-12 -41l-8 -32l-3 -17l-6 -9l-15 -43l-2 -20l-6 -12l-3 -29l-9 -32
l-17 -35l-3 -17l-17 -35l-12 -26l-15 -17l-20 -6l-14 -11l-29 -6h-17l-21 11l-20 26l-6 38l-3 9v63l6 41l20 118l12 47l23 110l12 43l8 15v20l-26 43l-3 18l12 8l-6 12l6 23l3 17v3l32 9l23 12l14 43l6 23l35 107l11 44l6 3v11l41 110l14 35l23 69l18 58l32 98l5 12l6 17
l38 102l11 18l27 70l26 52zM965 1768l24 9h17l-13 -35l4 -2v-2l-11 -11l-19 -35l-2 -17l-5 -13l-4 -3v-4l4 -2l-17 -41l2 -9v-2l9 -7l-5 -19l-6 -22l11 4v-4l-7 -7v-4l-15 -22l-2 -2l-4 -19l-9 -16l-11 -6l-9 -6l-17 -11l-43 -20l-59 -9l-61 3l-50 17l-32 20l-24 23l-17 29
l-20 45l-7 20l-17 -11l-30 -39l-13 -22l-2 -6l-16 -9l-2 -7l-17 -4l-11 -9h-2h-15l-9 -4h-20l-6 4l-2 7l-11 11l-15 17l6 4l-6 9v9l-2 15l6 30l28 61l26 41l41 33l35 24l22 11l17 -3l37 3l24 -5l65 -39l41 -56l5 -15l-2 -5v-50l2 -2l11 -8h15l34 6l18 13l32 39l48 63l28 31
l16 17z" />
    <glyph glyph-name="Otilde" unicode="&#xd5;" horiz-adv-x="1201" 
d="M740 883l-36 33l-42 -6l-31 -9l-36 -47l-39 -82l-54 -100l-18 -34l-12 -48l-16 -29l-19 -56l-8 -9l-30 -62l-34 -80l1 -76l15 -62l17 -20l32 -32l65 -23l114 -3l12 4l24 4l44 4l65 29l28 21l32 12l28 37l28 77l19 69l4 32l20 29l-8 12l3 81l-25 121l-21 64l-17 33l-40 44
l-37 56zM718 1213l12 6l29 -6l20 3l15 -11l14 -15l3 -11l15 -23l14 -6v-9l1 -34l6 -26l32 -29l29 -23l26 -29l9 1l17 -26l21 -26l17 -29l21 -17l6 -12l15 -28l-3 -9l11 -6l15 -32v-5l24 -20l6 -21l3 -37l8 -3l12 -23l6 -58l12 -43l6 -44l7 -28l23 -3l-3 -15l-3 -23v-23l3 -6
h6l-8 -37l-7 -50l-12 -52v-9l-6 -8v-18l-14 -23l-14 -49l-12 -12v-14l-8 -18l-23 -26l6 -11l-6 -9l-20 -12l-9 -12l-23 -8l-14 -21l-11 -20l-9 -9l-40 -24l-21 -5l-8 -9l-23 -18l-32 -6l-29 -9l-8 -9l-35 -17l-43 -6l-23 -9l-23 -6l-21 2l-26 -11l-81 7l-69 14l-79 32l-14 8
l-21 9l-75 40l-38 28l-56 52l-44 63l-32 60l-24 84l-9 46l2 99l6 49l22 90l37 81l11 12l3 15l29 46l22 35l69 96l23 32l83 105l23 26l8 9l23 15l18 26l23 12l17 20l20 9l23 23l26 12l17 12l75 21l6 6h23zM1055 1768l24 9h17l-13 -35l4 -2v-2l-11 -11l-19 -35l-2 -17l-5 -13
l-4 -3v-4l4 -2l-17 -41l2 -9v-2l9 -7l-5 -19l-6 -22l11 4v-4l-7 -7v-4l-15 -22l-2 -2l-4 -19l-9 -16l-11 -6l-9 -6l-17 -11l-43 -20l-59 -9l-61 3l-50 17l-32 20l-24 23l-17 29l-20 45l-7 20l-17 -11l-30 -39l-13 -22l-2 -6l-16 -9l-2 -7l-17 -4l-11 -9h-2h-15l-9 -4h-20
l-6 4l-2 7l-11 11l-15 17l6 4l-6 9v9l-2 15l6 30l28 61l26 41l41 33l35 24l22 11l17 -3l37 3l24 -5l65 -39l41 -56l5 -15l-2 -5v-50l2 -2l11 -8h15l34 6l18 13l32 39l48 63l28 31l16 17z" />
    <glyph glyph-name="OE" unicode="&#x152;" horiz-adv-x="1663" 
d="M699 814l-35 26l-37 -8l-16 -25l-15 -35l-27 -88l-39 -108l-13 -20l-6 -45l-11 -27l-13 -53l-6 -8l-15 -65l-29 -70l-3 -63l5 -48l16 -16l33 -26l61 -15l103 8l71 19l56 32l23 21l28 14l22 36l18 73l11 64v29l15 28l-8 10l-5 74l-34 107l-25 56l-18 28l-41 36l-39 47z
M1034 -36l-44 33l-13 22l-19 -19l-10 -25l-31 -10l-28 -11l-8 -10l-32 -21l-40 -8l-25 -14l-22 -9l-20 1l-25 -14l-81 -1l-71 7l-81 23l-16 7l-21 6l-79 32l-41 24l-60 46l-51 58l-38 57l-33 80l-13 45l-9 98l1 50l-1 6l13 86l29 85l10 12l1 15l23 49l19 37l59 103l19 35
l72 112l18 20l2 9l7 10l22 17l14 27l37 37l19 11l20 25l25 15l16 13l72 29l5 6l23 3l11 7l30 -3l19 6l16 -10l16 -13l4 -11l17 -22l15 -4l1 -8l4 -35l9 -25l35 -25l31 -20l29 -26l9 1l23 -26l20 -21l21 -27l14 32l21 70l-1 11l-21 13l-7 7l5 7l-4 11l7 13l36 21l5 6l17 34
l18 54l39 16l-1 9l-4 11l7 9l36 -8l6 -5l34 -17l9 1l28 9l25 11l29 6l76 18l37 12l68 13l21 -4l28 12l46 2l37 7l93 6l24 -3l17 -1l20 5l24 -6l75 5l6 -5l1 -6l14 7l29 -3l7 -11l17 8l29 -3l1 -8v-6h3l7 -5l-11 -10l-22 3l-11 -9l-16 4l-3 -12l-17 3l-5 -13h-27h-23l-18 4
l-45 -10l-25 -15l-9 5l-40 -7h-42l-38 -24l-31 -9l-74 -10l-34 -13l-38 -1l-13 -7l-32 -6l-22 -8l-42 -13l-30 -1l7 -38l23 -80v-80l-1 -41l-8 -28l-6 -28l-8 -53l-8 -48l-9 -56l68 7l9 -2l42 11l26 8h26l5 6l28 6l52 6l26 5l31 4l15 4l14 -18v-50l-27 -3l-2 -9l-34 -7
l-40 -10l-20 -5l-19 -7l-17 -8l-32 -3l-13 -10l-52 -9l-8 -7l-74 -10l-30 -6l-25 -90l-3 -36l-5 -34l-11 -28l-4 -44l9 -58l-1 -46l20 -50l14 -19l39 -37l28 -12l36 -10l30 -9l32 -5l50 -7l22 -9l26 3l32 -3l40 2l10 -8l12 -31l-19 -22l-26 -18l-42 -33l-35 -11l-34 -8
l-57 -12l-11 -4l-38 -4l-26 -2l-23 -3h-26l-23 1l-35 -1l-18 4l-18 4l-39 10l-15 7l-36 14l-10 8z" />
    <glyph glyph-name="oe" unicode="&#x153;" horiz-adv-x="1296" 
d="M1068 540h-6l-17 -4l-79 -34l-72 -39l-67 -47l-28 -30l-56 -57l27 -3l65 23l56 30l49 32l37 31l36 34zM566 539l-10 12l-14 -1l-19 -5l-12 -10l-24 -19l-26 -19l-45 -53l-34 -55l-30 -49l-38 -72l-29 -80l-1 -42l12 -20l21 -5l27 -12l38 3l36 19l57 27l41 49l30 61l25 79
l10 65l-12 73zM590 5l-12 13l-7 6l-6 -23l-30 -10l6 -16l-16 -10v-7l-30 -23l-77 -33l-75 -6h-6h-50l-16 3l-23 3l-23 7l-53 23l-30 16l-23 24l-16 19l-7 23l-17 24l-24 85l5 76l-3 43l3 30l10 23l3 13l23 20l-3 10l13 39l16 10l7 30l112 155l40 40l26 29l76 66l20 10l13 7
l30 20h3l10 -7l16 7l20 -14l43 23l20 -6l33 -3l39 -7l14 -17l13 -26v-7l-7 -6l10 -7l23 -33l-10 -20l17 -3l-4 -10l14 -13l15 -24l25 -28l84 40l89 56l132 56l69 -2l57 -28l16 -16l7 -23l-7 -7l10 -30l-12 -62l-41 -76l-13 -17l-23 -20l-13 -3l-33 -40l-20 -13v-6l-20 -20
l-36 -30l-3 -10l-20 -10h-7l-20 -16l-19 -10l-57 -40l-26 -10l-6 -9l-86 -33l-40 -4l-10 -29l4 -10l9 -17l47 -26l72 -20l79 -10l7 -7l132 -6l99 6l89 14l46 10h7v-7l-50 -30l-49 -29l-20 -7l-26 -3l-7 -10l-43 -17h-16l-7 -10l-13 -3h-20h-20l-10 -10l-69 -10l-39 -6h-27
h-36l-10 -7l-13 3h-20l-7 4l-66 3l-56 20l-13 10l-26 19l-20 20l-3 14z" />
    <glyph glyph-name="endash" unicode="&#x2013;" horiz-adv-x="1076" 
d="M584 483h87l112 4h160l37 -3l14 -10l-1 -8l-26 -10l-4 -9l-9 -2l-30 -18l-4 -14l-21 -10l-12 -11l-16 -11l-53 -16l-30 -10l-6 -8l-21 -13l-4 -9l-59 -16l-106 -30l-91 -16l-79 -3l-63 -6l-58 2l-51 -3l-80 29l-40 -8l-22 16l1 8l-17 19l-8 6l3 35l-5 15l20 36l10 14
l38 12l99 11l155 24z" />
    <glyph glyph-name="emdash" unicode="&#x2014;" horiz-adv-x="2211" 
d="M1357 514l274 5l370 -17l125 -20l3 -12l-22 -13l-35 -13l-27 -4l5 -9l-23 1l-6 -8l-38 -1l-33 -13l-4 -11h-8l-4 -5l-90 -4l-20 -5h-9l-6 -8l-32 -4l-15 -2l-36 5l-3 -9l-69 -2l-35 -4l-334 -13l-26 -7l-18 -5l-41 -4l-11 1l-26 -1l-24 -5l-20 4l-14 -2l-36 -4l-14 3
l-32 -15l-24 1l-23 -7l-20 1l-17 -2l-33 -9l-35 -1l-47 -3l-40 -7l-94 -16l-84 -10h-58l-142 -1l-113 3l-72 10l-29 4l-33 -22l-11 6l-23 7l-20 15l-5 18l-18 36l4 23l-2 17l28 28l12 22l21 5l14 -1l137 33l97 17l121 -2l75 10l56 6l70 11l78 2l27 4l20 -1l32 1l98 1l21 5
l26 -5l11 -3l38 4l90 -2z" />
    <glyph glyph-name="quotedblleft" unicode="&#x201c;" horiz-adv-x="802" 
d="M505 1351l19 6l25 -3h10l22 -13l3 -21l-3 -25l-22 -16l-16 -10l-28 -31l-53 -66l-73 -94l-15 -40l22 -7l9 -3l13 -37l-3 -10l-22 -37l-38 -41l-16 3l-25 -9l-47 -4l-25 7l-15 28l-4 28v63l16 56l31 57l32 43l66 79l72 59zM745 1367l40 20l34 5l48 -1l6 -6h12l9 -6l15 -30
l-12 -62l-32 -34l-39 -34l-73 -64l-42 -54l59 -17l14 -39l-6 -20l-18 -30l-18 -18l-18 -15l-3 -15l-21 3l-30 -33l-3 -9l-17 -5l-15 -6l-9 3l-21 -9h-3l-27 -3l-18 6l-12 9l-6 14l-17 21l-12 24l-12 33v36l3 38l15 51l50 80l63 72l71 62z" />
    <glyph glyph-name="quotedblright" unicode="&#x201d;" horiz-adv-x="802" 
d="M322 1340l30 3l85 -3l50 -23l13 -10l23 -37l17 -59v-79l-7 -37l-13 -23l-6 -23l-14 -20l-53 -49l-23 -7l-16 -16l-3 3l-27 -3l-13 3l-10 -13l-16 -13l-27 -13l-10 3l-39 -30h-4l-3 3l-33 -6l14 48l57 85l67 163l-32 27l-23 4l-33 3l-7 29l3 24l10 26l17 20zM636 1382
l26 10l46 -6l7 3l23 -20l20 -20l33 -69l10 -39l-4 -70l-16 -52l-20 -57l-16 -19l-10 -20l-10 -3l-36 -53l-40 -30l-16 -23l-27 -10l-13 -13l-20 13l-16 -7h-10l26 93l20 76l20 158l-37 17l-13 16l-6 27l6 29l10 17v3l23 23l20 3z" />
    <glyph glyph-name="quoteleft" unicode="&#x2018;" horiz-adv-x="528" 
d="M443 1367l40 20l34 5l48 -1l6 -6h12l9 -6l15 -30l-12 -62l-31 -34l-40 -34l-73 -64l-42 -54l59 -17l14 -39l-6 -20l-18 -30l-18 -18l-17 -15l-4 -15l-20 3l-30 -33l-3 -9l-18 -5l-15 -6l-9 3l-21 -9h-3l-26 -3l-18 6l-12 9l-6 14l-18 21l-12 24l-12 33v36l3 38l15 51
l51 80l62 72l72 62z" />
    <glyph glyph-name="quoteright" unicode="&#x2019;" horiz-adv-x="528" 
d="M333 1382l26 10l46 -6l7 3l23 -20l20 -20l33 -69l10 -39l-4 -70l-16 -52l-20 -57l-16 -19l-10 -20l-10 -3l-36 -53l-40 -30l-16 -23l-27 -10l-13 -13l-20 13l-16 -7h-10l26 93l28 75l20 158l-45 18l-13 16l-6 27l6 29l10 17v3l23 23l20 3z" />
    <glyph glyph-name="divide" unicode="&#xf7;" 
d="M82 1351v-1337h655v1337h-655zM751 0h-683v1365h683v-1365z" />
    <glyph glyph-name="lozenge" unicode="&#x25ca;" 
d="M82 1351v-1337h655v1337h-655zM751 0h-683v1365h683v-1365z" />
    <glyph glyph-name="ydieresis" unicode="&#xff;" horiz-adv-x="803" 
d="M297 746l40 3h16l7 -10h7l13 -33l3 -52l-7 -7l7 -7l-10 -43l-36 -82l-17 -33l-16 -46l-10 -30l-4 -3l-13 -53v-7l-3 -33l30 23l72 90l76 105l36 43l4 10l26 26l30 47l39 22l10 10l47 4l13 3l53 -33l9 -3l24 -23l3 -13l10 -7l16 -17v-39l3 -7v-29l-9 -30l3 -36l-17 -53
v-23l-13 -17l-10 -49l-7 -10l-16 -40l-6 -26l-25 -20l-22 -40l-13 -36l-27 -44l-19 -38l-13 -46l-20 -10l-3 -14l-13 -6l9 -13l-19 -50l-20 -30l6 -19h-9l-7 -4v-23l-15 -52l-8 -22l-17 -30l-19 -41l-8 -28l-19 -44l-16 -7v-17l-14 -9l4 -7l-13 -20l-21 -32l-19 -24l-10 -26
l-40 -37l-29 -39l-26 -17l-14 -6l-23 -17l-53 -16h-13l-39 -7l-10 -7l-35 -1l-38 15l-20 6h-23l-33 17l-36 10l-40 33l-26 26l-10 26l-7 17l4 10v10l-4 23l-6 13l3 17l-3 9l6 14l10 -17l4 7v39l13 -6l3 -46l7 -4l13 4l20 -14l6 -10l40 -16l125 3l50 10l52 20l20 10l37 10
l36 29l39 57l43 128l50 211l3 46l7 33l6 27l7 46l-69 -50l-14 10l-65 -22l-50 6l-13 10l-37 20l-39 36l-23 59l-10 46l-3 57l10 62l16 60l66 145l73 112l36 36zM662 1081l6 11l46 -14l17 3l9 -9l17 -20l29 -26l18 -50v-49v-5l-26 -29l-12 -6l-20 -6l-52 9l-41 20l-43 37
l-3 32l-9 12l23 69l21 15zM320 1089l32 6h3l17 -6l18 -8l17 3l-3 -15l21 -9l28 -26l12 -14l29 -67l3 -14v-20v-6l-15 -23l-14 -18l-3 -3l-29 -5l-35 -3l-37 14l-18 9l-3 3l-49 35l-23 20l-3 11v26l-5 23l5 27l15 31z" />
    <glyph glyph-name="Ydieresis" unicode="&#x178;" horiz-adv-x="1020" 
d="M1126 1499l27 22l20 16l32 19l6 -22l-8 -24l-20 -39l-10 -33l-41 -78l-14 -35l-58 -107l-23 -46l-23 -41l-18 -34l-8 -21l-38 -63l-14 -23l-21 -35l-23 -43l-9 -9l-14 -35l-15 -23l-14 -29l-23 -35l-9 -29l-35 -72l-14 -20l-17 -44v-8l-9 -9l-12 -26l-17 -29l-6 -17
l3 -15l-6 -87l-3 -110l-5 -20v-168l3 -23v-61l-3 -43v-23l-6 -15l-1 -30l-5 -36l-3 -9l-6 -29l3 -17l-8 -20l-24 -21l-90 -10l-65 19l-38 65l-19 80l-17 81l-11 93l-5 126l8 82l3 98l8 90v68l-71 77l-68 79l-74 106l-55 74l-30 68l-13 52l-11 64l11 37l31 32l15 14l23 -11
l11 -12l14 16l59 -22l37 -32l99 -104l49 -63l101 -139l36 -64l27 39l16 46l17 30l22 33l18 37l9 6l14 29l78 119l44 55l46 66l93 122l34 37l27 28l27 25l41 41zM686 1703l6 11l46 -14l17 3l9 -9l17 -20l29 -26l18 -50v-49v-5l-26 -29l-12 -6l-20 -6l-52 9l-41 20l-43 37
l-3 32l-9 12l23 69l21 15zM344 1711l32 6h3l17 -6l18 -8l17 3l-3 -15l21 -9l28 -26l12 -14l29 -67l3 -14v-20v-6l-15 -23l-14 -18l-3 -3l-29 -5l-35 -3l-37 14l-18 9l-3 3l-49 35l-23 20l-3 11v26l-5 23l5 27l15 31z" />
    <glyph glyph-name="fraction" unicode="&#x2215;" 
d="M82 1351v-1337h655v1337h-655zM751 0h-683v1365h683v-1365z" />
    <glyph glyph-name="currency" unicode="&#xa4;" 
d="M82 1351v-1337h655v1337h-655zM751 0h-683v1365h683v-1365z" />
    <glyph glyph-name="guilsinglleft" unicode="&#x2039;" horiz-adv-x="729" 
d="M538 770l20 6l29 -8l11 -9l15 -3v-17l11 -9l-5 -23l-3 -6l-12 -9l-14 -14l-52 -35l-15 -17l3 -3v-6l-70 -49l-5 -9l-70 -52l-11 -12l3 -5l-79 -76l-5 -5l-21 -18l-3 -8l6 -23l44 -44l150 -113l35 -35l43 -54v-6l-11 -3l-6 -9h-9l-3 -6h-3l-28 -14l-10 -5l-11 5l-40 20
l-20 1l-53 28l-23 6l-3 3l-60 32l-53 40l-37 38l-35 52l-17 29l-9 23l-3 14l3 44l23 63l15 21l87 78l170 121l125 79z" />
    <glyph glyph-name="guilsinglright" unicode="&#x203a;" horiz-adv-x="729" 
d="M253 741l32 20l29 -3l14 -11l9 -6h9l17 -23l93 -58l58 -38l17 -11l61 -70l34 -58l9 -20v-8l9 -15l-3 -20l6 -9l-1 -23l-5 -29l-3 -26l-6 -3l-6 -17h-8l-21 -15l-3 -14l-8 3l-9 -9l-11 -9l-3 -3l-21 -8l-8 -3l-6 6l-29 -23l-26 -18l-9 -3l-20 -3l-38 -8l-20 -3l-6 -9
l-20 -3l-14 -6l-58 -11h-9l-23 -9l-12 -3l-5 3l-35 -11l-49 -29l-6 5l-46 -26l-44 -14l-8 -6h-24v29l9 41l26 46l41 32l75 40l173 70l52 20l24 17l-85 69l-50 54l-24 45l-20 28l-15 24l-9 52l-6 18v17l6 20l3 3l14 26z" />
    <glyph glyph-name="fi" unicode="&#xf001;" 
d="M82 1351v-1337h655v1337h-655zM751 0h-683v1365h683v-1365z" />
    <glyph glyph-name="fl" unicode="&#xf002;" 
d="M82 1351v-1337h655v1337h-655zM751 0h-683v1365h683v-1365z" />
    <glyph glyph-name="daggerdbl" unicode="&#x2021;" 
d="M82 1351v-1337h655v1337h-655zM751 0h-683v1365h683v-1365z" />
    <glyph glyph-name="periodcentered" unicode="&#xb7;" horiz-adv-x="432" 
d="M135 623l18 11l53 -16l59 -10l15 -21l10 7l8 -4l14 -29l11 -21h4l7 10l7 -3l8 -11l18 -22l11 -65l-4 -33l4 -14l-11 3v-3l3 -11l-25 -15l-33 -7l-18 -25l-36 3h-7l-51 18l-51 33l-14 18l-19 4l4 7l-11 11v14l-33 19l-21 10l3 11h4v11l7 11l-3 15l7 7h11l5 37z" />
    <glyph glyph-name="periodcentered" unicode="&#x2219;" horiz-adv-x="432" 
d="M135 623l18 11l53 -16l59 -10l15 -21l10 7l8 -4l14 -29l11 -21h4l7 10l7 -3l8 -11l18 -22l11 -65l-4 -33l4 -14l-11 3v-3l3 -11l-25 -15l-33 -7l-18 -25l-36 3h-7l-51 18l-51 33l-14 18l-19 4l4 7l-11 11v14l-33 19l-21 10l3 11h4v11l7 11l-3 15l7 7h11l5 37z" />
    <glyph glyph-name="quotesinglbase" unicode="&#x201a;" 
d="M82 1351v-1337h655v1337h-655zM751 0h-683v1365h683v-1365z" />
    <glyph glyph-name="quotedblbase" unicode="&#x201e;" horiz-adv-x="802" 
d="M240 191l30 3l86 -3l49 -23l13 -10l23 -36l17 -60v-79l-7 -36l-13 -23l-6 -23l-14 -20l-52 -50l-24 -6l-16 -17l-3 4l-27 -4l-13 4l-10 -14l-16 -13l-27 -13l-10 3l-39 -29h-4l-3 3l-33 -7l14 49l57 86l66 163l-31 26l-23 3l-33 3l-7 30l3 23l10 27l17 19zM559 234l26 10
l46 -7l7 4l23 -20l20 -20l33 -69l10 -40l-4 -69l-16 -53l-20 -56l-16 -20l-10 -20l-10 -3l-36 -53l-40 -29l-17 -24l-26 -9l-13 -14l-20 14l-16 -7h-10l26 92l20 76l19 159l-36 16l-13 17l-6 26l6 30l10 16v4l23 23l20 3z" />
    <glyph glyph-name="perthousand" unicode="&#x2030;" horiz-adv-x="1643" 
d="M1382 373l-7 3l-25 -39l-18 -32l-14 -7l-14 -25l-22 -32l-10 -7l-24 -40l-33 -32l7 -3v-7l-7 -4l-4 -25l-18 -10l-14 -43l-11 -11l-7 -21l4 -4l68 22l64 49l50 61l39 78l3 68v14l-7 25v22zM1359 505l13 4l34 -14l3 -8l12 -2l5 -15l50 -40l14 -12l-2 -17l10 2l5 -12l-3 -8
l13 -19l2 -40l-7 -60l12 -24l-10 -18l-5 -9l5 -8v-10l-10 -22l-27 -62l-34 -57l-20 -12h-5l-10 -15l-30 -25l-42 -22l-57 -20l-59 -20l-58 4l-34 19l-12 17l-15 3v7l-20 20l-17 29l-7 35l-5 52l7 44l20 58l10 22l19 37l-19 7h-8l15 27l74 72l50 37l72 45l29 15l5 2l18 5z
M829 345l-6 3v-9l-21 -24l-26 -33l-12 -20l-18 -27l-9 -6l-9 -21l-38 -50l-3 -21l-15 -9v-15l-15 -9l3 -12l-9 -8v-9l-3 -12l57 18l53 41l42 51l32 65l3 56v12l-6 21v18zM401 948h-6l-33 -53l-12 -15l-41 -65l-24 -48l12 -6l48 12l26 15l18 44l9 66zM824 505l13 4l5 -2
l19 -7l10 -5l3 -8l12 -2l5 -15l49 -40l15 -12l10 -35l13 -19l7 -8l-12 -47v-45l12 -24l-10 -18l-5 -9l5 -8v-10l-10 -22l-7 -20l-3 -22l-17 -20l-21 -35l-38 -34l-10 -15l-30 -25l-42 -22l-22 -7l-10 -5l-25 -8l-59 -20l-58 4l-34 19l-27 20v7l-20 20l-17 29l-8 35l-4 52
l7 44l20 58l7 19l78 124l56 59l72 45l34 17h15zM912 1066l49 32h8l7 -15l-7 -20l5 -5l-18 -37l-12 -17l-35 -42l-15 -13l-7 -10l-35 -54l-17 -20l-17 -27l-32 -37l-25 -42l-30 -45l-25 -27l-7 -17l-15 -18l-15 -25l-32 -47v-5l-15 -12l-22 -32l-5 -10l-12 -5l-32 -57
l-20 -29l-10 -13l-20 -32l-30 -49l-19 -25l-25 -50l-8 -15l-24 -44l-35 -74l-5 -15l-12 -22v-5l-18 -47l-19 -62l-18 -67v-13l-12 -24l-8 -22l3 -10l-8 -13l-19 -15l-18 -17l-4 3l7 71l25 119l37 121l52 129l57 124l116 220l77 119l37 52l126 158l74 77l37 34zM310 1088
l54 23l30 -5l37 -20l17 -10l35 -25l7 -12v-5l15 -20l8 -27l4 -20l18 -39v-50l7 -42l-10 -30l-8 -36l-9 -37l-9 -18l-21 -22l-25 -15l-56 -27l-28 -5l-24 -10h-10l-10 -8l-27 5l-3 -5l-16 -6l-22 6l-26 13l-24 4l-21 20l-22 15l-10 13l-30 37l-12 24l-7 25l-3 32l3 33l5 34
l17 50l17 32l42 44l52 45z" />
    <glyph glyph-name="Acircumflex" unicode="&#xc2;" horiz-adv-x="817" 
d="M486 902l-15 -57l-12 -35l-9 -58l-6 -9l-5 -34l-12 -38l-11 -52l-9 -47v-34l23 -6l81 -6l13 1l-1 71l-3 48l4 47v63l-5 93v79l-6 66zM523 1373l23 8l55 -3l35 -5l5 -6l21 -3l46 -23l64 -76l23 -36v-8l-3 -23l8 -24l3 -81l-3 -29v-29v-5l-5 -41l-3 -58l-3 -52l-12 -86
l-3 -27l-14 -60l-6 -15l-3 -37l-8 -38v-26l-6 -6v-20l-3 -9l6 -8l-18 -32v-9l18 -20v-18h8l-8 -37l-6 -15l6 -26l-9 -8l3 -18v-34l-12 -6l-6 -3l6 -35l6 -9l-3 -26l6 -20l-6 -6l3 -17l-3 -26l20 -119l6 -20l-3 -12l12 -37l-3 -29l3 -58l6 -15l-6 -8l3 -15l6 -29l8 -11
l-3 -20l9 -47l9 -34v-21l11 -43l-3 -35l-33 57l-30 62v6l-12 26l-35 69l-11 35l-26 66l-3 26l-17 38l-15 32l-14 66l-15 35l-11 64l-9 23l-15 58l-23 -9l-49 -6l-6 -5l-63 -3h-50l-23 -6l-17 -41l3 -31l-12 -41l-8 -32l-3 -17l-6 -9l-15 -43l-2 -20l-6 -12l-3 -29l-9 -32
l-17 -35l-3 -17l-17 -35l-12 -26l-15 -17l-20 -6l-14 -11l-29 -6h-17l-21 11l-20 26l-6 38l-3 9v63l6 41l20 118l12 47l23 110l12 43l8 15v20l-26 43l-3 18l12 8l-6 12l6 23l3 17v3l32 9l23 12l14 43l6 23l35 107l11 44l6 3v11l41 110l14 35l23 69l18 58l32 98l5 12l6 17
l38 102l11 18l27 70l26 52zM690 1796l24 7l17 -2l18 -7h11l19 -8l33 -24l21 -37l29 -102l13 -50l19 -50l-2 -2l6 -24l-4 -4l-2 -24l-2 -2l-9 6l-4 -2h-20l-2 2h-2h-2h-2l-66 89l-23 33l-39 73l-3 -6l-13 -4l-6 -16l-33 -32l-43 -50l-15 -24l-76 -85l-22 -10l-11 -9l-17 -4
l-22 -5h-28l-13 5l-9 10l-4 18l-4 9l2 4v2v22l32 54l52 67l48 57l74 73l43 33z" />
    <glyph glyph-name="Ecircumflex" unicode="&#xca;" horiz-adv-x="1081" 
d="M461 1281l58 6l22 -6h8l22 -2h38l39 5l57 3h86l46 -8h53l104 -6l44 -5l171 -17l88 -8l46 -8h8l3 -14l-3 -17l-35 -8l-19 -3l-11 -5l-47 3l-14 -6l-38 3l-9 -6l-11 6l-5 -11l-8 -11v-14l-28 -8l-11 5l-8 -8h-3l-30 -8l-28 -22l-11 5l-5 -8l-11 3l-8 -8l-58 -9l-8 3
l-25 -11v-5l-38 -9l-22 -16l-20 -8l-13 -11l-39 -14l-36 -8l-16 -3l-8 -8l-44 -3l-31 -8l-38 -14l-41 -14l-6 -11l-14 -5l-38 -88l-17 -61l-16 -27l-3 -17l-5 -19l8 -3l66 11l107 3l107 -5l50 -6l16 -5l22 -3l11 -6l8 -2v-6l-13 -27l-42 -28l-22 -14l-10 3l-9 -14l-58 -13
l-68 -22l-39 -13l-115 -18l-30 -2l-36 -3l-19 -91l-6 -22l-14 -79l-8 -14v-91l3 -19v-22l8 -28l22 -13l33 -3h52l127 16l41 11l116 17l68 19l66 14l83 25l2 -12l-32 -41v-5l-31 -39l-52 -44l-36 -27l-14 -8l-5 -17l-19 -8l-36 -17l-11 -11h-11v-5l-19 -17l-14 -11l-8 3
l-17 -11l-11 -3v-5l-22 -6l-38 -16l-11 -6h-19l-6 -5l-85 -8l-50 2l-33 3l-110 28l-35 19l-36 22l-3 8l-19 19l-14 17l-11 27l-22 36l-11 30l-5 6l-11 63v14l-6 36l-2 68v28l8 22l-3 8v41l8 33l3 25l8 58l22 93l3 19l14 50l5 22v8l17 39l2 19l3 22l22 63l17 55l5 3l11 49
l-16 11l-33 28l-20 22l-8 13l25 12v5l14 8l-6 11l8 17v16l36 22h6l19 14l30 14l14 3l19 10l17 14l8 14l25 16zM794 1796l24 7l17 -2l18 -7h11l19 -8l33 -24l21 -37l29 -102l13 -50l19 -50l-2 -2l6 -24l-4 -4l-2 -24l-2 -2l-9 6l-4 -2h-20l-2 2h-2h-2h-2l-66 89l-23 33
l-39 73l-3 -6l-13 -4l-6 -16l-33 -32l-43 -50l-15 -24l-76 -85l-22 -10l-11 -9l-17 -4l-22 -5h-28l-13 5l-9 10l-4 18l-4 9l2 4v2v22l32 54l52 67l48 57l74 73l43 33z" />
    <glyph glyph-name="Aacute" unicode="&#xc1;" horiz-adv-x="817" 
d="M486 902l-15 -57l-12 -35l-9 -58l-6 -9l-5 -34l-12 -38l-11 -52l-9 -47v-34l23 -6l81 -6l13 1l-1 71l-3 48l4 47v63l-5 93v79l-6 66zM523 1373l23 8l55 -3l35 -5l5 -6l21 -3l46 -23l64 -76l23 -36v-8l-3 -23l8 -24l3 -81l-3 -29v-29v-5l-5 -41l-3 -58l-3 -52l-12 -86
l-3 -27l-14 -60l-6 -15l-3 -37l-8 -38v-26l-6 -6v-20l-3 -9l6 -8l-18 -32v-9l18 -20v-18h8l-8 -37l-6 -15l6 -26l-9 -8l3 -18v-34l-12 -6l-6 -3l6 -35l6 -9l-3 -26l6 -20l-6 -6l3 -17l-3 -26l20 -119l6 -20l-3 -12l12 -37l-3 -29l3 -58l6 -15l-6 -8l3 -15l6 -29l8 -11
l-3 -20l9 -47l9 -34v-21l11 -43l-3 -35l-33 57l-30 62v6l-12 26l-35 69l-11 35l-26 66l-3 26l-17 38l-15 32l-14 66l-15 35l-11 64l-9 23l-15 58l-23 -9l-49 -6l-6 -5l-63 -3h-50l-23 -6l-17 -41l3 -31l-12 -41l-8 -32l-3 -17l-6 -9l-15 -43l-2 -20l-6 -12l-3 -29l-9 -32
l-17 -35l-3 -17l-17 -35l-12 -26l-15 -17l-20 -6l-14 -11l-29 -6h-17l-21 11l-20 26l-6 38l-3 9v63l6 41l20 118l12 47l23 110l12 43l8 15v20l-26 43l-3 18l12 8l-6 12l6 23l3 17v3l32 9l23 12l14 43l6 23l35 107l11 44l6 3v11l41 110l14 35l23 69l18 58l32 98l5 12l6 17
l38 102l11 18l27 70l26 52zM848 1739l76 9h7l10 -7l3 -6l-9 -2l-7 -18l3 -6l-9 -4l-18 -9v-7l7 -8l-9 -9l5 -15l-9 -7v-6l26 4v-2l-30 -22l-5 -21l-15 -22l-13 -15l-24 -22l-22 -17l-82 -48l-74 -33l-15 -2h-35l-24 7h-17l-11 6v9l-9 8l-10 29l2 11l-4 10l4 9l13 13v5l61 54
l28 22l85 60l60 37z" />
    <glyph glyph-name="Edieresis" unicode="&#xcb;" horiz-adv-x="1081" 
d="M461 1281l58 6l22 -6h8l22 -2h38l39 5l57 3h86l46 -8h53l104 -6l44 -5l171 -17l88 -8l46 -8h8l3 -14l-3 -17l-35 -8l-19 -3l-11 -5l-47 3l-14 -6l-38 3l-9 -6l-11 6l-5 -11l-8 -11v-14l-28 -8l-11 5l-8 -8h-3l-30 -8l-28 -22l-11 5l-5 -8l-11 3l-8 -8l-58 -9l-8 3
l-25 -11v-5l-38 -9l-22 -16l-20 -8l-13 -11l-39 -14l-36 -8l-16 -3l-8 -8l-44 -3l-31 -8l-38 -14l-41 -14l-6 -11l-14 -5l-38 -88l-17 -61l-16 -27l-3 -17l-5 -19l8 -3l66 11l107 3l107 -5l50 -6l16 -5l22 -3l11 -6l8 -2v-6l-13 -27l-42 -28l-22 -14l-10 3l-9 -14l-58 -13
l-68 -22l-39 -13l-115 -18l-30 -2l-36 -3l-19 -91l-6 -22l-14 -79l-8 -14v-91l3 -19v-22l8 -28l22 -13l33 -3h52l127 16l41 11l116 17l68 19l66 14l83 25l2 -12l-32 -41v-5l-31 -39l-52 -44l-36 -27l-14 -8l-5 -17l-19 -8l-36 -17l-11 -11h-11v-5l-19 -17l-14 -11l-8 3
l-17 -11l-11 -3v-5l-22 -6l-38 -16l-11 -6h-19l-6 -5l-85 -8l-50 2l-33 3l-110 28l-35 19l-36 22l-3 8l-19 19l-14 17l-11 27l-22 36l-11 30l-5 6l-11 63v14l-6 36l-2 68v28l8 22l-3 8v41l8 33l3 25l8 58l22 93l3 19l14 50l5 22v8l17 39l2 19l3 22l22 63l17 55l5 3l11 49
l-16 11l-33 28l-20 22l-8 13l25 12v5l14 8l-6 11l8 17v16l36 22h6l19 14l30 14l14 3l19 10l17 14l8 14l25 16zM880 1703l6 11l46 -14l17 3l9 -9l17 -20l29 -26l18 -50v-49v-5l-26 -29l-12 -6l-20 -6l-52 9l-41 20l-43 37l-3 32l-9 12l23 69l21 15zM538 1711l32 6h3l17 -6
l18 -8l17 3l-3 -15l21 -9l28 -26l12 -14l29 -67l3 -14v-20v-6l-15 -23l-14 -18l-3 -3l-29 -5l-35 -3l-37 14l-18 9l-3 3l-49 35l-23 20l-3 11v26l-5 23l5 27l15 31z" />
    <glyph glyph-name="Egrave" unicode="&#xc8;" horiz-adv-x="1081" 
d="M461 1281l58 6l22 -6h8l22 -2h38l39 5l57 3h86l46 -8h53l104 -6l44 -5l171 -17l88 -8l46 -8h8l3 -14l-3 -17l-35 -8l-19 -3l-11 -5l-47 3l-14 -6l-38 3l-9 -6l-11 6l-5 -11l-8 -11v-14l-28 -8l-11 5l-8 -8h-3l-30 -8l-28 -22l-11 5l-5 -8l-11 3l-8 -8l-58 -9l-8 3
l-25 -11v-5l-38 -9l-22 -16l-20 -8l-13 -11l-39 -14l-36 -8l-16 -3l-8 -8l-44 -3l-31 -8l-38 -14l-41 -14l-6 -11l-14 -5l-38 -88l-17 -61l-16 -27l-3 -17l-5 -19l8 -3l66 11l107 3l107 -5l50 -6l16 -5l22 -3l11 -6l8 -2v-6l-13 -27l-42 -28l-22 -14l-10 3l-9 -14l-58 -13
l-68 -22l-39 -13l-115 -18l-30 -2l-36 -3l-19 -91l-6 -22l-14 -79l-8 -14v-91l3 -19v-22l8 -28l22 -13l33 -3h52l127 16l41 11l116 17l68 19l66 14l83 25l2 -12l-32 -41v-5l-31 -39l-52 -44l-36 -27l-14 -8l-5 -17l-19 -8l-36 -17l-11 -11h-11v-5l-19 -17l-14 -11l-8 3
l-17 -11l-11 -3v-5l-22 -6l-38 -16l-11 -6h-19l-6 -5l-85 -8l-50 2l-33 3l-110 28l-35 19l-36 22l-3 8l-19 19l-14 17l-11 27l-22 36l-11 30l-5 6l-11 63v14l-6 36l-2 68v28l8 22l-3 8v41l8 33l3 25l8 58l22 93l3 19l14 50l5 22v8l17 39l2 19l3 22l22 63l17 55l5 3l11 49
l-16 11l-33 28l-20 22l-8 13l25 12v5l14 8l-6 11l8 17v16l36 22h6l19 14l30 14l14 3l19 10l17 14l8 14l25 16zM584 1766l17 8l13 -2l15 2l3 -4h12l7 -9l32 -30l68 -74l32 -37l98 -108l54 -50l-2 -20l-6 -4l-9 4l-7 -4l-2 -2l-2 2h-2l-35 -7l-38 8l-38 5l-44 11l-33 19
l-52 37l-55 46l-39 43l-26 39l-23 67h4l2 24l4 11z" />
    <glyph glyph-name="Iacute" unicode="&#xcd;" horiz-adv-x="503" 
d="M449 1341l51 17l16 -4l36 -16l19 -30l14 -60l-14 -63l-11 -63l-22 -74l-32 -73l-33 -96l-55 -161l-35 -126l-28 -99l-16 -76l-17 -40l-3 -44l-16 -37l-4 -21l-4 -22l-12 -49l-7 -26l-22 -76l-3 -46l-5 -30l-3 -36l1 -13l-7 -34l-12 -20l-9 -59l-11 -47l-7 -17l-6 -5
l-19 17l-21 119l4 15l-9 19l-6 61l1 15l1 21v37l-6 13v125l3 37l1 54l8 70l3 11l6 90l15 55l16 87l4 21l6 44l10 30l11 52l8 41l15 56l3 8l15 72l3 31l6 15l12 20l12 31l2 23l18 30l14 25l-1 19l21 38l24 50l11 7l7 18l12 17l3 8l17 14l5 8zM722 1739l76 9h7l10 -7l3 -6
l-9 -2l-7 -18l3 -6l-9 -4l-18 -9v-7l7 -8l-9 -9l5 -15l-9 -7v-6l26 4v-2l-30 -22l-5 -21l-15 -22l-13 -15l-24 -22l-22 -17l-82 -48l-74 -33l-15 -2h-35l-24 7h-17l-11 6v9l-9 8l-10 29l2 11l-4 10l4 9l13 13v5l61 54l28 22l85 60l60 37z" />
    <glyph glyph-name="Icircumflex" unicode="&#xce;" horiz-adv-x="503" 
d="M449 1341l51 17l16 -4l36 -16l19 -30l14 -60l-14 -63l-11 -63l-22 -74l-32 -73l-33 -96l-55 -161l-35 -126l-28 -99l-16 -76l-17 -40l-3 -44l-16 -37l-4 -21l-4 -22l-12 -49l-7 -26l-22 -76l-3 -46l-5 -30l-3 -36l1 -13l-7 -34l-12 -20l-9 -59l-11 -47l-7 -17l-6 -5
l-19 17l-21 119l4 15l-9 19l-6 61l1 15l1 21v37l-6 13v125l3 37l1 54l8 70l3 11l6 90l15 55l16 87l4 21l6 44l10 30l11 52l8 41l15 56l3 8l15 72l3 31l6 15l12 20l12 31l2 23l18 30l14 25l-1 19l21 38l24 50l11 7l7 18l12 17l3 8l17 14l5 8zM562 1796l24 7l17 -2l18 -7h11
l19 -8l33 -24l21 -37l29 -102l13 -50l19 -50l-2 -2l6 -24l-4 -4l-2 -24l-2 -2l-9 6l-4 -2h-20l-2 2h-2h-2h-2l-66 89l-23 33l-39 73l-3 -6l-13 -4l-6 -16l-33 -32l-43 -50l-15 -24l-76 -85l-22 -10l-11 -9l-17 -4l-22 -5h-28l-13 5l-9 10l-4 18l-4 9l2 4v2v22l32 54l52 67
l48 57l74 73l43 33z" />
    <glyph glyph-name="Idieresis" unicode="&#xcf;" horiz-adv-x="503" 
d="M449 1341l51 17l16 -4l36 -16l19 -30l14 -60l-14 -63l-11 -63l-22 -74l-32 -73l-33 -96l-55 -161l-35 -126l-28 -99l-16 -76l-17 -40l-3 -44l-16 -37l-4 -21l-4 -22l-12 -49l-7 -26l-22 -76l-3 -46l-5 -30l-3 -36l1 -13l-7 -34l-12 -20l-9 -59l-11 -47l-7 -17l-6 -5
l-19 17l-21 119l4 15l-9 19l-6 61l1 15l1 21v37l-6 13v125l3 37l1 54l8 70l3 11l6 90l15 55l16 87l4 21l6 44l10 30l11 52l8 41l15 56l3 8l15 72l3 31l6 15l12 20l12 31l2 23l18 30l14 25l-1 19l21 38l24 50l11 7l7 18l12 17l3 8l17 14l5 8zM667 1703l6 11l46 -14l17 3l9 -9
l17 -20l29 -26l18 -50v-49v-5l-26 -29l-12 -6l-20 -6l-52 9l-41 20l-43 37l-3 32l-9 12l23 69l21 15zM325 1711l32 6h3l17 -6l18 -8l17 3l-3 -15l21 -9l28 -26l12 -14l29 -67l3 -14v-20v-6l-15 -23l-14 -18l-3 -3l-29 -5l-35 -3l-37 14l-18 9l-3 3l-49 35l-23 20l-3 11v26
l-5 23l5 27l15 31z" />
    <glyph glyph-name="Igrave" unicode="&#xcc;" horiz-adv-x="503" 
d="M449 1341l51 17l16 -4l36 -16l19 -30l14 -60l-14 -63l-11 -63l-22 -74l-32 -73l-33 -96l-55 -161l-35 -126l-28 -99l-16 -76l-17 -40l-3 -44l-16 -37l-4 -21l-4 -22l-12 -49l-7 -26l-22 -76l-3 -46l-5 -30l-3 -36l1 -13l-7 -34l-12 -20l-9 -59l-11 -47l-7 -17l-6 -5
l-19 17l-21 119l4 15l-9 19l-6 61l1 15l1 21v37l-6 13v125l3 37l1 54l8 70l3 11l6 90l15 55l16 87l4 21l6 44l10 30l11 52l8 41l15 56l3 8l15 72l3 31l6 15l12 20l12 31l2 23l18 30l14 25l-1 19l21 38l24 50l11 7l7 18l12 17l3 8l17 14l5 8zM336 1766l17 8l13 -2l15 2l3 -4
h12l7 -9l32 -30l68 -74l32 -37l98 -108l54 -50l-2 -20l-6 -4l-9 4l-7 -4l-2 -2l-2 2h-2l-35 -7l-38 8l-38 5l-44 11l-33 19l-52 37l-55 46l-39 43l-26 39l-23 67h4l2 24l4 11z" />
    <glyph glyph-name="Oacute" unicode="&#xd3;" horiz-adv-x="1201" 
d="M740 883l-36 33l-42 -6l-31 -9l-36 -47l-39 -82l-54 -100l-18 -34l-12 -48l-16 -29l-19 -56l-8 -9l-30 -62l-34 -80l1 -76l15 -62l17 -20l32 -32l65 -23l114 -3l12 4l24 4l44 4l65 29l28 21l32 12l28 37l28 77l19 69l4 32l20 29l-8 12l3 81l-25 121l-21 64l-17 33l-40 44
l-37 56zM718 1213l12 6l29 -6l20 3l15 -11l14 -15l3 -11l15 -23l14 -6v-9l1 -34l6 -26l32 -29l29 -23l26 -29l9 1l17 -26l21 -26l17 -29l21 -17l6 -12l15 -28l-3 -9l11 -6l15 -32v-5l24 -20l6 -21l3 -37l8 -3l12 -23l6 -58l12 -43l6 -44l7 -28l23 -3l-3 -15l-3 -23v-23l3 -6
h6l-8 -37l-7 -50l-12 -52v-9l-6 -8v-18l-14 -23l-14 -49l-12 -12v-14l-8 -18l-23 -26l6 -11l-6 -9l-20 -12l-9 -12l-23 -8l-14 -21l-11 -20l-9 -9l-40 -24l-21 -5l-8 -9l-23 -18l-32 -6l-29 -9l-8 -9l-35 -17l-43 -6l-23 -9l-23 -6l-21 2l-26 -11l-81 7l-69 14l-79 32l-14 8
l-21 9l-75 40l-38 28l-56 52l-44 63l-32 60l-24 84l-9 46l2 99l6 49l22 90l37 81l11 12l3 15l29 46l22 35l69 96l23 32l83 105l23 26l8 9l23 15l18 26l23 12l17 20l20 9l23 23l26 12l17 12l75 21l6 6h23zM927 1739l76 9h7l10 -7l3 -6l-9 -2l-7 -18l3 -6l-9 -4l-18 -9v-7
l7 -8l-9 -9l5 -15l-9 -7v-6l26 4v-2l-30 -22l-5 -21l-15 -22l-13 -15l-24 -22l-22 -17l-82 -48l-74 -33l-15 -2h-35l-24 7h-17l-11 6v9l-9 8l-10 29l2 11l-4 10l4 9l13 13v5l61 54l28 22l85 60l60 37z" />
    <glyph glyph-name="Ocircumflex" unicode="&#xd4;" horiz-adv-x="1201" 
d="M740 883l-36 33l-42 -6l-31 -9l-36 -47l-39 -82l-54 -100l-18 -34l-12 -48l-16 -29l-19 -56l-8 -9l-30 -62l-34 -80l1 -76l15 -62l17 -20l32 -32l65 -23l114 -3l12 4l24 4l44 4l65 29l28 21l32 12l28 37l28 77l19 69l4 32l20 29l-8 12l3 81l-25 121l-21 64l-17 33l-40 44
l-37 56zM718 1213l12 6l29 -6l20 3l15 -11l14 -15l3 -11l15 -23l14 -6v-9l1 -34l6 -26l32 -29l29 -23l26 -29l9 1l17 -26l21 -26l17 -29l21 -17l6 -12l15 -28l-3 -9l11 -6l15 -32v-5l24 -20l6 -21l3 -37l8 -3l12 -23l6 -58l12 -43l6 -44l7 -28l23 -3l-3 -15l-3 -23v-23l3 -6
h6l-8 -37l-7 -50l-12 -52v-9l-6 -8v-18l-14 -23l-14 -49l-12 -12v-14l-8 -18l-23 -26l6 -11l-6 -9l-20 -12l-9 -12l-23 -8l-14 -21l-11 -20l-9 -9l-40 -24l-21 -5l-8 -9l-23 -18l-32 -6l-29 -9l-8 -9l-35 -17l-43 -6l-23 -9l-23 -6l-21 2l-26 -11l-81 7l-69 14l-79 32l-14 8
l-21 9l-75 40l-38 28l-56 52l-44 63l-32 60l-24 84l-9 46l2 99l6 49l22 90l37 81l11 12l3 15l29 46l22 35l69 96l23 32l83 105l23 26l8 9l23 15l18 26l23 12l17 20l20 9l23 23l26 12l17 12l75 21l6 6h23zM750 1796l24 7l17 -2l18 -7h11l19 -8l33 -24l21 -37l29 -102l13 -50
l19 -50l-2 -2l6 -24l-4 -4l-2 -24l-2 -2l-9 6l-4 -2h-20l-2 2h-2h-2h-2l-66 89l-23 33l-39 73l-3 -6l-13 -4l-6 -16l-33 -32l-43 -50l-15 -24l-76 -85l-22 -10l-11 -9l-17 -4l-22 -5h-28l-13 5l-9 10l-4 18l-4 9l2 4v2v22l32 54l52 67l48 57l74 73l43 33z" />
    <glyph glyph-name="apple" unicode="&#xf000;" 
d="M82 1351v-1337h655v1337h-655zM751 0h-683v1365h683v-1365z" />
    <glyph glyph-name="Ograve" unicode="&#xd2;" horiz-adv-x="1201" 
d="M740 883l-36 33l-42 -6l-31 -9l-36 -47l-39 -82l-54 -100l-18 -34l-12 -48l-16 -29l-19 -56l-8 -9l-30 -62l-34 -80l1 -76l15 -62l17 -20l32 -32l65 -23l114 -3l12 4l24 4l44 4l65 29l28 21l32 12l28 37l28 77l19 69l4 32l20 29l-8 12l3 81l-25 121l-21 64l-17 33l-40 44
l-37 56zM718 1213l12 6l29 -6l20 3l15 -11l14 -15l3 -11l15 -23l14 -6v-9l1 -34l6 -26l32 -29l29 -23l26 -29l9 1l17 -26l21 -26l17 -29l21 -17l6 -12l15 -28l-3 -9l11 -6l15 -32v-5l24 -20l6 -21l3 -37l8 -3l12 -23l6 -58l12 -43l6 -44l7 -28l23 -3l-3 -15l-3 -23v-23l3 -6
h6l-8 -37l-7 -50l-12 -52v-9l-6 -8v-18l-14 -23l-14 -49l-12 -12v-14l-8 -18l-23 -26l6 -11l-6 -9l-20 -12l-9 -12l-23 -8l-14 -21l-11 -20l-9 -9l-40 -24l-21 -5l-8 -9l-23 -18l-32 -6l-29 -9l-8 -9l-35 -17l-43 -6l-23 -9l-23 -6l-21 2l-26 -11l-81 7l-69 14l-79 32l-14 8
l-21 9l-75 40l-38 28l-56 52l-44 63l-32 60l-24 84l-9 46l2 99l6 49l22 90l37 81l11 12l3 15l29 46l22 35l69 96l23 32l83 105l23 26l8 9l23 15l18 26l23 12l17 20l20 9l23 23l26 12l17 12l75 21l6 6h23zM532 1766l17 8l13 -2l15 2l3 -4h12l7 -9l32 -30l68 -74l32 -37
l98 -108l54 -50l-2 -20l-6 -4l-9 4l-7 -4l-2 -2l-2 2h-2l-35 -7l-38 8l-38 5l-44 11l-33 19l-52 37l-55 46l-39 43l-26 39l-23 67h4l2 24l4 11z" />
    <glyph glyph-name="Uacute" unicode="&#xda;" horiz-adv-x="1066" 
d="M1094 1363l9 17h9l8 -17v-64l-8 -29l3 -20v-15l-6 -46l-12 -20l3 -14l-11 -27l5 -34v-18l-11 -40l3 -29l-9 -46l-12 -50v-20l-5 -11l-6 -44l-12 -20v-23l-16 -26l-5 -30l7 -31l-3 -43l-6 -12l-6 -38v-23l-11 -46h-6l-9 -20l-11 -58v-26l3 -12l-2 -40l-4 -38l-12 -38
l-11 -66l-5 -36l-10 -28l-3 -17l-14 -15l-15 3l-5 -37l-12 -21l-23 -26l-20 -23l-16 -27l-25 -25l-14 -3l-21 -20l-11 -15l-41 -14h-20l-38 -17h-49l-23 -3l-49 6l-70 20l-72 37l-72 52l-61 70l-38 46l-37 72l-32 102l-12 32l-5 66v46l2 21v69l15 75l9 15l2 23l41 125l20 34
l6 23l23 47l3 14l41 64l14 17l38 64l20 17l38 35l28 17h24l14 9l3 9h26l43 -12l29 -29l16 -41v-35l-11 -22l-7 -18v-20l-20 -67l-17 -66l-44 -107l-34 -130l-29 -122l-12 -124l9 -73l8 -34l40 -63l58 -36l29 -17l11 -3h27l17 12l38 31l31 56l44 89l55 139v9l20 60l43 128
l55 159l26 81l9 17l9 12v26l29 72l20 58l3 15l55 141l14 41l6 9l12 63l-3 12zM1009 1739l76 9h7l10 -7l3 -6l-9 -2l-7 -18l3 -6l-9 -4l-18 -9v-7l7 -8l-9 -9l5 -15l-9 -7v-6l26 4v-2l-30 -22l-5 -21l-15 -22l-13 -15l-24 -22l-22 -17l-82 -48l-74 -33l-15 -2h-35l-24 7h-17
l-11 6v9l-9 8l-10 29l2 11l-4 10l4 9l13 13v5l61 54l28 22l85 60l60 37z" />
    <glyph glyph-name="Ucircumflex" unicode="&#xdb;" horiz-adv-x="1066" 
d="M1094 1363l9 17h9l8 -17v-64l-8 -29l3 -20v-15l-6 -46l-12 -20l3 -14l-11 -27l5 -34v-18l-11 -40l3 -29l-9 -46l-12 -50v-20l-5 -11l-6 -44l-12 -20v-23l-16 -26l-5 -30l7 -31l-3 -43l-6 -12l-6 -38v-23l-11 -46h-6l-9 -20l-11 -58v-26l3 -12l-2 -40l-4 -38l-12 -38
l-11 -66l-5 -36l-10 -28l-3 -17l-14 -15l-15 3l-5 -37l-12 -21l-23 -26l-20 -23l-16 -27l-25 -25l-14 -3l-21 -20l-11 -15l-41 -14h-20l-38 -17h-49l-23 -3l-49 6l-70 20l-72 37l-72 52l-61 70l-38 46l-37 72l-32 102l-12 32l-5 66v46l2 21v69l15 75l9 15l2 23l41 125l20 34
l6 23l23 47l3 14l41 64l14 17l38 64l20 17l38 35l28 17h24l14 9l3 9h26l43 -12l29 -29l16 -41v-35l-11 -22l-7 -18v-20l-20 -67l-17 -66l-44 -107l-34 -130l-29 -122l-12 -124l9 -73l8 -34l40 -63l58 -36l29 -17l11 -3h27l17 12l38 31l31 56l44 89l55 139v9l20 60l43 128
l55 159l26 81l9 17l9 12v26l29 72l20 58l3 15l55 141l14 41l6 9l12 63l-3 12zM835 1796l24 7l17 -2l18 -7h11l19 -8l33 -24l21 -37l29 -102l13 -50l19 -50l-2 -2l6 -24l-4 -4l-2 -24l-2 -2l-9 6l-4 -2h-20l-2 2h-2h-2h-2l-66 89l-23 33l-39 73l-3 -6l-13 -4l-6 -16l-33 -32
l-43 -50l-15 -24l-76 -85l-22 -10l-11 -9l-17 -4l-22 -5h-28l-13 5l-9 10l-4 18l-4 9l2 4v2v22l32 54l52 67l48 57l74 73l43 33z" />
    <glyph glyph-name="Ugrave" unicode="&#xd9;" horiz-adv-x="1066" 
d="M1094 1363l9 17h9l8 -17v-64l-8 -29l3 -20v-15l-6 -46l-12 -20l3 -14l-11 -27l5 -34v-18l-11 -40l3 -29l-9 -46l-12 -50v-20l-5 -11l-6 -44l-12 -20v-23l-16 -26l-5 -30l7 -31l-3 -43l-6 -12l-6 -38v-23l-11 -46h-6l-9 -20l-11 -58v-26l3 -12l-2 -40l-4 -38l-12 -38
l-11 -66l-5 -36l-10 -28l-3 -17l-14 -15l-15 3l-5 -37l-12 -21l-23 -26l-20 -23l-16 -27l-25 -25l-14 -3l-21 -20l-11 -15l-41 -14h-20l-38 -17h-49l-23 -3l-49 6l-70 20l-72 37l-72 52l-61 70l-38 46l-37 72l-32 102l-12 32l-5 66v46l2 21v69l15 75l9 15l2 23l41 125l20 34
l6 23l23 47l3 14l41 64l14 17l38 64l20 17l38 35l28 17h24l14 9l3 9h26l43 -12l29 -29l16 -41v-35l-11 -22l-7 -18v-20l-20 -67l-17 -66l-44 -107l-34 -130l-29 -122l-12 -124l9 -73l8 -34l40 -63l58 -36l29 -17l11 -3h27l17 12l38 31l31 56l44 89l55 139v9l20 60l43 128
l55 159l26 81l9 17l9 12v26l29 72l20 58l3 15l55 141l14 41l6 9l12 63l-3 12zM578 1766l17 8l13 -2l15 2l3 -4h12l7 -9l32 -30l68 -74l32 -37l98 -108l54 -50l-2 -20l-6 -4l-9 4l-7 -4l-2 -2l-2 2h-2l-35 -7l-38 8l-38 5l-44 11l-33 19l-52 37l-55 46l-39 43l-26 39l-23 67
h4l2 24l4 11z" />
    <glyph glyph-name="dotlessi" unicode="&#x131;" horiz-adv-x="481" 
d="M256 532l30 13l19 -6l10 6h7l26 -23l13 -7l24 -46l3 -32v-34l-30 -62l-46 -152l-10 -96l-3 -33l19 -6l60 3l76 20l-14 -27v-9l-19 -33l-14 -14l4 -10l-23 -16h-7l-6 -13l-27 -10l-6 -7l-60 -36l-23 -17l-43 -6l-6 -3l-10 6l-40 17l-49 36l-30 36l-13 33l-13 73v89l13 53
l39 99l60 102l52 69z" />
    <glyph glyph-name="circumflex" unicode="&#x2c6;" horiz-adv-x="770" 
d="M425 1796l24 7l17 -2l18 -7h11l19 -8l33 -24l21 -37l29 -102l13 -50l19 -50l-2 -2l6 -24l-4 -4l-2 -24l-2 -2l-9 6l-4 -2h-20l-2 2h-2h-2h-2l-66 89l-23 33l-39 73l-3 -6l-13 -4l-6 -16l-33 -32l-43 -50l-15 -24l-76 -85l-22 -10l-11 -9l-17 -4l-22 -5h-28l-13 5l-9 10
l-4 18l-4 9l2 4v2v22l32 54l52 67l48 57l74 73l43 33z" />
    <glyph glyph-name="tilde" unicode="&#x2dc;" horiz-adv-x="902" 
d="M725 1768l24 9h17l-13 -35l4 -2v-2l-11 -11l-19 -35l-2 -17l-5 -13l-4 -3v-4l4 -2l-17 -41l2 -9v-2l9 -7l-5 -19l-6 -22l11 4v-4l-7 -7v-4l-15 -22l-2 -2l-4 -19l-9 -16l-11 -6l-9 -6l-17 -11l-43 -20l-59 -9l-61 3l-50 17l-32 20l-24 23l-17 29l-20 45l-7 20l-17 -11
l-30 -39l-13 -22l-2 -6l-16 -9l-2 -7l-17 -4l-11 -9h-2h-15l-9 -4h-20l-6 4l-2 7l-11 11l-15 17l6 4l-6 9v9l-2 15l6 30l28 61l26 41l41 33l35 24l22 11l17 -3l37 3l24 -5l65 -39l41 -56l5 -15l-2 -5v-50l2 -2l11 -8h15l34 6l18 13l32 39l48 63l28 31l16 17z" />
    <glyph glyph-name="macron" unicode="&#xaf;" 
d="M82 1351v-1337h655v1337h-655zM751 0h-683v1365h683v-1365z" />
    <glyph glyph-name="breve" unicode="&#x2d8;" 
d="M82 1351v-1337h655v1337h-655zM751 0h-683v1365h683v-1365z" />
    <glyph glyph-name="dotaccent" unicode="&#x2d9;" 
d="M82 1351v-1337h655v1337h-655zM751 0h-683v1365h683v-1365z" />
    <glyph glyph-name="ring" unicode="&#x2da;" horiz-adv-x="605" 
d="M344 1649l-24 4l-51 -76l-7 -46l3 -28l3 -3l42 35l38 44v28zM280 1783l26 12l31 -7l15 -7l2 -3l14 -26v-12l10 -12l12 -7l26 -33l14 -10l22 -40l12 -27l2 -40l3 -31v-17l-3 -14l-9 -17l-46 -43l-17 -12l-12 -7l-28 -19l-41 -7l-45 -3l-81 22l-34 28l-9 22l-7 43v38l7 41
l17 35l-3 10l12 9l19 34l41 55l45 40z" />
    <glyph glyph-name="cedilla" unicode="&#xb8;" 
d="M82 1351v-1337h655v1337h-655zM751 0h-683v1365h683v-1365z" />
    <glyph glyph-name="hungarumlaut" unicode="&#x2ba;" 
d="M82 1351v-1337h655v1337h-655zM751 0h-683v1365h683v-1365z" />
    <glyph glyph-name="ogonek" unicode="&#x2db;" 
d="M82 1351v-1337h655v1337h-655zM751 0h-683v1365h683v-1365z" />
    <glyph glyph-name="caron" unicode="&#x2c7;" 
d="M82 1351v-1337h655v1337h-655zM751 0h-683v1365h683v-1365z" />
    </font>
</defs>
</svg>
